<?xml version="1.0" standalone="no"?>
<!DOCTYPE svg PUBLIC "-//W3C//DTD SVG 1.1//EN"
  "http://www.w3.org/Graphics/SVG/1.1/DTD/svg11.dtd">
<svg width="3.200100cm" height="3.200000cm" viewBox="-10.000000 5.000000 32.000999 32.000000"
     xmlns="http://www.w3.org/2000/svg" version="1.1">
  <title>Ingenious Esboo</title>
  <desc> made with tinkercad </desc>
<path d=" M 1.997000 19.997000 L 2.196683 19.997000 L 2.302000 19.468000 L 3.169000 18.169001 L 4.468000 17.302000 L 6.000000 16.997000 L 7.532000 17.302000 L 8.406396 17.885603 L 8.547604 17.744396 L 9.220825 17.071175 L 9.295000 16.997000 L 10.003000 16.289000 L 10.245000 16.047001 L 10.953000 16.754999 L 10.003000 17.705000 L 9.455926 18.252073 L 9.114396 18.593603 L 9.698000 19.468000 L 10.003000 21.000000 L 9.698000 22.532000 L 8.831000 23.830999 L 8.581011 23.997852 L 8.769096 24.451712 L 8.997559 25.003000 L 9.223000 25.547001 L 8.298000 25.930000 L 7.913671 25.003000 L 7.767760 24.651064 L 7.731903 24.564577 L 7.532000 24.698000 L 6.000000 25.003000 L 4.468000 24.698000 L 3.169000 23.830999 L 2.302000 22.532000 L 1.997597 21.003000 L 1.997000 21.003000 L -0.000000 21.003000 L -0.004000 21.003000 L -0.004000 19.997000 L -0.000000 19.997000 z M 10.003000 6.614468 L 8.926000 6.288000 L 6.000000 6.000000 L 3.074000 6.288000 L 1.997000 6.614468 L 0.260000 7.141000 L -0.000000 7.280021 L -0.004000 7.282160 L -2.334000 8.528000 L -4.607000 10.393000 L -6.472000 12.666000 L -7.859000 15.260000 L -8.712000 18.073999 L -9.000000 21.000000 L -8.712000 23.926001 L -7.859000 26.740000 L -6.472000 29.334000 L -4.607000 31.607000 L -2.334000 33.472000 L -0.004000 34.717842 L 0.000000 34.719978 L 0.260000 34.859001 L 3.074000 35.712002 L 6.000000 36.000000 L 8.926000 35.712002 L 11.740000 34.859001 L 14.334000 33.472000 L 15.192012 32.768002 L 16.607000 31.607000 L 18.472000 29.334000 L 19.858999 26.740000 L 20.385532 25.003000 L 20.712000 23.926001 L 21.000999 21.000000 L 20.712000 18.073999 L 19.858999 15.260000 L 18.472000 12.666000 L 16.607000 10.393000 L 14.334000 8.528000 L 11.740000 7.141000 z" fill="none" stroke="rgb(0,0,255)" stroke-width="0.01mm" />
</svg>
