<?xml version="1.0" standalone="no"?>
<!DOCTYPE svg PUBLIC "-//W3C//DTD SVG 1.1//EN"
  "http://www.w3.org/Graphics/SVG/1.1/DTD/svg11.dtd">
<svg width="12.200000cm" height="12.200200cm" viewBox="-54.000000 -48.000999 122.000000 122.001999"
     xmlns="http://www.w3.org/2000/svg" version="1.1">
  <title>Ingenious Esboo</title>
  <desc> made with tinkercad </desc>
<path d=" M -8.000000 -44.848534 L -15.961000 -42.432999 L -26.334000 -36.889000 L -35.426998 -29.427000 L -42.889000 -20.334000 L -48.432999 -9.961000 L -51.455372 0.000000 L -51.848000 1.294000 L -53.000000 13.000000 L -51.848000 24.705999 L -48.432999 35.960999 L -42.889000 46.334000 L -35.426998 55.426998 L -26.334000 62.889000 L -15.961000 68.432999 L -8.000000 70.848534 L -4.706000 71.848000 L 0.000000 72.311523 L 7.000000 73.000999 L 18.705999 71.848000 L 29.961000 68.432999 L 40.334000 62.889000 L 49.426998 55.426998 L 56.889000 46.334000 L 62.432999 35.960999 L 64.545113 29.000000 L 65.848000 24.705999 L 67.000000 13.000000 L 65.848000 1.294000 L 65.455376 0.000000 L 62.432999 -9.961000 L 56.889000 -20.334000 L 49.426998 -29.427000 L 40.334000 -36.889000 L 29.961000 -42.432999 L 22.000999 -44.848228 L 18.705999 -45.848000 L 7.000000 -47.000999 L -4.706000 -45.848000 z M 2.997000 4.386615 L 4.172000 3.758000 L 5.540998 3.342998 L 6.049000 3.189000 L 8.000000 2.997000 L 9.951000 3.189000 L 11.003000 3.507907 L 11.828000 3.758000 L 13.557000 4.683000 L 13.939656 4.997000 L 14.951607 5.827387 L 15.003000 5.869559 L 15.073000 5.927000 L 16.316999 7.443000 L 17.242001 9.172000 L 17.811001 11.049000 L 18.003000 13.000000 L 17.811001 14.951000 L 17.657003 15.459002 L 17.376596 16.384001 L 17.242001 16.827999 L 16.613384 18.003000 L 16.316999 18.556999 L 15.073000 20.073000 L 15.003000 20.130440 L 13.557000 21.316999 L 12.857866 21.691031 L 12.274736 22.003000 L 11.828000 22.242001 L 9.951000 22.811001 L 8.000000 23.003000 L 6.049000 22.811001 L 4.172000 22.242001 L 3.725264 22.003000 L 3.101040 21.669046 L 2.997000 21.613384 L 2.443000 21.316999 L 2.047223 20.992233 L 1.077566 20.196552 L 0.927000 20.073000 L 0.427311 19.464054 L -0.000000 18.943312 L -0.317000 18.556999 L -0.354662 18.486603 L -0.570000 18.224001 L -1.356000 16.754000 L -1.468276 16.384001 L -1.840000 15.159000 L -2.003000 13.500000 L -1.978417 13.249798 L -2.003000 13.000000 L -1.811000 11.049000 L -1.738776 10.810749 L -1.242000 9.172000 L -0.752387 8.256821 L -0.317000 7.443000 L -0.000000 7.056688 L 0.927000 5.927000 L 0.996000 5.870380 L 2.060344 4.997000 L 2.443000 4.683000 z" fill="none" stroke="rgb(0,0,255)" stroke-width="0.01mm" />
</svg>
