  0
SECTION
  2
BLOCKS
  0
ENDSEC
  0
SECTION
  2
ENTITIES
  0
LINE
  8
0
 10
-203.2
 11
-203.2
 20
-203.2
 21
203.2
  0
LINE
  8
0
 10
-203.2
 11
203.2
 20
203.2
 21
203.2
  0
LINE
  8
0
 10
203.2
 11
203.2
 20
203.2
 21
-203.2
  0
LINE
  8
0
 10
203.2
 11
-203.2
 20
-203.2
 21
-203.2
  0
LINE
  8
0
 10
-177.8
 11
-177.8
 20
82.55
 21
95.25
  0
LINE
  8
0
 10
-177.8
 11
-127
 20
95.25
 21
95.25
  0
LINE
  8
0
 10
-127
 11
-127
 20
95.25
 21
82.55
  0
LINE
  8
0
 10
-127
 11
-177.8
 20
82.55
 21
82.55
  0
LINE
  8
0
 10
-155.575
 11
-155.506
 20
141.288
 21
141.948
  0
LINE
  8
0
 10
-155.506
 11
-155.301
 20
141.948
 21
142.579
  0
LINE
  8
0
 10
-155.301
 11
-154.969
 20
142.579
 21
143.153
  0
LINE
  8
0
 10
-154.969
 11
-154.524
 20
143.153
 21
143.647
  0
LINE
  8
0
 10
-154.524
 11
-153.987
 20
143.647
 21
144.038
  0
LINE
  8
0
 10
-153.987
 11
-153.381
 20
144.038
 21
144.308
  0
LINE
  8
0
 10
-153.381
 11
-152.732
 20
144.308
 21
144.445
  0
LINE
  8
0
 10
-152.732
 11
-152.068
 20
144.445
 21
144.445
  0
LINE
  8
0
 10
-152.068
 11
-151.419
 20
144.445
 21
144.308
  0
LINE
  8
0
 10
-151.419
 11
-150.813
 20
144.308
 21
144.038
  0
LINE
  8
0
 10
-150.813
 11
-150.276
 20
144.038
 21
143.647
  0
LINE
  8
0
 10
-150.276
 11
-149.831
 20
143.647
 21
143.153
  0
LINE
  8
0
 10
-149.831
 11
-149.499
 20
143.153
 21
142.579
  0
LINE
  8
0
 10
-149.499
 11
-149.294
 20
142.579
 21
141.948
  0
LINE
  8
0
 10
-149.294
 11
-149.225
 20
141.948
 21
141.288
  0
LINE
  8
0
 10
-149.225
 11
-149.294
 20
141.288
 21
140.628
  0
LINE
  8
0
 10
-149.294
 11
-149.499
 20
140.628
 21
139.997
  0
LINE
  8
0
 10
-149.499
 11
-149.831
 20
139.997
 21
139.421
  0
LINE
  8
0
 10
-149.831
 11
-150.276
 20
139.421
 21
138.928
  0
LINE
  8
0
 10
-150.276
 11
-150.813
 20
138.928
 21
138.538
  0
LINE
  8
0
 10
-150.813
 11
-151.419
 20
138.538
 21
138.267
  0
LINE
  8
0
 10
-151.419
 11
-152.068
 20
138.267
 21
138.13
  0
LINE
  8
0
 10
-152.068
 11
-152.732
 20
138.13
 21
138.13
  0
LINE
  8
0
 10
-152.732
 11
-153.381
 20
138.13
 21
138.267
  0
LINE
  8
0
 10
-153.381
 11
-153.987
 20
138.267
 21
138.538
  0
LINE
  8
0
 10
-153.987
 11
-154.524
 20
138.538
 21
138.928
  0
LINE
  8
0
 10
-154.524
 11
-154.969
 20
138.928
 21
139.421
  0
LINE
  8
0
 10
-154.969
 11
-155.301
 20
139.421
 21
139.997
  0
LINE
  8
0
 10
-155.301
 11
-155.506
 20
139.997
 21
140.628
  0
LINE
  8
0
 10
-155.506
 11
-155.575
 20
140.628
 21
141.288
  0
LINE
  8
0
 10
-127
 11
-126.722
 20
-114.3
 21
-111.66
  0
LINE
  8
0
 10
-126.722
 11
-125.902
 20
-111.66
 21
-109.134
  0
LINE
  8
0
 10
-125.902
 11
-124.575
 20
-109.134
 21
-106.835
  0
LINE
  8
0
 10
-124.575
 11
-122.798
 20
-106.835
 21
-104.862
  0
LINE
  8
0
 10
-122.798
 11
-120.65
 20
-104.862
 21
-103.301
  0
LINE
  8
0
 10
-120.65
 11
-118.225
 20
-103.301
 21
-102.222
  0
LINE
  8
0
 10
-118.225
 11
-115.628
 20
-102.222
 21
-101.67
  0
LINE
  8
0
 10
-115.628
 11
-112.972
 20
-101.67
 21
-101.67
  0
LINE
  8
0
 10
-112.972
 11
-110.375
 20
-101.67
 21
-102.222
  0
LINE
  8
0
 10
-110.375
 11
-107.95
 20
-102.222
 21
-103.301
  0
LINE
  8
0
 10
-107.95
 11
-105.802
 20
-103.301
 21
-104.862
  0
LINE
  8
0
 10
-105.802
 11
-104.025
 20
-104.862
 21
-106.835
  0
LINE
  8
0
 10
-104.025
 11
-102.698
 20
-106.835
 21
-109.134
  0
LINE
  8
0
 10
-102.698
 11
-101.878
 20
-109.134
 21
-111.66
  0
LINE
  8
0
 10
-101.878
 11
-101.6
 20
-111.66
 21
-114.3
  0
LINE
  8
0
 10
-101.6
 11
-101.878
 20
-114.3
 21
-116.94
  0
LINE
  8
0
 10
-101.878
 11
-102.698
 20
-116.94
 21
-119.466
  0
LINE
  8
0
 10
-102.698
 11
-104.025
 20
-119.466
 21
-121.765
  0
LINE
  8
0
 10
-104.025
 11
-105.802
 20
-121.765
 21
-123.738
  0
LINE
  8
0
 10
-105.802
 11
-107.95
 20
-123.738
 21
-125.299
  0
LINE
  8
0
 10
-107.95
 11
-110.375
 20
-125.299
 21
-126.378
  0
LINE
  8
0
 10
-110.375
 11
-112.972
 20
-126.378
 21
-126.93
  0
LINE
  8
0
 10
-112.972
 11
-115.628
 20
-126.93
 21
-126.93
  0
LINE
  8
0
 10
-115.628
 11
-118.225
 20
-126.93
 21
-126.378
  0
LINE
  8
0
 10
-118.225
 11
-120.65
 20
-126.378
 21
-125.299
  0
LINE
  8
0
 10
-120.65
 11
-122.798
 20
-125.299
 21
-123.738
  0
LINE
  8
0
 10
-122.798
 11
-124.575
 20
-123.738
 21
-121.765
  0
LINE
  8
0
 10
-124.575
 11
-125.902
 20
-121.765
 21
-119.466
  0
LINE
  8
0
 10
-125.902
 11
-126.722
 20
-119.466
 21
-116.94
  0
LINE
  8
0
 10
-126.722
 11
-127
 20
-116.94
 21
-114.3
  0
LINE
  8
0
 10
-107.95
 11
-107.811
 20
50.8
 21
52.12
  0
LINE
  8
0
 10
-107.811
 11
-107.401
 20
52.12
 21
53.383
  0
LINE
  8
0
 10
-107.401
 11
-106.737
 20
53.383
 21
54.532
  0
LINE
  8
0
 10
-106.737
 11
-105.849
 20
54.532
 21
55.519
  0
LINE
  8
0
 10
-105.849
 11
-104.775
 20
55.519
 21
56.299
  0
LINE
  8
0
 10
-104.775
 11
-103.562
 20
56.299
 21
56.839
  0
LINE
  8
0
 10
-103.562
 11
-102.264
 20
56.839
 21
57.115
  0
LINE
  8
0
 10
-102.264
 11
-100.936
 20
57.115
 21
57.115
  0
LINE
  8
0
 10
-100.936
 11
-99.638
 20
57.115
 21
56.839
  0
LINE
  8
0
 10
-99.638
 11
-98.425
 20
56.839
 21
56.299
  0
LINE
  8
0
 10
-98.425
 11
-97.351
 20
56.299
 21
55.519
  0
LINE
  8
0
 10
-97.351
 11
-96.463
 20
55.519
 21
54.532
  0
LINE
  8
0
 10
-96.463
 11
-95.799
 20
54.532
 21
53.383
  0
LINE
  8
0
 10
-95.799
 11
-95.389
 20
53.383
 21
52.12
  0
LINE
  8
0
 10
-95.389
 11
-95.25
 20
52.12
 21
50.8
  0
LINE
  8
0
 10
-95.25
 11
-95.389
 20
50.8
 21
49.48
  0
LINE
  8
0
 10
-95.389
 11
-95.799
 20
49.48
 21
48.217
  0
LINE
  8
0
 10
-95.799
 11
-96.463
 20
48.217
 21
47.068
  0
LINE
  8
0
 10
-96.463
 11
-97.351
 20
47.068
 21
46.081
  0
LINE
  8
0
 10
-97.351
 11
-98.425
 20
46.081
 21
45.301
  0
LINE
  8
0
 10
-98.425
 11
-99.638
 20
45.301
 21
44.761
  0
LINE
  8
0
 10
-99.638
 11
-100.936
 20
44.761
 21
44.485
  0
LINE
  8
0
 10
-100.936
 11
-102.264
 20
44.485
 21
44.485
  0
LINE
  8
0
 10
-102.264
 11
-103.562
 20
44.485
 21
44.761
  0
LINE
  8
0
 10
-103.562
 11
-104.775
 20
44.761
 21
45.301
  0
LINE
  8
0
 10
-104.775
 11
-105.849
 20
45.301
 21
46.081
  0
LINE
  8
0
 10
-105.849
 11
-106.737
 20
46.081
 21
47.068
  0
LINE
  8
0
 10
-106.737
 11
-107.401
 20
47.068
 21
48.217
  0
LINE
  8
0
 10
-107.401
 11
-107.811
 20
48.217
 21
49.48
  0
LINE
  8
0
 10
-107.811
 11
-107.95
 20
49.48
 21
50.8
  0
LINE
  8
0
 10
-92.075
 11
-92.006
 20
0
 21
0.66
  0
LINE
  8
0
 10
-92.006
 11
-91.801
 20
0.66
 21
1.291
  0
LINE
  8
0
 10
-91.801
 11
-91.469
 20
1.291
 21
1.866
  0
LINE
  8
0
 10
-91.469
 11
-91.024
 20
1.866
 21
2.359
  0
LINE
  8
0
 10
-91.024
 11
-90.487
 20
2.359
 21
2.75
  0
LINE
  8
0
 10
-90.487
 11
-89.881
 20
2.75
 21
3.02
  0
LINE
  8
0
 10
-89.881
 11
-89.232
 20
3.02
 21
3.158
  0
LINE
  8
0
 10
-89.232
 11
-88.568
 20
3.158
 21
3.158
  0
LINE
  8
0
 10
-88.568
 11
-87.919
 20
3.158
 21
3.02
  0
LINE
  8
0
 10
-87.919
 11
-87.313
 20
3.02
 21
2.75
  0
LINE
  8
0
 10
-87.313
 11
-86.776
 20
2.75
 21
2.359
  0
LINE
  8
0
 10
-86.776
 11
-86.331
 20
2.359
 21
1.866
  0
LINE
  8
0
 10
-86.331
 11
-85.999
 20
1.866
 21
1.291
  0
LINE
  8
0
 10
-85.999
 11
-85.794
 20
1.291
 21
0.66
  0
LINE
  8
0
 10
-85.794
 11
-85.725
 20
0.66
 21
0
  0
LINE
  8
0
 10
-85.725
 11
-85.794
 20
0
 21
-0.66
  0
LINE
  8
0
 10
-85.794
 11
-85.999
 20
-0.66
 21
-1.291
  0
LINE
  8
0
 10
-85.999
 11
-86.331
 20
-1.291
 21
-1.866
  0
LINE
  8
0
 10
-86.331
 11
-86.776
 20
-1.866
 21
-2.359
  0
LINE
  8
0
 10
-86.776
 11
-87.313
 20
-2.359
 21
-2.75
  0
LINE
  8
0
 10
-87.313
 11
-87.919
 20
-2.75
 21
-3.02
  0
LINE
  8
0
 10
-87.919
 11
-88.568
 20
-3.02
 21
-3.158
  0
LINE
  8
0
 10
-88.568
 11
-89.232
 20
-3.158
 21
-3.158
  0
LINE
  8
0
 10
-89.232
 11
-89.881
 20
-3.158
 21
-3.02
  0
LINE
  8
0
 10
-89.881
 11
-90.487
 20
-3.02
 21
-2.75
  0
LINE
  8
0
 10
-90.487
 11
-91.024
 20
-2.75
 21
-2.359
  0
LINE
  8
0
 10
-91.024
 11
-91.469
 20
-2.359
 21
-1.866
  0
LINE
  8
0
 10
-91.469
 11
-91.801
 20
-1.866
 21
-1.291
  0
LINE
  8
0
 10
-91.801
 11
-92.006
 20
-1.291
 21
-0.66
  0
LINE
  8
0
 10
-92.006
 11
-92.075
 20
-0.66
 21
0
  0
LINE
  8
0
 10
-79.375
 11
-79.306
 20
69.85
 21
70.51
  0
LINE
  8
0
 10
-79.306
 11
-79.101
 20
70.51
 21
71.141
  0
LINE
  8
0
 10
-79.101
 11
-78.769
 20
71.141
 21
71.716
  0
LINE
  8
0
 10
-78.769
 11
-78.324
 20
71.716
 21
72.209
  0
LINE
  8
0
 10
-78.324
 11
-77.787
 20
72.209
 21
72.6
  0
LINE
  8
0
 10
-77.787
 11
-77.181
 20
72.6
 21
72.87
  0
LINE
  8
0
 10
-77.181
 11
-76.532
 20
72.87
 21
73.008
  0
LINE
  8
0
 10
-76.532
 11
-75.868
 20
73.008
 21
73.008
  0
LINE
  8
0
 10
-75.868
 11
-75.219
 20
73.008
 21
72.87
  0
LINE
  8
0
 10
-75.219
 11
-74.613
 20
72.87
 21
72.6
  0
LINE
  8
0
 10
-74.613
 11
-74.076
 20
72.6
 21
72.209
  0
LINE
  8
0
 10
-74.076
 11
-73.631
 20
72.209
 21
71.716
  0
LINE
  8
0
 10
-73.631
 11
-73.299
 20
71.716
 21
71.141
  0
LINE
  8
0
 10
-73.299
 11
-73.094
 20
71.141
 21
70.51
  0
LINE
  8
0
 10
-73.094
 11
-73.025
 20
70.51
 21
69.85
  0
LINE
  8
0
 10
-73.025
 11
-73.094
 20
69.85
 21
69.19
  0
LINE
  8
0
 10
-73.094
 11
-73.299
 20
69.19
 21
68.559
  0
LINE
  8
0
 10
-73.299
 11
-73.631
 20
68.559
 21
67.984
  0
LINE
  8
0
 10
-73.631
 11
-74.076
 20
67.984
 21
67.491
  0
LINE
  8
0
 10
-74.076
 11
-74.613
 20
67.491
 21
67.1
  0
LINE
  8
0
 10
-74.613
 11
-75.219
 20
67.1
 21
66.83
  0
LINE
  8
0
 10
-75.219
 11
-75.868
 20
66.83
 21
66.692
  0
LINE
  8
0
 10
-75.868
 11
-76.532
 20
66.692
 21
66.692
  0
LINE
  8
0
 10
-76.532
 11
-77.181
 20
66.692
 21
66.83
  0
LINE
  8
0
 10
-77.181
 11
-77.787
 20
66.83
 21
67.1
  0
LINE
  8
0
 10
-77.787
 11
-78.324
 20
67.1
 21
67.491
  0
LINE
  8
0
 10
-78.324
 11
-78.769
 20
67.491
 21
67.984
  0
LINE
  8
0
 10
-78.769
 11
-79.101
 20
67.984
 21
68.559
  0
LINE
  8
0
 10
-79.101
 11
-79.306
 20
68.559
 21
69.19
  0
LINE
  8
0
 10
-79.306
 11
-79.375
 20
69.19
 21
69.85
  0
LINE
  8
0
 10
-73.175
 11
-73.106
 20
25
 21
25.66
  0
LINE
  8
0
 10
-73.106
 11
-72.901
 20
25.66
 21
26.291
  0
LINE
  8
0
 10
-72.901
 11
-72.569
 20
26.291
 21
26.866
  0
LINE
  8
0
 10
-72.569
 11
-72.124
 20
26.866
 21
27.359
  0
LINE
  8
0
 10
-72.124
 11
-71.587
 20
27.359
 21
27.75
  0
LINE
  8
0
 10
-71.587
 11
-70.981
 20
27.75
 21
28.02
  0
LINE
  8
0
 10
-70.981
 11
-70.332
 20
28.02
 21
28.158
  0
LINE
  8
0
 10
-70.332
 11
-69.668
 20
28.158
 21
28.158
  0
LINE
  8
0
 10
-69.668
 11
-69.019
 20
28.158
 21
28.02
  0
LINE
  8
0
 10
-69.019
 11
-68.413
 20
28.02
 21
27.75
  0
LINE
  8
0
 10
-68.413
 11
-67.876
 20
27.75
 21
27.359
  0
LINE
  8
0
 10
-67.876
 11
-67.431
 20
27.359
 21
26.866
  0
LINE
  8
0
 10
-67.431
 11
-67.099
 20
26.866
 21
26.291
  0
LINE
  8
0
 10
-67.099
 11
-66.894
 20
26.291
 21
25.66
  0
LINE
  8
0
 10
-66.894
 11
-66.825
 20
25.66
 21
25
  0
LINE
  8
0
 10
-66.825
 11
-66.894
 20
25
 21
24.34
  0
LINE
  8
0
 10
-66.894
 11
-67.099
 20
24.34
 21
23.709
  0
LINE
  8
0
 10
-67.099
 11
-67.431
 20
23.709
 21
23.134
  0
LINE
  8
0
 10
-67.431
 11
-67.876
 20
23.134
 21
22.641
  0
LINE
  8
0
 10
-67.876
 11
-68.413
 20
22.641
 21
22.25
  0
LINE
  8
0
 10
-68.413
 11
-69.019
 20
22.25
 21
21.98
  0
LINE
  8
0
 10
-69.019
 11
-69.668
 20
21.98
 21
21.842
  0
LINE
  8
0
 10
-69.668
 11
-70.332
 20
21.842
 21
21.842
  0
LINE
  8
0
 10
-70.332
 11
-70.981
 20
21.842
 21
21.98
  0
LINE
  8
0
 10
-70.981
 11
-71.587
 20
21.98
 21
22.25
  0
LINE
  8
0
 10
-71.587
 11
-72.124
 20
22.25
 21
22.641
  0
LINE
  8
0
 10
-72.124
 11
-72.569
 20
22.641
 21
23.134
  0
LINE
  8
0
 10
-72.569
 11
-72.901
 20
23.134
 21
23.709
  0
LINE
  8
0
 10
-72.901
 11
-73.106
 20
23.709
 21
24.34
  0
LINE
  8
0
 10
-73.106
 11
-73.175
 20
24.34
 21
25
  0
LINE
  8
0
 10
-28.575
 11
-28.506
 20
19.05
 21
19.71
  0
LINE
  8
0
 10
-28.506
 11
-28.301
 20
19.71
 21
20.341
  0
LINE
  8
0
 10
-28.301
 11
-27.969
 20
20.341
 21
20.916
  0
LINE
  8
0
 10
-27.969
 11
-27.524
 20
20.916
 21
21.409
  0
LINE
  8
0
 10
-27.524
 11
-26.987
 20
21.409
 21
21.8
  0
LINE
  8
0
 10
-26.987
 11
-26.381
 20
21.8
 21
22.07
  0
LINE
  8
0
 10
-26.381
 11
-25.732
 20
22.07
 21
22.208
  0
LINE
  8
0
 10
-25.732
 11
-25.068
 20
22.208
 21
22.208
  0
LINE
  8
0
 10
-25.068
 11
-24.419
 20
22.208
 21
22.07
  0
LINE
  8
0
 10
-24.419
 11
-23.813
 20
22.07
 21
21.8
  0
LINE
  8
0
 10
-23.813
 11
-23.276
 20
21.8
 21
21.409
  0
LINE
  8
0
 10
-23.276
 11
-22.831
 20
21.409
 21
20.916
  0
LINE
  8
0
 10
-22.831
 11
-22.499
 20
20.916
 21
20.341
  0
LINE
  8
0
 10
-22.499
 11
-22.294
 20
20.341
 21
19.71
  0
LINE
  8
0
 10
-22.294
 11
-22.225
 20
19.71
 21
19.05
  0
LINE
  8
0
 10
-22.225
 11
-22.294
 20
19.05
 21
18.39
  0
LINE
  8
0
 10
-22.294
 11
-22.499
 20
18.39
 21
17.759
  0
LINE
  8
0
 10
-22.499
 11
-22.831
 20
17.759
 21
17.184
  0
LINE
  8
0
 10
-22.831
 11
-23.276
 20
17.184
 21
16.691
  0
LINE
  8
0
 10
-23.276
 11
-23.813
 20
16.691
 21
16.3
  0
LINE
  8
0
 10
-23.813
 11
-24.419
 20
16.3
 21
16.03
  0
LINE
  8
0
 10
-24.419
 11
-25.068
 20
16.03
 21
15.892
  0
LINE
  8
0
 10
-25.068
 11
-25.732
 20
15.892
 21
15.892
  0
LINE
  8
0
 10
-25.732
 11
-26.381
 20
15.892
 21
16.03
  0
LINE
  8
0
 10
-26.381
 11
-26.987
 20
16.03
 21
16.3
  0
LINE
  8
0
 10
-26.987
 11
-27.524
 20
16.3
 21
16.691
  0
LINE
  8
0
 10
-27.524
 11
-27.969
 20
16.691
 21
17.184
  0
LINE
  8
0
 10
-27.969
 11
-28.301
 20
17.184
 21
17.759
  0
LINE
  8
0
 10
-28.301
 11
-28.506
 20
17.759
 21
18.39
  0
LINE
  8
0
 10
-28.506
 11
-28.575
 20
18.39
 21
19.05
  0
LINE
  8
0
 10
22.225
 11
22.294
 20
-19.05
 21
-18.39
  0
LINE
  8
0
 10
22.294
 11
22.499
 20
-18.39
 21
-17.759
  0
LINE
  8
0
 10
22.499
 11
22.831
 20
-17.759
 21
-17.184
  0
LINE
  8
0
 10
22.831
 11
23.276
 20
-17.184
 21
-16.691
  0
LINE
  8
0
 10
23.276
 11
23.813
 20
-16.691
 21
-16.3
  0
LINE
  8
0
 10
23.813
 11
24.419
 20
-16.3
 21
-16.03
  0
LINE
  8
0
 10
24.419
 11
25.068
 20
-16.03
 21
-15.892
  0
LINE
  8
0
 10
25.068
 11
25.732
 20
-15.892
 21
-15.892
  0
LINE
  8
0
 10
25.732
 11
26.381
 20
-15.892
 21
-16.03
  0
LINE
  8
0
 10
26.381
 11
26.987
 20
-16.03
 21
-16.3
  0
LINE
  8
0
 10
26.987
 11
27.524
 20
-16.3
 21
-16.691
  0
LINE
  8
0
 10
27.524
 11
27.969
 20
-16.691
 21
-17.184
  0
LINE
  8
0
 10
27.969
 11
28.301
 20
-17.184
 21
-17.759
  0
LINE
  8
0
 10
28.301
 11
28.506
 20
-17.759
 21
-18.39
  0
LINE
  8
0
 10
28.506
 11
28.575
 20
-18.39
 21
-19.05
  0
LINE
  8
0
 10
28.575
 11
28.506
 20
-19.05
 21
-19.71
  0
LINE
  8
0
 10
28.506
 11
28.301
 20
-19.71
 21
-20.341
  0
LINE
  8
0
 10
28.301
 11
27.969
 20
-20.341
 21
-20.916
  0
LINE
  8
0
 10
27.969
 11
27.524
 20
-20.916
 21
-21.409
  0
LINE
  8
0
 10
27.524
 11
26.987
 20
-21.409
 21
-21.8
  0
LINE
  8
0
 10
26.987
 11
26.381
 20
-21.8
 21
-22.07
  0
LINE
  8
0
 10
26.381
 11
25.732
 20
-22.07
 21
-22.208
  0
LINE
  8
0
 10
25.732
 11
25.068
 20
-22.208
 21
-22.208
  0
LINE
  8
0
 10
25.068
 11
24.419
 20
-22.208
 21
-22.07
  0
LINE
  8
0
 10
24.419
 11
23.813
 20
-22.07
 21
-21.8
  0
LINE
  8
0
 10
23.813
 11
23.276
 20
-21.8
 21
-21.409
  0
LINE
  8
0
 10
23.276
 11
22.831
 20
-21.409
 21
-20.916
  0
LINE
  8
0
 10
22.831
 11
22.499
 20
-20.916
 21
-20.341
  0
LINE
  8
0
 10
22.499
 11
22.294
 20
-20.341
 21
-19.71
  0
LINE
  8
0
 10
22.294
 11
22.225
 20
-19.71
 21
-19.05
  0
LINE
  8
0
 10
66.825
 11
66.894
 20
-25.1
 21
-24.44
  0
LINE
  8
0
 10
66.894
 11
67.099
 20
-24.44
 21
-23.809
  0
LINE
  8
0
 10
67.099
 11
67.431
 20
-23.809
 21
-23.234
  0
LINE
  8
0
 10
67.431
 11
67.876
 20
-23.234
 21
-22.741
  0
LINE
  8
0
 10
67.876
 11
68.413
 20
-22.741
 21
-22.35
  0
LINE
  8
0
 10
68.413
 11
69.019
 20
-22.35
 21
-22.08
  0
LINE
  8
0
 10
69.019
 11
69.668
 20
-22.08
 21
-21.942
  0
LINE
  8
0
 10
69.668
 11
70.332
 20
-21.942
 21
-21.942
  0
LINE
  8
0
 10
70.332
 11
70.981
 20
-21.942
 21
-22.08
  0
LINE
  8
0
 10
70.981
 11
71.587
 20
-22.08
 21
-22.35
  0
LINE
  8
0
 10
71.587
 11
72.124
 20
-22.35
 21
-22.741
  0
LINE
  8
0
 10
72.124
 11
72.569
 20
-22.741
 21
-23.234
  0
LINE
  8
0
 10
72.569
 11
72.901
 20
-23.234
 21
-23.809
  0
LINE
  8
0
 10
72.901
 11
73.106
 20
-23.809
 21
-24.44
  0
LINE
  8
0
 10
73.106
 11
73.175
 20
-24.44
 21
-25.1
  0
LINE
  8
0
 10
73.175
 11
73.106
 20
-25.1
 21
-25.76
  0
LINE
  8
0
 10
73.106
 11
72.901
 20
-25.76
 21
-26.391
  0
LINE
  8
0
 10
72.901
 11
72.569
 20
-26.391
 21
-26.966
  0
LINE
  8
0
 10
72.569
 11
72.124
 20
-26.966
 21
-27.459
  0
LINE
  8
0
 10
72.124
 11
71.587
 20
-27.459
 21
-27.85
  0
LINE
  8
0
 10
71.587
 11
70.981
 20
-27.85
 21
-28.12
  0
LINE
  8
0
 10
70.981
 11
70.332
 20
-28.12
 21
-28.258
  0
LINE
  8
0
 10
70.332
 11
69.668
 20
-28.258
 21
-28.258
  0
LINE
  8
0
 10
69.668
 11
69.019
 20
-28.258
 21
-28.12
  0
LINE
  8
0
 10
69.019
 11
68.413
 20
-28.12
 21
-27.85
  0
LINE
  8
0
 10
68.413
 11
67.876
 20
-27.85
 21
-27.459
  0
LINE
  8
0
 10
67.876
 11
67.431
 20
-27.459
 21
-26.966
  0
LINE
  8
0
 10
67.431
 11
67.099
 20
-26.966
 21
-26.391
  0
LINE
  8
0
 10
67.099
 11
66.894
 20
-26.391
 21
-25.76
  0
LINE
  8
0
 10
66.894
 11
66.825
 20
-25.76
 21
-25.1
  0
LINE
  8
0
 10
73.025
 11
73.094
 20
-69.85
 21
-69.19
  0
LINE
  8
0
 10
73.094
 11
73.299
 20
-69.19
 21
-68.559
  0
LINE
  8
0
 10
73.299
 11
73.631
 20
-68.559
 21
-67.984
  0
LINE
  8
0
 10
73.631
 11
74.076
 20
-67.984
 21
-67.491
  0
LINE
  8
0
 10
74.076
 11
74.613
 20
-67.491
 21
-67.1
  0
LINE
  8
0
 10
74.613
 11
75.219
 20
-67.1
 21
-66.83
  0
LINE
  8
0
 10
75.219
 11
75.868
 20
-66.83
 21
-66.692
  0
LINE
  8
0
 10
75.868
 11
76.532
 20
-66.692
 21
-66.692
  0
LINE
  8
0
 10
76.532
 11
77.181
 20
-66.692
 21
-66.83
  0
LINE
  8
0
 10
77.181
 11
77.787
 20
-66.83
 21
-67.1
  0
LINE
  8
0
 10
77.787
 11
78.324
 20
-67.1
 21
-67.491
  0
LINE
  8
0
 10
78.324
 11
78.769
 20
-67.491
 21
-67.984
  0
LINE
  8
0
 10
78.769
 11
79.101
 20
-67.984
 21
-68.559
  0
LINE
  8
0
 10
79.101
 11
79.306
 20
-68.559
 21
-69.19
  0
LINE
  8
0
 10
79.306
 11
79.375
 20
-69.19
 21
-69.85
  0
LINE
  8
0
 10
79.375
 11
79.306
 20
-69.85
 21
-70.51
  0
LINE
  8
0
 10
79.306
 11
79.101
 20
-70.51
 21
-71.141
  0
LINE
  8
0
 10
79.101
 11
78.769
 20
-71.141
 21
-71.716
  0
LINE
  8
0
 10
78.769
 11
78.324
 20
-71.716
 21
-72.209
  0
LINE
  8
0
 10
78.324
 11
77.787
 20
-72.209
 21
-72.6
  0
LINE
  8
0
 10
77.787
 11
77.181
 20
-72.6
 21
-72.87
  0
LINE
  8
0
 10
77.181
 11
76.532
 20
-72.87
 21
-73.008
  0
LINE
  8
0
 10
76.532
 11
75.868
 20
-73.008
 21
-73.008
  0
LINE
  8
0
 10
75.868
 11
75.219
 20
-73.008
 21
-72.87
  0
LINE
  8
0
 10
75.219
 11
74.613
 20
-72.87
 21
-72.6
  0
LINE
  8
0
 10
74.613
 11
74.076
 20
-72.6
 21
-72.209
  0
LINE
  8
0
 10
74.076
 11
73.631
 20
-72.209
 21
-71.716
  0
LINE
  8
0
 10
73.631
 11
73.299
 20
-71.716
 21
-71.141
  0
LINE
  8
0
 10
73.299
 11
73.094
 20
-71.141
 21
-70.51
  0
LINE
  8
0
 10
73.094
 11
73.025
 20
-70.51
 21
-69.85
  0
LINE
  8
0
 10
85.725
 11
85.794
 20
0
 21
0.66
  0
LINE
  8
0
 10
85.794
 11
85.999
 20
0.66
 21
1.291
  0
LINE
  8
0
 10
85.999
 11
86.331
 20
1.291
 21
1.866
  0
LINE
  8
0
 10
86.331
 11
86.776
 20
1.866
 21
2.359
  0
LINE
  8
0
 10
86.776
 11
87.313
 20
2.359
 21
2.75
  0
LINE
  8
0
 10
87.313
 11
87.919
 20
2.75
 21
3.02
  0
LINE
  8
0
 10
87.919
 11
88.568
 20
3.02
 21
3.158
  0
LINE
  8
0
 10
88.568
 11
89.232
 20
3.158
 21
3.158
  0
LINE
  8
0
 10
89.232
 11
89.881
 20
3.158
 21
3.02
  0
LINE
  8
0
 10
89.881
 11
90.487
 20
3.02
 21
2.75
  0
LINE
  8
0
 10
90.487
 11
91.024
 20
2.75
 21
2.359
  0
LINE
  8
0
 10
91.024
 11
91.469
 20
2.359
 21
1.866
  0
LINE
  8
0
 10
91.469
 11
91.801
 20
1.866
 21
1.291
  0
LINE
  8
0
 10
91.801
 11
92.006
 20
1.291
 21
0.66
  0
LINE
  8
0
 10
92.006
 11
92.075
 20
0.66
 21
0
  0
LINE
  8
0
 10
92.075
 11
92.006
 20
0
 21
-0.66
  0
LINE
  8
0
 10
92.006
 11
91.801
 20
-0.66
 21
-1.291
  0
LINE
  8
0
 10
91.801
 11
91.469
 20
-1.291
 21
-1.866
  0
LINE
  8
0
 10
91.469
 11
91.024
 20
-1.866
 21
-2.359
  0
LINE
  8
0
 10
91.024
 11
90.487
 20
-2.359
 21
-2.75
  0
LINE
  8
0
 10
90.487
 11
89.881
 20
-2.75
 21
-3.02
  0
LINE
  8
0
 10
89.881
 11
89.232
 20
-3.02
 21
-3.158
  0
LINE
  8
0
 10
89.232
 11
88.568
 20
-3.158
 21
-3.158
  0
LINE
  8
0
 10
88.568
 11
87.919
 20
-3.158
 21
-3.02
  0
LINE
  8
0
 10
87.919
 11
87.313
 20
-3.02
 21
-2.75
  0
LINE
  8
0
 10
87.313
 11
86.776
 20
-2.75
 21
-2.359
  0
LINE
  8
0
 10
86.776
 11
86.331
 20
-2.359
 21
-1.866
  0
LINE
  8
0
 10
86.331
 11
85.999
 20
-1.866
 21
-1.291
  0
LINE
  8
0
 10
85.999
 11
85.794
 20
-1.291
 21
-0.66
  0
LINE
  8
0
 10
85.794
 11
85.725
 20
-0.66
 21
0
  0
LINE
  8
0
 10
95.25
 11
95.389
 20
-50.8
 21
-49.48
  0
LINE
  8
0
 10
95.389
 11
95.799
 20
-49.48
 21
-48.217
  0
LINE
  8
0
 10
95.799
 11
96.463
 20
-48.217
 21
-47.068
  0
LINE
  8
0
 10
96.463
 11
97.351
 20
-47.068
 21
-46.081
  0
LINE
  8
0
 10
97.351
 11
98.425
 20
-46.081
 21
-45.301
  0
LINE
  8
0
 10
98.425
 11
99.638
 20
-45.301
 21
-44.761
  0
LINE
  8
0
 10
99.638
 11
100.936
 20
-44.761
 21
-44.485
  0
LINE
  8
0
 10
100.936
 11
102.264
 20
-44.485
 21
-44.485
  0
LINE
  8
0
 10
102.264
 11
103.562
 20
-44.485
 21
-44.761
  0
LINE
  8
0
 10
103.562
 11
104.775
 20
-44.761
 21
-45.301
  0
LINE
  8
0
 10
104.775
 11
105.849
 20
-45.301
 21
-46.081
  0
LINE
  8
0
 10
105.849
 11
106.737
 20
-46.081
 21
-47.068
  0
LINE
  8
0
 10
106.737
 11
107.401
 20
-47.068
 21
-48.217
  0
LINE
  8
0
 10
107.401
 11
107.811
 20
-48.217
 21
-49.48
  0
LINE
  8
0
 10
107.811
 11
107.95
 20
-49.48
 21
-50.8
  0
LINE
  8
0
 10
107.95
 11
107.811
 20
-50.8
 21
-52.12
  0
LINE
  8
0
 10
107.811
 11
107.401
 20
-52.12
 21
-53.383
  0
LINE
  8
0
 10
107.401
 11
106.737
 20
-53.383
 21
-54.532
  0
LINE
  8
0
 10
106.737
 11
105.849
 20
-54.532
 21
-55.519
  0
LINE
  8
0
 10
105.849
 11
104.775
 20
-55.519
 21
-56.299
  0
LINE
  8
0
 10
104.775
 11
103.562
 20
-56.299
 21
-56.839
  0
LINE
  8
0
 10
103.562
 11
102.264
 20
-56.839
 21
-57.115
  0
LINE
  8
0
 10
102.264
 11
100.936
 20
-57.115
 21
-57.115
  0
LINE
  8
0
 10
100.936
 11
99.638
 20
-57.115
 21
-56.839
  0
LINE
  8
0
 10
99.638
 11
98.425
 20
-56.839
 21
-56.299
  0
LINE
  8
0
 10
98.425
 11
97.351
 20
-56.299
 21
-55.519
  0
LINE
  8
0
 10
97.351
 11
96.463
 20
-55.519
 21
-54.532
  0
LINE
  8
0
 10
96.463
 11
95.799
 20
-54.532
 21
-53.383
  0
LINE
  8
0
 10
95.799
 11
95.389
 20
-53.383
 21
-52.12
  0
LINE
  8
0
 10
95.389
 11
95.25
 20
-52.12
 21
-50.8
  0
LINE
  8
0
 10
101.6
 11
101.878
 20
114.3
 21
116.94
  0
LINE
  8
0
 10
101.878
 11
102.698
 20
116.94
 21
119.466
  0
LINE
  8
0
 10
102.698
 11
104.025
 20
119.466
 21
121.765
  0
LINE
  8
0
 10
104.025
 11
105.802
 20
121.765
 21
123.738
  0
LINE
  8
0
 10
105.802
 11
107.95
 20
123.738
 21
125.299
  0
LINE
  8
0
 10
107.95
 11
110.375
 20
125.299
 21
126.378
  0
LINE
  8
0
 10
110.375
 11
112.972
 20
126.378
 21
126.93
  0
LINE
  8
0
 10
112.972
 11
115.628
 20
126.93
 21
126.93
  0
LINE
  8
0
 10
115.628
 11
118.225
 20
126.93
 21
126.378
  0
LINE
  8
0
 10
118.225
 11
120.65
 20
126.378
 21
125.299
  0
LINE
  8
0
 10
120.65
 11
122.798
 20
125.299
 21
123.738
  0
LINE
  8
0
 10
122.798
 11
124.575
 20
123.738
 21
121.765
  0
LINE
  8
0
 10
124.575
 11
125.902
 20
121.765
 21
119.466
  0
LINE
  8
0
 10
125.902
 11
126.722
 20
119.466
 21
116.94
  0
LINE
  8
0
 10
126.722
 11
127
 20
116.94
 21
114.3
  0
LINE
  8
0
 10
127
 11
126.722
 20
114.3
 21
111.66
  0
LINE
  8
0
 10
126.722
 11
125.902
 20
111.66
 21
109.134
  0
LINE
  8
0
 10
125.902
 11
124.575
 20
109.134
 21
106.835
  0
LINE
  8
0
 10
124.575
 11
122.798
 20
106.835
 21
104.862
  0
LINE
  8
0
 10
122.798
 11
120.65
 20
104.862
 21
103.301
  0
LINE
  8
0
 10
120.65
 11
118.225
 20
103.301
 21
102.222
  0
LINE
  8
0
 10
118.225
 11
115.628
 20
102.222
 21
101.67
  0
LINE
  8
0
 10
115.628
 11
112.972
 20
101.67
 21
101.67
  0
LINE
  8
0
 10
112.972
 11
110.375
 20
101.67
 21
102.222
  0
LINE
  8
0
 10
110.375
 11
107.95
 20
102.222
 21
103.301
  0
LINE
  8
0
 10
107.95
 11
105.802
 20
103.301
 21
104.862
  0
LINE
  8
0
 10
105.802
 11
104.025
 20
104.862
 21
106.835
  0
LINE
  8
0
 10
104.025
 11
102.698
 20
106.835
 21
109.134
  0
LINE
  8
0
 10
102.698
 11
101.878
 20
109.134
 21
111.66
  0
LINE
  8
0
 10
101.878
 11
101.6
 20
111.66
 21
114.3
  0
LINE
  8
0
 10
149.225
 11
149.294
 20
-141.288
 21
-140.628
  0
LINE
  8
0
 10
149.294
 11
149.499
 20
-140.628
 21
-139.997
  0
LINE
  8
0
 10
149.499
 11
149.831
 20
-139.997
 21
-139.421
  0
LINE
  8
0
 10
149.831
 11
150.276
 20
-139.421
 21
-138.928
  0
LINE
  8
0
 10
150.276
 11
150.813
 20
-138.928
 21
-138.538
  0
LINE
  8
0
 10
150.813
 11
151.419
 20
-138.538
 21
-138.267
  0
LINE
  8
0
 10
151.419
 11
152.068
 20
-138.267
 21
-138.13
  0
LINE
  8
0
 10
152.068
 11
152.732
 20
-138.13
 21
-138.13
  0
LINE
  8
0
 10
152.732
 11
153.381
 20
-138.13
 21
-138.267
  0
LINE
  8
0
 10
153.381
 11
153.987
 20
-138.267
 21
-138.538
  0
LINE
  8
0
 10
153.987
 11
154.524
 20
-138.538
 21
-138.928
  0
LINE
  8
0
 10
154.524
 11
154.969
 20
-138.928
 21
-139.421
  0
LINE
  8
0
 10
154.969
 11
155.301
 20
-139.421
 21
-139.997
  0
LINE
  8
0
 10
155.301
 11
155.506
 20
-139.997
 21
-140.628
  0
LINE
  8
0
 10
155.506
 11
155.575
 20
-140.628
 21
-141.288
  0
LINE
  8
0
 10
155.575
 11
155.506
 20
-141.288
 21
-141.948
  0
LINE
  8
0
 10
155.506
 11
155.301
 20
-141.948
 21
-142.579
  0
LINE
  8
0
 10
155.301
 11
154.969
 20
-142.579
 21
-143.153
  0
LINE
  8
0
 10
154.969
 11
154.524
 20
-143.153
 21
-143.647
  0
LINE
  8
0
 10
154.524
 11
153.987
 20
-143.647
 21
-144.038
  0
LINE
  8
0
 10
153.987
 11
153.381
 20
-144.038
 21
-144.308
  0
LINE
  8
0
 10
153.381
 11
152.732
 20
-144.308
 21
-144.445
  0
LINE
  8
0
 10
152.732
 11
152.068
 20
-144.445
 21
-144.445
  0
LINE
  8
0
 10
152.068
 11
151.419
 20
-144.445
 21
-144.308
  0
LINE
  8
0
 10
151.419
 11
150.813
 20
-144.308
 21
-144.038
  0
LINE
  8
0
 10
150.813
 11
150.276
 20
-144.038
 21
-143.647
  0
LINE
  8
0
 10
150.276
 11
149.831
 20
-143.647
 21
-143.153
  0
LINE
  8
0
 10
149.831
 11
149.499
 20
-143.153
 21
-142.579
  0
LINE
  8
0
 10
149.499
 11
149.294
 20
-142.579
 21
-141.948
  0
LINE
  8
0
 10
149.294
 11
149.225
 20
-141.948
 21
-141.288
  0
ENDSEC
  0
SECTION
  2
OBJECTS
  0
DICTIONARY
  0
ENDSEC
  0
EOF
