  0
SECTION
  2
BLOCKS
  0
ENDSEC
  0
SECTION
  2
ENTITIES
  0
LINE
  8
0
 10
-203.2
 11
-203.2
 20
-44.069
 21
44.069
  0
LINE
  8
0
 10
-203.2
 11
203.2
 20
44.069
 21
44.069
  0
LINE
  8
0
 10
203.2
 11
203.2
 20
44.069
 21
-44.069
  0
LINE
  8
0
 10
203.2
 11
-203.2
 20
-44.069
 21
-44.069
  0
LINE
  8
0
 10
-40.5
 11
-40.434
 20
25
 21
25.624
  0
LINE
  8
0
 10
-40.434
 11
-40.241
 20
25.624
 21
26.22
  0
LINE
  8
0
 10
-40.241
 11
-39.927
 20
26.22
 21
26.763
  0
LINE
  8
0
 10
-39.927
 11
-39.507
 20
26.763
 21
27.229
  0
LINE
  8
0
 10
-39.507
 11
-39
 20
27.229
 21
27.598
  0
LINE
  8
0
 10
-39
 11
-38.427
 20
27.598
 21
27.853
  0
LINE
  8
0
 10
-38.427
 11
-37.814
 20
27.853
 21
27.984
  0
LINE
  8
0
 10
-37.814
 11
-37.186
 20
27.984
 21
27.984
  0
LINE
  8
0
 10
-37.186
 11
-36.573
 20
27.984
 21
27.853
  0
LINE
  8
0
 10
-36.573
 11
-36
 20
27.853
 21
27.598
  0
LINE
  8
0
 10
-36
 11
-35.493
 20
27.598
 21
27.229
  0
LINE
  8
0
 10
-35.493
 11
-35.073
 20
27.229
 21
26.763
  0
LINE
  8
0
 10
-35.073
 11
-34.759
 20
26.763
 21
26.22
  0
LINE
  8
0
 10
-34.759
 11
-34.566
 20
26.22
 21
25.624
  0
LINE
  8
0
 10
-34.566
 11
-34.5
 20
25.624
 21
25
  0
LINE
  8
0
 10
-34.5
 11
-34.566
 20
25
 21
24.376
  0
LINE
  8
0
 10
-34.566
 11
-34.759
 20
24.376
 21
23.78
  0
LINE
  8
0
 10
-34.759
 11
-35.073
 20
23.78
 21
23.237
  0
LINE
  8
0
 10
-35.073
 11
-35.493
 20
23.237
 21
22.771
  0
LINE
  8
0
 10
-35.493
 11
-36
 20
22.771
 21
22.402
  0
LINE
  8
0
 10
-36
 11
-36.573
 20
22.402
 21
22.147
  0
LINE
  8
0
 10
-36.573
 11
-37.186
 20
22.147
 21
22.016
  0
LINE
  8
0
 10
-37.186
 11
-37.814
 20
22.016
 21
22.016
  0
LINE
  8
0
 10
-37.814
 11
-38.427
 20
22.016
 21
22.147
  0
LINE
  8
0
 10
-38.427
 11
-39
 20
22.147
 21
22.402
  0
LINE
  8
0
 10
-39
 11
-39.507
 20
22.402
 21
22.771
  0
LINE
  8
0
 10
-39.507
 11
-39.927
 20
22.771
 21
23.237
  0
LINE
  8
0
 10
-39.927
 11
-40.241
 20
23.237
 21
23.78
  0
LINE
  8
0
 10
-40.241
 11
-40.434
 20
23.78
 21
24.376
  0
LINE
  8
0
 10
-40.434
 11
-40.5
 20
24.376
 21
25
  0
LINE
  8
0
 10
-38.6
 11
-38.575
 20
-15.36
 21
-15.125
  0
LINE
  8
0
 10
-38.575
 11
-38.502
 20
-15.125
 21
-14.9
  0
LINE
  8
0
 10
-38.502
 11
-38.384
 20
-14.9
 21
-14.696
  0
LINE
  8
0
 10
-38.384
 11
-38.226
 20
-14.696
 21
-14.52
  0
LINE
  8
0
 10
-38.226
 11
-38.035
 20
-14.52
 21
-14.381
  0
LINE
  8
0
 10
-38.035
 11
-37.819
 20
-14.381
 21
-14.285
  0
LINE
  8
0
 10
-37.819
 11
-37.588
 20
-14.285
 21
-14.236
  0
LINE
  8
0
 10
-37.588
 11
-37.352
 20
-14.236
 21
-14.236
  0
LINE
  8
0
 10
-37.352
 11
-37.121
 20
-14.236
 21
-14.285
  0
LINE
  8
0
 10
-37.121
 11
-36.905
 20
-14.285
 21
-14.381
  0
LINE
  8
0
 10
-36.905
 11
-36.714
 20
-14.381
 21
-14.52
  0
LINE
  8
0
 10
-36.714
 11
-36.556
 20
-14.52
 21
-14.696
  0
LINE
  8
0
 10
-36.556
 11
-36.438
 20
-14.696
 21
-14.9
  0
LINE
  8
0
 10
-36.438
 11
-36.365
 20
-14.9
 21
-15.125
  0
LINE
  8
0
 10
-36.365
 11
-36.34
 20
-15.125
 21
-15.36
  0
LINE
  8
0
 10
-36.34
 11
-36.365
 20
-15.36
 21
-15.595
  0
LINE
  8
0
 10
-36.365
 11
-36.438
 20
-15.595
 21
-15.82
  0
LINE
  8
0
 10
-36.438
 11
-36.556
 20
-15.82
 21
-16.024
  0
LINE
  8
0
 10
-36.556
 11
-36.714
 20
-16.024
 21
-16.2
  0
LINE
  8
0
 10
-36.714
 11
-36.905
 20
-16.2
 21
-16.339
  0
LINE
  8
0
 10
-36.905
 11
-37.121
 20
-16.339
 21
-16.435
  0
LINE
  8
0
 10
-37.121
 11
-37.352
 20
-16.435
 21
-16.484
  0
LINE
  8
0
 10
-37.352
 11
-37.588
 20
-16.484
 21
-16.484
  0
LINE
  8
0
 10
-37.588
 11
-37.819
 20
-16.484
 21
-16.435
  0
LINE
  8
0
 10
-37.819
 11
-38.035
 20
-16.435
 21
-16.339
  0
LINE
  8
0
 10
-38.035
 11
-38.226
 20
-16.339
 21
-16.2
  0
LINE
  8
0
 10
-38.226
 11
-38.384
 20
-16.2
 21
-16.024
  0
LINE
  8
0
 10
-38.384
 11
-38.502
 20
-16.024
 21
-15.82
  0
LINE
  8
0
 10
-38.502
 11
-38.575
 20
-15.82
 21
-15.595
  0
LINE
  8
0
 10
-38.575
 11
-38.6
 20
-15.595
 21
-15.36
  0
LINE
  8
0
 10
-38.6
 11
-38.575
 20
15.36
 21
15.595
  0
LINE
  8
0
 10
-38.575
 11
-38.502
 20
15.595
 21
15.82
  0
LINE
  8
0
 10
-38.502
 11
-38.384
 20
15.82
 21
16.024
  0
LINE
  8
0
 10
-38.384
 11
-38.226
 20
16.024
 21
16.2
  0
LINE
  8
0
 10
-38.226
 11
-38.035
 20
16.2
 21
16.339
  0
LINE
  8
0
 10
-38.035
 11
-37.819
 20
16.339
 21
16.435
  0
LINE
  8
0
 10
-37.819
 11
-37.588
 20
16.435
 21
16.484
  0
LINE
  8
0
 10
-37.588
 11
-37.352
 20
16.484
 21
16.484
  0
LINE
  8
0
 10
-37.352
 11
-37.121
 20
16.484
 21
16.435
  0
LINE
  8
0
 10
-37.121
 11
-36.905
 20
16.435
 21
16.339
  0
LINE
  8
0
 10
-36.905
 11
-36.714
 20
16.339
 21
16.2
  0
LINE
  8
0
 10
-36.714
 11
-36.556
 20
16.2
 21
16.024
  0
LINE
  8
0
 10
-36.556
 11
-36.438
 20
16.024
 21
15.82
  0
LINE
  8
0
 10
-36.438
 11
-36.365
 20
15.82
 21
15.595
  0
LINE
  8
0
 10
-36.365
 11
-36.34
 20
15.595
 21
15.36
  0
LINE
  8
0
 10
-36.34
 11
-36.365
 20
15.36
 21
15.125
  0
LINE
  8
0
 10
-36.365
 11
-36.438
 20
15.125
 21
14.9
  0
LINE
  8
0
 10
-36.438
 11
-36.556
 20
14.9
 21
14.696
  0
LINE
  8
0
 10
-36.556
 11
-36.714
 20
14.696
 21
14.52
  0
LINE
  8
0
 10
-36.714
 11
-36.905
 20
14.52
 21
14.381
  0
LINE
  8
0
 10
-36.905
 11
-37.121
 20
14.381
 21
14.285
  0
LINE
  8
0
 10
-37.121
 11
-37.352
 20
14.285
 21
14.236
  0
LINE
  8
0
 10
-37.352
 11
-37.588
 20
14.236
 21
14.236
  0
LINE
  8
0
 10
-37.588
 11
-37.819
 20
14.236
 21
14.285
  0
LINE
  8
0
 10
-37.819
 11
-38.035
 20
14.285
 21
14.381
  0
LINE
  8
0
 10
-38.035
 11
-38.226
 20
14.381
 21
14.52
  0
LINE
  8
0
 10
-38.226
 11
-38.384
 20
14.52
 21
14.696
  0
LINE
  8
0
 10
-38.384
 11
-38.502
 20
14.696
 21
14.9
  0
LINE
  8
0
 10
-38.502
 11
-38.575
 20
14.9
 21
15.125
  0
LINE
  8
0
 10
-38.575
 11
-38.6
 20
15.125
 21
15.36
  0
LINE
  8
0
 10
-35.74
 11
-35.74
 20
-13.18
 21
13.18
  0
LINE
  8
0
 10
-35.74
 11
35.74
 20
13.18
 21
13.18
  0
LINE
  8
0
 10
35.74
 11
35.74
 20
13.18
 21
-13.18
  0
LINE
  8
0
 10
35.74
 11
-35.74
 20
-13.18
 21
-13.18
  0
LINE
  8
0
 10
-32
 11
-31.934
 20
20
 21
20.624
  0
LINE
  8
0
 10
-31.934
 11
-31.741
 20
20.624
 21
21.22
  0
LINE
  8
0
 10
-31.741
 11
-31.427
 20
21.22
 21
21.763
  0
LINE
  8
0
 10
-31.427
 11
-31.007
 20
21.763
 21
22.229
  0
LINE
  8
0
 10
-31.007
 11
-30.5
 20
22.229
 21
22.598
  0
LINE
  8
0
 10
-30.5
 11
-29.927
 20
22.598
 21
22.853
  0
LINE
  8
0
 10
-29.927
 11
-29.314
 20
22.853
 21
22.984
  0
LINE
  8
0
 10
-29.314
 11
-28.686
 20
22.984
 21
22.984
  0
LINE
  8
0
 10
-28.686
 11
-28.073
 20
22.984
 21
22.853
  0
LINE
  8
0
 10
-28.073
 11
-27.5
 20
22.853
 21
22.598
  0
LINE
  8
0
 10
-27.5
 11
-26.993
 20
22.598
 21
22.229
  0
LINE
  8
0
 10
-26.993
 11
-26.573
 20
22.229
 21
21.763
  0
LINE
  8
0
 10
-26.573
 11
-26.259
 20
21.763
 21
21.22
  0
LINE
  8
0
 10
-26.259
 11
-26.066
 20
21.22
 21
20.624
  0
LINE
  8
0
 10
-26.066
 11
-26
 20
20.624
 21
20
  0
LINE
  8
0
 10
-26
 11
-26.066
 20
20
 21
19.376
  0
LINE
  8
0
 10
-26.066
 11
-26.259
 20
19.376
 21
18.78
  0
LINE
  8
0
 10
-26.259
 11
-26.573
 20
18.78
 21
18.237
  0
LINE
  8
0
 10
-26.573
 11
-26.993
 20
18.237
 21
17.771
  0
LINE
  8
0
 10
-26.993
 11
-27.5
 20
17.771
 21
17.402
  0
LINE
  8
0
 10
-27.5
 11
-28.073
 20
17.402
 21
17.147
  0
LINE
  8
0
 10
-28.073
 11
-28.686
 20
17.147
 21
17.016
  0
LINE
  8
0
 10
-28.686
 11
-29.314
 20
17.016
 21
17.016
  0
LINE
  8
0
 10
-29.314
 11
-29.927
 20
17.016
 21
17.147
  0
LINE
  8
0
 10
-29.927
 11
-30.5
 20
17.147
 21
17.402
  0
LINE
  8
0
 10
-30.5
 11
-31.007
 20
17.402
 21
17.771
  0
LINE
  8
0
 10
-31.007
 11
-31.427
 20
17.771
 21
18.237
  0
LINE
  8
0
 10
-31.427
 11
-31.741
 20
18.237
 21
18.78
  0
LINE
  8
0
 10
-31.741
 11
-31.934
 20
18.78
 21
19.376
  0
LINE
  8
0
 10
-31.934
 11
-32
 20
19.376
 21
20
  0
LINE
  8
0
 10
-32
 11
-31.934
 20
30
 21
30.624
  0
LINE
  8
0
 10
-31.934
 11
-31.741
 20
30.624
 21
31.22
  0
LINE
  8
0
 10
-31.741
 11
-31.427
 20
31.22
 21
31.763
  0
LINE
  8
0
 10
-31.427
 11
-31.007
 20
31.763
 21
32.229
  0
LINE
  8
0
 10
-31.007
 11
-30.5
 20
32.229
 21
32.598
  0
LINE
  8
0
 10
-30.5
 11
-29.927
 20
32.598
 21
32.853
  0
LINE
  8
0
 10
-29.927
 11
-29.314
 20
32.853
 21
32.984
  0
LINE
  8
0
 10
-29.314
 11
-28.686
 20
32.984
 21
32.984
  0
LINE
  8
0
 10
-28.686
 11
-28.073
 20
32.984
 21
32.853
  0
LINE
  8
0
 10
-28.073
 11
-27.5
 20
32.853
 21
32.598
  0
LINE
  8
0
 10
-27.5
 11
-26.993
 20
32.598
 21
32.229
  0
LINE
  8
0
 10
-26.993
 11
-26.573
 20
32.229
 21
31.763
  0
LINE
  8
0
 10
-26.573
 11
-26.259
 20
31.763
 21
31.22
  0
LINE
  8
0
 10
-26.259
 11
-26.066
 20
31.22
 21
30.624
  0
LINE
  8
0
 10
-26.066
 11
-26
 20
30.624
 21
30
  0
LINE
  8
0
 10
-26
 11
-26.066
 20
30
 21
29.376
  0
LINE
  8
0
 10
-26.066
 11
-26.259
 20
29.376
 21
28.78
  0
LINE
  8
0
 10
-26.259
 11
-26.573
 20
28.78
 21
28.237
  0
LINE
  8
0
 10
-26.573
 11
-26.993
 20
28.237
 21
27.771
  0
LINE
  8
0
 10
-26.993
 11
-27.5
 20
27.771
 21
27.402
  0
LINE
  8
0
 10
-27.5
 11
-28.073
 20
27.402
 21
27.147
  0
LINE
  8
0
 10
-28.073
 11
-28.686
 20
27.147
 21
27.016
  0
LINE
  8
0
 10
-28.686
 11
-29.314
 20
27.016
 21
27.016
  0
LINE
  8
0
 10
-29.314
 11
-29.927
 20
27.016
 21
27.147
  0
LINE
  8
0
 10
-29.927
 11
-30.5
 20
27.147
 21
27.402
  0
LINE
  8
0
 10
-30.5
 11
-31.007
 20
27.402
 21
27.771
  0
LINE
  8
0
 10
-31.007
 11
-31.427
 20
27.771
 21
28.237
  0
LINE
  8
0
 10
-31.427
 11
-31.741
 20
28.237
 21
28.78
  0
LINE
  8
0
 10
-31.741
 11
-31.934
 20
28.78
 21
29.376
  0
LINE
  8
0
 10
-31.934
 11
-32
 20
29.376
 21
30
  0
LINE
  8
0
 10
-23
 11
-22.934
 20
25
 21
25.624
  0
LINE
  8
0
 10
-22.934
 11
-22.741
 20
25.624
 21
26.22
  0
LINE
  8
0
 10
-22.741
 11
-22.427
 20
26.22
 21
26.763
  0
LINE
  8
0
 10
-22.427
 11
-22.007
 20
26.763
 21
27.229
  0
LINE
  8
0
 10
-22.007
 11
-21.5
 20
27.229
 21
27.598
  0
LINE
  8
0
 10
-21.5
 11
-20.927
 20
27.598
 21
27.853
  0
LINE
  8
0
 10
-20.927
 11
-20.314
 20
27.853
 21
27.984
  0
LINE
  8
0
 10
-20.314
 11
-19.686
 20
27.984
 21
27.984
  0
LINE
  8
0
 10
-19.686
 11
-19.073
 20
27.984
 21
27.853
  0
LINE
  8
0
 10
-19.073
 11
-18.5
 20
27.853
 21
27.598
  0
LINE
  8
0
 10
-18.5
 11
-17.993
 20
27.598
 21
27.229
  0
LINE
  8
0
 10
-17.993
 11
-17.573
 20
27.229
 21
26.763
  0
LINE
  8
0
 10
-17.573
 11
-17.259
 20
26.763
 21
26.22
  0
LINE
  8
0
 10
-17.259
 11
-17.066
 20
26.22
 21
25.624
  0
LINE
  8
0
 10
-17.066
 11
-17
 20
25.624
 21
25
  0
LINE
  8
0
 10
-17
 11
-17.066
 20
25
 21
24.376
  0
LINE
  8
0
 10
-17.066
 11
-17.259
 20
24.376
 21
23.78
  0
LINE
  8
0
 10
-17.259
 11
-17.573
 20
23.78
 21
23.237
  0
LINE
  8
0
 10
-17.573
 11
-17.993
 20
23.237
 21
22.771
  0
LINE
  8
0
 10
-17.993
 11
-18.5
 20
22.771
 21
22.402
  0
LINE
  8
0
 10
-18.5
 11
-19.073
 20
22.402
 21
22.147
  0
LINE
  8
0
 10
-19.073
 11
-19.686
 20
22.147
 21
22.016
  0
LINE
  8
0
 10
-19.686
 11
-20.314
 20
22.016
 21
22.016
  0
LINE
  8
0
 10
-20.314
 11
-20.927
 20
22.016
 21
22.147
  0
LINE
  8
0
 10
-20.927
 11
-21.5
 20
22.147
 21
22.402
  0
LINE
  8
0
 10
-21.5
 11
-22.007
 20
22.402
 21
22.771
  0
LINE
  8
0
 10
-22.007
 11
-22.427
 20
22.771
 21
23.237
  0
LINE
  8
0
 10
-22.427
 11
-22.741
 20
23.237
 21
23.78
  0
LINE
  8
0
 10
-22.741
 11
-22.934
 20
23.78
 21
24.376
  0
LINE
  8
0
 10
-22.934
 11
-23
 20
24.376
 21
25
  0
LINE
  8
0
 10
-13
 11
-12.934
 20
25
 21
25.624
  0
LINE
  8
0
 10
-12.934
 11
-12.741
 20
25.624
 21
26.22
  0
LINE
  8
0
 10
-12.741
 11
-12.427
 20
26.22
 21
26.763
  0
LINE
  8
0
 10
-12.427
 11
-12.007
 20
26.763
 21
27.229
  0
LINE
  8
0
 10
-12.007
 11
-11.5
 20
27.229
 21
27.598
  0
LINE
  8
0
 10
-11.5
 11
-10.927
 20
27.598
 21
27.853
  0
LINE
  8
0
 10
-10.927
 11
-10.314
 20
27.853
 21
27.984
  0
LINE
  8
0
 10
-10.314
 11
-9.686
 20
27.984
 21
27.984
  0
LINE
  8
0
 10
-9.686
 11
-9.073
 20
27.984
 21
27.853
  0
LINE
  8
0
 10
-9.073
 11
-8.5
 20
27.853
 21
27.598
  0
LINE
  8
0
 10
-8.5
 11
-7.993
 20
27.598
 21
27.229
  0
LINE
  8
0
 10
-7.993
 11
-7.573
 20
27.229
 21
26.763
  0
LINE
  8
0
 10
-7.573
 11
-7.259
 20
26.763
 21
26.22
  0
LINE
  8
0
 10
-7.259
 11
-7.066
 20
26.22
 21
25.624
  0
LINE
  8
0
 10
-7.066
 11
-7
 20
25.624
 21
25
  0
LINE
  8
0
 10
-7
 11
-7.066
 20
25
 21
24.376
  0
LINE
  8
0
 10
-7.066
 11
-7.259
 20
24.376
 21
23.78
  0
LINE
  8
0
 10
-7.259
 11
-7.573
 20
23.78
 21
23.237
  0
LINE
  8
0
 10
-7.573
 11
-7.993
 20
23.237
 21
22.771
  0
LINE
  8
0
 10
-7.993
 11
-8.5
 20
22.771
 21
22.402
  0
LINE
  8
0
 10
-8.5
 11
-9.073
 20
22.402
 21
22.147
  0
LINE
  8
0
 10
-9.073
 11
-9.686
 20
22.147
 21
22.016
  0
LINE
  8
0
 10
-9.686
 11
-10.314
 20
22.016
 21
22.016
  0
LINE
  8
0
 10
-10.314
 11
-10.927
 20
22.016
 21
22.147
  0
LINE
  8
0
 10
-10.927
 11
-11.5
 20
22.147
 21
22.402
  0
LINE
  8
0
 10
-11.5
 11
-12.007
 20
22.402
 21
22.771
  0
LINE
  8
0
 10
-12.007
 11
-12.427
 20
22.771
 21
23.237
  0
LINE
  8
0
 10
-12.427
 11
-12.741
 20
23.237
 21
23.78
  0
LINE
  8
0
 10
-12.741
 11
-12.934
 20
23.78
 21
24.376
  0
LINE
  8
0
 10
-12.934
 11
-13
 20
24.376
 21
25
  0
LINE
  8
0
 10
36.34
 11
36.365
 20
-15.36
 21
-15.125
  0
LINE
  8
0
 10
36.365
 11
36.438
 20
-15.125
 21
-14.9
  0
LINE
  8
0
 10
36.438
 11
36.556
 20
-14.9
 21
-14.696
  0
LINE
  8
0
 10
36.556
 11
36.714
 20
-14.696
 21
-14.52
  0
LINE
  8
0
 10
36.714
 11
36.905
 20
-14.52
 21
-14.381
  0
LINE
  8
0
 10
36.905
 11
37.121
 20
-14.381
 21
-14.285
  0
LINE
  8
0
 10
37.121
 11
37.352
 20
-14.285
 21
-14.236
  0
LINE
  8
0
 10
37.352
 11
37.588
 20
-14.236
 21
-14.236
  0
LINE
  8
0
 10
37.588
 11
37.819
 20
-14.236
 21
-14.285
  0
LINE
  8
0
 10
37.819
 11
38.035
 20
-14.285
 21
-14.381
  0
LINE
  8
0
 10
38.035
 11
38.226
 20
-14.381
 21
-14.52
  0
LINE
  8
0
 10
38.226
 11
38.384
 20
-14.52
 21
-14.696
  0
LINE
  8
0
 10
38.384
 11
38.502
 20
-14.696
 21
-14.9
  0
LINE
  8
0
 10
38.502
 11
38.575
 20
-14.9
 21
-15.125
  0
LINE
  8
0
 10
38.575
 11
38.6
 20
-15.125
 21
-15.36
  0
LINE
  8
0
 10
38.6
 11
38.575
 20
-15.36
 21
-15.595
  0
LINE
  8
0
 10
38.575
 11
38.502
 20
-15.595
 21
-15.82
  0
LINE
  8
0
 10
38.502
 11
38.384
 20
-15.82
 21
-16.024
  0
LINE
  8
0
 10
38.384
 11
38.226
 20
-16.024
 21
-16.2
  0
LINE
  8
0
 10
38.226
 11
38.035
 20
-16.2
 21
-16.339
  0
LINE
  8
0
 10
38.035
 11
37.819
 20
-16.339
 21
-16.435
  0
LINE
  8
0
 10
37.819
 11
37.588
 20
-16.435
 21
-16.484
  0
LINE
  8
0
 10
37.588
 11
37.352
 20
-16.484
 21
-16.484
  0
LINE
  8
0
 10
37.352
 11
37.121
 20
-16.484
 21
-16.435
  0
LINE
  8
0
 10
37.121
 11
36.905
 20
-16.435
 21
-16.339
  0
LINE
  8
0
 10
36.905
 11
36.714
 20
-16.339
 21
-16.2
  0
LINE
  8
0
 10
36.714
 11
36.556
 20
-16.2
 21
-16.024
  0
LINE
  8
0
 10
36.556
 11
36.438
 20
-16.024
 21
-15.82
  0
LINE
  8
0
 10
36.438
 11
36.365
 20
-15.82
 21
-15.595
  0
LINE
  8
0
 10
36.365
 11
36.34
 20
-15.595
 21
-15.36
  0
LINE
  8
0
 10
36.34
 11
36.365
 20
15.36
 21
15.595
  0
LINE
  8
0
 10
36.365
 11
36.438
 20
15.595
 21
15.82
  0
LINE
  8
0
 10
36.438
 11
36.556
 20
15.82
 21
16.024
  0
LINE
  8
0
 10
36.556
 11
36.714
 20
16.024
 21
16.2
  0
LINE
  8
0
 10
36.714
 11
36.905
 20
16.2
 21
16.339
  0
LINE
  8
0
 10
36.905
 11
37.121
 20
16.339
 21
16.435
  0
LINE
  8
0
 10
37.121
 11
37.352
 20
16.435
 21
16.484
  0
LINE
  8
0
 10
37.352
 11
37.588
 20
16.484
 21
16.484
  0
LINE
  8
0
 10
37.588
 11
37.819
 20
16.484
 21
16.435
  0
LINE
  8
0
 10
37.819
 11
38.035
 20
16.435
 21
16.339
  0
LINE
  8
0
 10
38.035
 11
38.226
 20
16.339
 21
16.2
  0
LINE
  8
0
 10
38.226
 11
38.384
 20
16.2
 21
16.024
  0
LINE
  8
0
 10
38.384
 11
38.502
 20
16.024
 21
15.82
  0
LINE
  8
0
 10
38.502
 11
38.575
 20
15.82
 21
15.595
  0
LINE
  8
0
 10
38.575
 11
38.6
 20
15.595
 21
15.36
  0
LINE
  8
0
 10
38.6
 11
38.575
 20
15.36
 21
15.125
  0
LINE
  8
0
 10
38.575
 11
38.502
 20
15.125
 21
14.9
  0
LINE
  8
0
 10
38.502
 11
38.384
 20
14.9
 21
14.696
  0
LINE
  8
0
 10
38.384
 11
38.226
 20
14.696
 21
14.52
  0
LINE
  8
0
 10
38.226
 11
38.035
 20
14.52
 21
14.381
  0
LINE
  8
0
 10
38.035
 11
37.819
 20
14.381
 21
14.285
  0
LINE
  8
0
 10
37.819
 11
37.588
 20
14.285
 21
14.236
  0
LINE
  8
0
 10
37.588
 11
37.352
 20
14.236
 21
14.236
  0
LINE
  8
0
 10
37.352
 11
37.121
 20
14.236
 21
14.285
  0
LINE
  8
0
 10
37.121
 11
36.905
 20
14.285
 21
14.381
  0
LINE
  8
0
 10
36.905
 11
36.714
 20
14.381
 21
14.52
  0
LINE
  8
0
 10
36.714
 11
36.556
 20
14.52
 21
14.696
  0
LINE
  8
0
 10
36.556
 11
36.438
 20
14.696
 21
14.9
  0
LINE
  8
0
 10
36.438
 11
36.365
 20
14.9
 21
15.125
  0
LINE
  8
0
 10
36.365
 11
36.34
 20
15.125
 21
15.36
  0
LINE
  8
0
 10
163.75
 11
163.75
 20
-8.6
 21
8.6
  0
LINE
  8
0
 10
163.75
 11
176.25
 20
8.6
 21
8.6
  0
LINE
  8
0
 10
176.25
 11
176.25
 20
8.6
 21
-8.6
  0
LINE
  8
0
 10
176.25
 11
163.75
 20
-8.6
 21
-8.6
  0
ENDSEC
  0
SECTION
  2
OBJECTS
  0
DICTIONARY
  0
ENDSEC
  0
EOF
