  0
SECTION
  2
BLOCKS
  0
ENDSEC
  0
SECTION
  2
ENTITIES
  0
LINE
  8
0
 10
-203.2
 11
-203.2
 20
-44.069
 21
44.069
  0
LINE
  8
0
 10
-203.2
 11
203.2
 20
44.069
 21
44.069
  0
LINE
  8
0
 10
203.2
 11
203.2
 20
44.069
 21
-44.069
  0
LINE
  8
0
 10
203.2
 11
-203.2
 20
-44.069
 21
-44.069
  0
LINE
  8
0
 10
-38.6
 11
-38.575
 20
-15.36
 21
-15.125
  0
LINE
  8
0
 10
-38.575
 11
-38.502
 20
-15.125
 21
-14.9
  0
LINE
  8
0
 10
-38.502
 11
-38.384
 20
-14.9
 21
-14.696
  0
LINE
  8
0
 10
-38.384
 11
-38.226
 20
-14.696
 21
-14.52
  0
LINE
  8
0
 10
-38.226
 11
-38.035
 20
-14.52
 21
-14.381
  0
LINE
  8
0
 10
-38.035
 11
-37.819
 20
-14.381
 21
-14.285
  0
LINE
  8
0
 10
-37.819
 11
-37.588
 20
-14.285
 21
-14.236
  0
LINE
  8
0
 10
-37.588
 11
-37.352
 20
-14.236
 21
-14.236
  0
LINE
  8
0
 10
-37.352
 11
-37.121
 20
-14.236
 21
-14.285
  0
LINE
  8
0
 10
-37.121
 11
-36.905
 20
-14.285
 21
-14.381
  0
LINE
  8
0
 10
-36.905
 11
-36.714
 20
-14.381
 21
-14.52
  0
LINE
  8
0
 10
-36.714
 11
-36.556
 20
-14.52
 21
-14.696
  0
LINE
  8
0
 10
-36.556
 11
-36.438
 20
-14.696
 21
-14.9
  0
LINE
  8
0
 10
-36.438
 11
-36.365
 20
-14.9
 21
-15.125
  0
LINE
  8
0
 10
-36.365
 11
-36.34
 20
-15.125
 21
-15.36
  0
LINE
  8
0
 10
-36.34
 11
-36.365
 20
-15.36
 21
-15.595
  0
LINE
  8
0
 10
-36.365
 11
-36.438
 20
-15.595
 21
-15.82
  0
LINE
  8
0
 10
-36.438
 11
-36.556
 20
-15.82
 21
-16.024
  0
LINE
  8
0
 10
-36.556
 11
-36.714
 20
-16.024
 21
-16.2
  0
LINE
  8
0
 10
-36.714
 11
-36.905
 20
-16.2
 21
-16.339
  0
LINE
  8
0
 10
-36.905
 11
-37.121
 20
-16.339
 21
-16.435
  0
LINE
  8
0
 10
-37.121
 11
-37.352
 20
-16.435
 21
-16.484
  0
LINE
  8
0
 10
-37.352
 11
-37.588
 20
-16.484
 21
-16.484
  0
LINE
  8
0
 10
-37.588
 11
-37.819
 20
-16.484
 21
-16.435
  0
LINE
  8
0
 10
-37.819
 11
-38.035
 20
-16.435
 21
-16.339
  0
LINE
  8
0
 10
-38.035
 11
-38.226
 20
-16.339
 21
-16.2
  0
LINE
  8
0
 10
-38.226
 11
-38.384
 20
-16.2
 21
-16.024
  0
LINE
  8
0
 10
-38.384
 11
-38.502
 20
-16.024
 21
-15.82
  0
LINE
  8
0
 10
-38.502
 11
-38.575
 20
-15.82
 21
-15.595
  0
LINE
  8
0
 10
-38.575
 11
-38.6
 20
-15.595
 21
-15.36
  0
LINE
  8
0
 10
-38.6
 11
-38.575
 20
15.36
 21
15.595
  0
LINE
  8
0
 10
-38.575
 11
-38.502
 20
15.595
 21
15.82
  0
LINE
  8
0
 10
-38.502
 11
-38.384
 20
15.82
 21
16.024
  0
LINE
  8
0
 10
-38.384
 11
-38.226
 20
16.024
 21
16.2
  0
LINE
  8
0
 10
-38.226
 11
-38.035
 20
16.2
 21
16.339
  0
LINE
  8
0
 10
-38.035
 11
-37.819
 20
16.339
 21
16.435
  0
LINE
  8
0
 10
-37.819
 11
-37.588
 20
16.435
 21
16.484
  0
LINE
  8
0
 10
-37.588
 11
-37.352
 20
16.484
 21
16.484
  0
LINE
  8
0
 10
-37.352
 11
-37.121
 20
16.484
 21
16.435
  0
LINE
  8
0
 10
-37.121
 11
-36.905
 20
16.435
 21
16.339
  0
LINE
  8
0
 10
-36.905
 11
-36.714
 20
16.339
 21
16.2
  0
LINE
  8
0
 10
-36.714
 11
-36.556
 20
16.2
 21
16.024
  0
LINE
  8
0
 10
-36.556
 11
-36.438
 20
16.024
 21
15.82
  0
LINE
  8
0
 10
-36.438
 11
-36.365
 20
15.82
 21
15.595
  0
LINE
  8
0
 10
-36.365
 11
-36.34
 20
15.595
 21
15.36
  0
LINE
  8
0
 10
-36.34
 11
-36.365
 20
15.36
 21
15.125
  0
LINE
  8
0
 10
-36.365
 11
-36.438
 20
15.125
 21
14.9
  0
LINE
  8
0
 10
-36.438
 11
-36.556
 20
14.9
 21
14.696
  0
LINE
  8
0
 10
-36.556
 11
-36.714
 20
14.696
 21
14.52
  0
LINE
  8
0
 10
-36.714
 11
-36.905
 20
14.52
 21
14.381
  0
LINE
  8
0
 10
-36.905
 11
-37.121
 20
14.381
 21
14.285
  0
LINE
  8
0
 10
-37.121
 11
-37.352
 20
14.285
 21
14.236
  0
LINE
  8
0
 10
-37.352
 11
-37.588
 20
14.236
 21
14.236
  0
LINE
  8
0
 10
-37.588
 11
-37.819
 20
14.236
 21
14.285
  0
LINE
  8
0
 10
-37.819
 11
-38.035
 20
14.285
 21
14.381
  0
LINE
  8
0
 10
-38.035
 11
-38.226
 20
14.381
 21
14.52
  0
LINE
  8
0
 10
-38.226
 11
-38.384
 20
14.52
 21
14.696
  0
LINE
  8
0
 10
-38.384
 11
-38.502
 20
14.696
 21
14.9
  0
LINE
  8
0
 10
-38.502
 11
-38.575
 20
14.9
 21
15.125
  0
LINE
  8
0
 10
-38.575
 11
-38.6
 20
15.125
 21
15.36
  0
LINE
  8
0
 10
-35.74
 11
-35.74
 20
-13.18
 21
13.18
  0
LINE
  8
0
 10
-35.74
 11
35.74
 20
13.18
 21
13.18
  0
LINE
  8
0
 10
35.74
 11
35.74
 20
13.18
 21
-13.18
  0
LINE
  8
0
 10
35.74
 11
-35.74
 20
-13.18
 21
-13.18
  0
LINE
  8
0
 10
36.34
 11
36.365
 20
-15.36
 21
-15.125
  0
LINE
  8
0
 10
36.365
 11
36.438
 20
-15.125
 21
-14.9
  0
LINE
  8
0
 10
36.438
 11
36.556
 20
-14.9
 21
-14.696
  0
LINE
  8
0
 10
36.556
 11
36.714
 20
-14.696
 21
-14.52
  0
LINE
  8
0
 10
36.714
 11
36.905
 20
-14.52
 21
-14.381
  0
LINE
  8
0
 10
36.905
 11
37.121
 20
-14.381
 21
-14.285
  0
LINE
  8
0
 10
37.121
 11
37.352
 20
-14.285
 21
-14.236
  0
LINE
  8
0
 10
37.352
 11
37.588
 20
-14.236
 21
-14.236
  0
LINE
  8
0
 10
37.588
 11
37.819
 20
-14.236
 21
-14.285
  0
LINE
  8
0
 10
37.819
 11
38.035
 20
-14.285
 21
-14.381
  0
LINE
  8
0
 10
38.035
 11
38.226
 20
-14.381
 21
-14.52
  0
LINE
  8
0
 10
38.226
 11
38.384
 20
-14.52
 21
-14.696
  0
LINE
  8
0
 10
38.384
 11
38.502
 20
-14.696
 21
-14.9
  0
LINE
  8
0
 10
38.502
 11
38.575
 20
-14.9
 21
-15.125
  0
LINE
  8
0
 10
38.575
 11
38.6
 20
-15.125
 21
-15.36
  0
LINE
  8
0
 10
38.6
 11
38.575
 20
-15.36
 21
-15.595
  0
LINE
  8
0
 10
38.575
 11
38.502
 20
-15.595
 21
-15.82
  0
LINE
  8
0
 10
38.502
 11
38.384
 20
-15.82
 21
-16.024
  0
LINE
  8
0
 10
38.384
 11
38.226
 20
-16.024
 21
-16.2
  0
LINE
  8
0
 10
38.226
 11
38.035
 20
-16.2
 21
-16.339
  0
LINE
  8
0
 10
38.035
 11
37.819
 20
-16.339
 21
-16.435
  0
LINE
  8
0
 10
37.819
 11
37.588
 20
-16.435
 21
-16.484
  0
LINE
  8
0
 10
37.588
 11
37.352
 20
-16.484
 21
-16.484
  0
LINE
  8
0
 10
37.352
 11
37.121
 20
-16.484
 21
-16.435
  0
LINE
  8
0
 10
37.121
 11
36.905
 20
-16.435
 21
-16.339
  0
LINE
  8
0
 10
36.905
 11
36.714
 20
-16.339
 21
-16.2
  0
LINE
  8
0
 10
36.714
 11
36.556
 20
-16.2
 21
-16.024
  0
LINE
  8
0
 10
36.556
 11
36.438
 20
-16.024
 21
-15.82
  0
LINE
  8
0
 10
36.438
 11
36.365
 20
-15.82
 21
-15.595
  0
LINE
  8
0
 10
36.365
 11
36.34
 20
-15.595
 21
-15.36
  0
LINE
  8
0
 10
36.34
 11
36.365
 20
15.36
 21
15.595
  0
LINE
  8
0
 10
36.365
 11
36.438
 20
15.595
 21
15.82
  0
LINE
  8
0
 10
36.438
 11
36.556
 20
15.82
 21
16.024
  0
LINE
  8
0
 10
36.556
 11
36.714
 20
16.024
 21
16.2
  0
LINE
  8
0
 10
36.714
 11
36.905
 20
16.2
 21
16.339
  0
LINE
  8
0
 10
36.905
 11
37.121
 20
16.339
 21
16.435
  0
LINE
  8
0
 10
37.121
 11
37.352
 20
16.435
 21
16.484
  0
LINE
  8
0
 10
37.352
 11
37.588
 20
16.484
 21
16.484
  0
LINE
  8
0
 10
37.588
 11
37.819
 20
16.484
 21
16.435
  0
LINE
  8
0
 10
37.819
 11
38.035
 20
16.435
 21
16.339
  0
LINE
  8
0
 10
38.035
 11
38.226
 20
16.339
 21
16.2
  0
LINE
  8
0
 10
38.226
 11
38.384
 20
16.2
 21
16.024
  0
LINE
  8
0
 10
38.384
 11
38.502
 20
16.024
 21
15.82
  0
LINE
  8
0
 10
38.502
 11
38.575
 20
15.82
 21
15.595
  0
LINE
  8
0
 10
38.575
 11
38.6
 20
15.595
 21
15.36
  0
LINE
  8
0
 10
38.6
 11
38.575
 20
15.36
 21
15.125
  0
LINE
  8
0
 10
38.575
 11
38.502
 20
15.125
 21
14.9
  0
LINE
  8
0
 10
38.502
 11
38.384
 20
14.9
 21
14.696
  0
LINE
  8
0
 10
38.384
 11
38.226
 20
14.696
 21
14.52
  0
LINE
  8
0
 10
38.226
 11
38.035
 20
14.52
 21
14.381
  0
LINE
  8
0
 10
38.035
 11
37.819
 20
14.381
 21
14.285
  0
LINE
  8
0
 10
37.819
 11
37.588
 20
14.285
 21
14.236
  0
LINE
  8
0
 10
37.588
 11
37.352
 20
14.236
 21
14.236
  0
LINE
  8
0
 10
37.352
 11
37.121
 20
14.236
 21
14.285
  0
LINE
  8
0
 10
37.121
 11
36.905
 20
14.285
 21
14.381
  0
LINE
  8
0
 10
36.905
 11
36.714
 20
14.381
 21
14.52
  0
LINE
  8
0
 10
36.714
 11
36.556
 20
14.52
 21
14.696
  0
LINE
  8
0
 10
36.556
 11
36.438
 20
14.696
 21
14.9
  0
LINE
  8
0
 10
36.438
 11
36.365
 20
14.9
 21
15.125
  0
LINE
  8
0
 10
36.365
 11
36.34
 20
15.125
 21
15.36
  0
LINE
  8
0
 10
163.75
 11
163.75
 20
-8.6
 21
8.6
  0
LINE
  8
0
 10
163.75
 11
176.25
 20
8.6
 21
8.6
  0
LINE
  8
0
 10
176.25
 11
176.25
 20
8.6
 21
-8.6
  0
LINE
  8
0
 10
176.25
 11
163.75
 20
-8.6
 21
-8.6
  0
ENDSEC
  0
SECTION
  2
OBJECTS
  0
DICTIONARY
  0
ENDSEC
  0
EOF
