  0
SECTION
  2
BLOCKS
  0
ENDSEC
  0
SECTION
  2
ENTITIES
  0
LINE
  8
0
 10
-203.2
 11
-203.2
 20
-203.2
 21
203.2
  0
LINE
  8
0
 10
-203.2
 11
203.2
 20
203.2
 21
203.2
  0
LINE
  8
0
 10
203.2
 11
203.2
 20
203.2
 21
-203.2
  0
LINE
  8
0
 10
203.2
 11
-203.2
 20
-203.2
 21
-203.2
  0
LINE
  8
0
 10
-143.3
 11
-142.666
 20
-114.3
 21
-108.271
  0
LINE
  8
0
 10
-142.666
 11
-140.793
 20
-108.271
 21
-102.505
  0
LINE
  8
0
 10
-140.793
 11
-137.761
 20
-102.505
 21
-97.254
  0
LINE
  8
0
 10
-137.761
 11
-133.705
 20
-97.254
 21
-92.749
  0
LINE
  8
0
 10
-133.705
 11
-128.8
 20
-92.749
 21
-89.185
  0
LINE
  8
0
 10
-128.8
 11
-123.261
 20
-89.185
 21
-86.719
  0
LINE
  8
0
 10
-123.261
 11
-117.331
 20
-86.719
 21
-85.459
  0
LINE
  8
0
 10
-117.331
 11
-111.269
 20
-85.459
 21
-85.459
  0
LINE
  8
0
 10
-111.269
 11
-105.339
 20
-85.459
 21
-86.719
  0
LINE
  8
0
 10
-105.339
 11
-99.8
 20
-86.719
 21
-89.185
  0
LINE
  8
0
 10
-99.8
 11
-94.895
 20
-89.185
 21
-92.749
  0
LINE
  8
0
 10
-94.895
 11
-90.839
 20
-92.749
 21
-97.254
  0
LINE
  8
0
 10
-90.839
 11
-87.807
 20
-97.254
 21
-102.505
  0
LINE
  8
0
 10
-87.807
 11
-85.934
 20
-102.505
 21
-108.271
  0
LINE
  8
0
 10
-85.934
 11
-85.3
 20
-108.271
 21
-114.3
  0
LINE
  8
0
 10
-85.3
 11
-85.934
 20
-114.3
 21
-120.329
  0
LINE
  8
0
 10
-85.934
 11
-87.807
 20
-120.329
 21
-126.095
  0
LINE
  8
0
 10
-87.807
 11
-90.839
 20
-126.095
 21
-131.346
  0
LINE
  8
0
 10
-90.839
 11
-94.895
 20
-131.346
 21
-135.851
  0
LINE
  8
0
 10
-94.895
 11
-99.8
 20
-135.851
 21
-139.415
  0
LINE
  8
0
 10
-99.8
 11
-105.339
 20
-139.415
 21
-141.881
  0
LINE
  8
0
 10
-105.339
 11
-111.269
 20
-141.881
 21
-143.141
  0
LINE
  8
0
 10
-111.269
 11
-117.331
 20
-143.141
 21
-143.141
  0
LINE
  8
0
 10
-117.331
 11
-123.261
 20
-143.141
 21
-141.881
  0
LINE
  8
0
 10
-123.261
 11
-128.8
 20
-141.881
 21
-139.415
  0
LINE
  8
0
 10
-128.8
 11
-133.705
 20
-139.415
 21
-135.851
  0
LINE
  8
0
 10
-133.705
 11
-137.761
 20
-135.851
 21
-131.346
  0
LINE
  8
0
 10
-137.761
 11
-140.793
 20
-131.346
 21
-126.095
  0
LINE
  8
0
 10
-140.793
 11
-142.666
 20
-126.095
 21
-120.329
  0
LINE
  8
0
 10
-142.666
 11
-143.3
 20
-120.329
 21
-114.3
  0
LINE
  8
0
 10
-141.177
 11
-116.429
 20
116.429
 21
141.177
  0
LINE
  8
0
 10
-116.429
 11
-112.823
 20
141.177
 21
137.571
  0
LINE
  8
0
 10
-112.823
 11
-137.571
 20
137.571
 21
112.823
  0
LINE
  8
0
 10
-137.571
 11
-141.177
 20
112.823
 21
116.429
  0
LINE
  8
0
 10
-139.175
 11
-139.106
 20
152.4
 21
153.06
  0
LINE
  8
0
 10
-139.106
 11
-138.901
 20
153.06
 21
153.691
  0
LINE
  8
0
 10
-138.901
 11
-138.569
 20
153.691
 21
154.266
  0
LINE
  8
0
 10
-138.569
 11
-138.124
 20
154.266
 21
154.759
  0
LINE
  8
0
 10
-138.124
 11
-137.587
 20
154.759
 21
155.15
  0
LINE
  8
0
 10
-137.587
 11
-136.981
 20
155.15
 21
155.42
  0
LINE
  8
0
 10
-136.981
 11
-136.332
 20
155.42
 21
155.558
  0
LINE
  8
0
 10
-136.332
 11
-135.668
 20
155.558
 21
155.558
  0
LINE
  8
0
 10
-135.668
 11
-135.019
 20
155.558
 21
155.42
  0
LINE
  8
0
 10
-135.019
 11
-134.413
 20
155.42
 21
155.15
  0
LINE
  8
0
 10
-134.413
 11
-133.876
 20
155.15
 21
154.759
  0
LINE
  8
0
 10
-133.876
 11
-133.431
 20
154.759
 21
154.266
  0
LINE
  8
0
 10
-133.431
 11
-133.099
 20
154.266
 21
153.691
  0
LINE
  8
0
 10
-133.099
 11
-132.894
 20
153.691
 21
153.06
  0
LINE
  8
0
 10
-132.894
 11
-132.825
 20
153.06
 21
152.4
  0
LINE
  8
0
 10
-132.825
 11
-132.894
 20
152.4
 21
151.74
  0
LINE
  8
0
 10
-132.894
 11
-133.099
 20
151.74
 21
151.109
  0
LINE
  8
0
 10
-133.099
 11
-133.431
 20
151.109
 21
150.534
  0
LINE
  8
0
 10
-133.431
 11
-133.876
 20
150.534
 21
150.041
  0
LINE
  8
0
 10
-133.876
 11
-134.413
 20
150.041
 21
149.65
  0
LINE
  8
0
 10
-134.413
 11
-135.019
 20
149.65
 21
149.38
  0
LINE
  8
0
 10
-135.019
 11
-135.668
 20
149.38
 21
149.242
  0
LINE
  8
0
 10
-135.668
 11
-136.332
 20
149.242
 21
149.242
  0
LINE
  8
0
 10
-136.332
 11
-136.981
 20
149.242
 21
149.38
  0
LINE
  8
0
 10
-136.981
 11
-137.587
 20
149.38
 21
149.65
  0
LINE
  8
0
 10
-137.587
 11
-138.124
 20
149.65
 21
150.041
  0
LINE
  8
0
 10
-138.124
 11
-138.569
 20
150.041
 21
150.534
  0
LINE
  8
0
 10
-138.569
 11
-138.901
 20
150.534
 21
151.109
  0
LINE
  8
0
 10
-138.901
 11
-139.106
 20
151.109
 21
151.74
  0
LINE
  8
0
 10
-139.106
 11
-139.175
 20
151.74
 21
152.4
  0
LINE
  8
0
 10
-85.95
 11
-85.95
 20
127
 21
177.8
  0
LINE
  8
0
 10
-85.95
 11
-75.45
 20
177.8
 21
177.8
  0
LINE
  8
0
 10
-75.45
 11
-75.45
 20
177.8
 21
127
  0
LINE
  8
0
 10
-75.45
 11
-85.95
 20
127
 21
127
  0
LINE
  8
0
 10
-78.316
 11
-64.174
 20
72.874
 21
87.016
  0
LINE
  8
0
 10
-64.174
 11
-59.684
 20
87.016
 21
82.526
  0
LINE
  8
0
 10
-59.684
 11
-73.826
 20
82.526
 21
68.384
  0
LINE
  8
0
 10
-73.826
 11
-78.316
 20
68.384
 21
72.874
  0
LINE
  8
0
 10
-57.15
 11
-57.011
 20
108
 21
109.32
  0
LINE
  8
0
 10
-57.011
 11
-56.601
 20
109.32
 21
110.583
  0
LINE
  8
0
 10
-56.601
 11
-55.937
 20
110.583
 21
111.732
  0
LINE
  8
0
 10
-55.937
 11
-55.049
 20
111.732
 21
112.719
  0
LINE
  8
0
 10
-55.049
 11
-53.975
 20
112.719
 21
113.499
  0
LINE
  8
0
 10
-53.975
 11
-52.762
 20
113.499
 21
114.039
  0
LINE
  8
0
 10
-52.762
 11
-51.464
 20
114.039
 21
114.315
  0
LINE
  8
0
 10
-51.464
 11
-50.136
 20
114.315
 21
114.315
  0
LINE
  8
0
 10
-50.136
 11
-48.838
 20
114.315
 21
114.039
  0
LINE
  8
0
 10
-48.838
 11
-47.625
 20
114.039
 21
113.499
  0
LINE
  8
0
 10
-47.625
 11
-46.551
 20
113.499
 21
112.719
  0
LINE
  8
0
 10
-46.551
 11
-45.663
 20
112.719
 21
111.732
  0
LINE
  8
0
 10
-45.663
 11
-44.999
 20
111.732
 21
110.583
  0
LINE
  8
0
 10
-44.999
 11
-44.589
 20
110.583
 21
109.32
  0
LINE
  8
0
 10
-44.589
 11
-44.45
 20
109.32
 21
108
  0
LINE
  8
0
 10
-44.45
 11
-44.589
 20
108
 21
106.68
  0
LINE
  8
0
 10
-44.589
 11
-44.999
 20
106.68
 21
105.417
  0
LINE
  8
0
 10
-44.999
 11
-45.663
 20
105.417
 21
104.268
  0
LINE
  8
0
 10
-45.663
 11
-46.551
 20
104.268
 21
103.281
  0
LINE
  8
0
 10
-46.551
 11
-47.625
 20
103.281
 21
102.501
  0
LINE
  8
0
 10
-47.625
 11
-48.838
 20
102.501
 21
101.961
  0
LINE
  8
0
 10
-48.838
 11
-50.136
 20
101.961
 21
101.685
  0
LINE
  8
0
 10
-50.136
 11
-51.464
 20
101.685
 21
101.685
  0
LINE
  8
0
 10
-51.464
 11
-52.762
 20
101.685
 21
101.961
  0
LINE
  8
0
 10
-52.762
 11
-53.975
 20
101.961
 21
102.501
  0
LINE
  8
0
 10
-53.975
 11
-55.049
 20
102.501
 21
103.281
  0
LINE
  8
0
 10
-55.049
 11
-55.937
 20
103.281
 21
104.268
  0
LINE
  8
0
 10
-55.937
 11
-56.601
 20
104.268
 21
105.417
  0
LINE
  8
0
 10
-56.601
 11
-57.011
 20
105.417
 21
106.68
  0
LINE
  8
0
 10
-57.011
 11
-57.15
 20
106.68
 21
108
  0
LINE
  8
0
 10
-43.254
 11
-14.97
 20
-35.83
 21
-7.546
  0
LINE
  8
0
 10
-14.97
 11
-7.546
 20
-7.546
 21
-14.97
  0
LINE
  8
0
 10
-7.546
 11
-35.83
 20
-14.97
 21
-43.254
  0
LINE
  8
0
 10
-35.83
 11
-43.254
 20
-43.254
 21
-35.83
  0
LINE
  8
0
 10
-36.35
 11
-36.211
 20
65
 21
66.32
  0
LINE
  8
0
 10
-36.211
 11
-35.801
 20
66.32
 21
67.583
  0
LINE
  8
0
 10
-35.801
 11
-35.137
 20
67.583
 21
68.732
  0
LINE
  8
0
 10
-35.137
 11
-34.249
 20
68.732
 21
69.719
  0
LINE
  8
0
 10
-34.249
 11
-33.175
 20
69.719
 21
70.499
  0
LINE
  8
0
 10
-33.175
 11
-31.962
 20
70.499
 21
71.039
  0
LINE
  8
0
 10
-31.962
 11
-30.664
 20
71.039
 21
71.315
  0
LINE
  8
0
 10
-30.664
 11
-29.336
 20
71.315
 21
71.315
  0
LINE
  8
0
 10
-29.336
 11
-28.038
 20
71.315
 21
71.039
  0
LINE
  8
0
 10
-28.038
 11
-26.825
 20
71.039
 21
70.499
  0
LINE
  8
0
 10
-26.825
 11
-25.751
 20
70.499
 21
69.719
  0
LINE
  8
0
 10
-25.751
 11
-24.863
 20
69.719
 21
68.732
  0
LINE
  8
0
 10
-24.863
 11
-24.199
 20
68.732
 21
67.583
  0
LINE
  8
0
 10
-24.199
 11
-23.789
 20
67.583
 21
66.32
  0
LINE
  8
0
 10
-23.789
 11
-23.65
 20
66.32
 21
65
  0
LINE
  8
0
 10
-23.65
 11
-23.789
 20
65
 21
63.68
  0
LINE
  8
0
 10
-23.789
 11
-24.199
 20
63.68
 21
62.417
  0
LINE
  8
0
 10
-24.199
 11
-24.863
 20
62.417
 21
61.268
  0
LINE
  8
0
 10
-24.863
 11
-25.751
 20
61.268
 21
60.281
  0
LINE
  8
0
 10
-25.751
 11
-26.825
 20
60.281
 21
59.501
  0
LINE
  8
0
 10
-26.825
 11
-28.038
 20
59.501
 21
58.961
  0
LINE
  8
0
 10
-28.038
 11
-29.336
 20
58.961
 21
58.685
  0
LINE
  8
0
 10
-29.336
 11
-30.664
 20
58.685
 21
58.685
  0
LINE
  8
0
 10
-30.664
 11
-31.962
 20
58.685
 21
58.961
  0
LINE
  8
0
 10
-31.962
 11
-33.175
 20
58.961
 21
59.501
  0
LINE
  8
0
 10
-33.175
 11
-34.249
 20
59.501
 21
60.281
  0
LINE
  8
0
 10
-34.249
 11
-35.137
 20
60.281
 21
61.268
  0
LINE
  8
0
 10
-35.137
 11
-35.801
 20
61.268
 21
62.417
  0
LINE
  8
0
 10
-35.801
 11
-36.211
 20
62.417
 21
63.68
  0
LINE
  8
0
 10
-36.211
 11
-36.35
 20
63.68
 21
65
  0
LINE
  8
0
 10
-28.575
 11
-28.506
 20
152.4
 21
153.06
  0
LINE
  8
0
 10
-28.506
 11
-28.301
 20
153.06
 21
153.691
  0
LINE
  8
0
 10
-28.301
 11
-27.969
 20
153.691
 21
154.266
  0
LINE
  8
0
 10
-27.969
 11
-27.524
 20
154.266
 21
154.759
  0
LINE
  8
0
 10
-27.524
 11
-26.987
 20
154.759
 21
155.15
  0
LINE
  8
0
 10
-26.987
 11
-26.381
 20
155.15
 21
155.42
  0
LINE
  8
0
 10
-26.381
 11
-25.732
 20
155.42
 21
155.558
  0
LINE
  8
0
 10
-25.732
 11
-25.068
 20
155.558
 21
155.558
  0
LINE
  8
0
 10
-25.068
 11
-24.419
 20
155.558
 21
155.42
  0
LINE
  8
0
 10
-24.419
 11
-23.813
 20
155.42
 21
155.15
  0
LINE
  8
0
 10
-23.813
 11
-23.276
 20
155.15
 21
154.759
  0
LINE
  8
0
 10
-23.276
 11
-22.831
 20
154.759
 21
154.266
  0
LINE
  8
0
 10
-22.831
 11
-22.499
 20
154.266
 21
153.691
  0
LINE
  8
0
 10
-22.499
 11
-22.294
 20
153.691
 21
153.06
  0
LINE
  8
0
 10
-22.294
 11
-22.225
 20
153.06
 21
152.4
  0
LINE
  8
0
 10
-22.225
 11
-22.294
 20
152.4
 21
151.74
  0
LINE
  8
0
 10
-22.294
 11
-22.499
 20
151.74
 21
151.109
  0
LINE
  8
0
 10
-22.499
 11
-22.831
 20
151.109
 21
150.534
  0
LINE
  8
0
 10
-22.831
 11
-23.276
 20
150.534
 21
150.041
  0
LINE
  8
0
 10
-23.276
 11
-23.813
 20
150.041
 21
149.65
  0
LINE
  8
0
 10
-23.813
 11
-24.419
 20
149.65
 21
149.38
  0
LINE
  8
0
 10
-24.419
 11
-25.068
 20
149.38
 21
149.242
  0
LINE
  8
0
 10
-25.068
 11
-25.732
 20
149.242
 21
149.242
  0
LINE
  8
0
 10
-25.732
 11
-26.381
 20
149.242
 21
149.38
  0
LINE
  8
0
 10
-26.381
 11
-26.987
 20
149.38
 21
149.65
  0
LINE
  8
0
 10
-26.987
 11
-27.524
 20
149.65
 21
150.041
  0
LINE
  8
0
 10
-27.524
 11
-27.969
 20
150.041
 21
150.534
  0
LINE
  8
0
 10
-27.969
 11
-28.301
 20
150.534
 21
151.109
  0
LINE
  8
0
 10
-28.301
 11
-28.506
 20
151.109
 21
151.74
  0
LINE
  8
0
 10
-28.506
 11
-28.575
 20
151.74
 21
152.4
  0
LINE
  8
0
 10
-27.516
 11
-13.374
 20
22.074
 21
36.216
  0
LINE
  8
0
 10
-13.374
 11
-8.884
 20
36.216
 21
31.726
  0
LINE
  8
0
 10
-8.884
 11
-23.026
 20
31.726
 21
17.584
  0
LINE
  8
0
 10
-23.026
 11
-27.516
 20
17.584
 21
22.074
  0
LINE
  8
0
 10
-10.175
 11
-10.106
 20
92
 21
92.66
  0
LINE
  8
0
 10
-10.106
 11
-9.901
 20
92.66
 21
93.291
  0
LINE
  8
0
 10
-9.901
 11
-9.569
 20
93.291
 21
93.866
  0
LINE
  8
0
 10
-9.569
 11
-9.124
 20
93.866
 21
94.359
  0
LINE
  8
0
 10
-9.124
 11
-8.587
 20
94.359
 21
94.75
  0
LINE
  8
0
 10
-8.587
 11
-7.981
 20
94.75
 21
95.02
  0
LINE
  8
0
 10
-7.981
 11
-7.332
 20
95.02
 21
95.158
  0
LINE
  8
0
 10
-7.332
 11
-6.668
 20
95.158
 21
95.158
  0
LINE
  8
0
 10
-6.668
 11
-6.019
 20
95.158
 21
95.02
  0
LINE
  8
0
 10
-6.019
 11
-5.413
 20
95.02
 21
94.75
  0
LINE
  8
0
 10
-5.413
 11
-4.876
 20
94.75
 21
94.359
  0
LINE
  8
0
 10
-4.876
 11
-4.431
 20
94.359
 21
93.866
  0
LINE
  8
0
 10
-4.431
 11
-4.099
 20
93.866
 21
93.291
  0
LINE
  8
0
 10
-4.099
 11
-3.894
 20
93.291
 21
92.66
  0
LINE
  8
0
 10
-3.894
 11
-3.825
 20
92.66
 21
92
  0
LINE
  8
0
 10
-3.825
 11
-3.894
 20
92
 21
91.34
  0
LINE
  8
0
 10
-3.894
 11
-4.099
 20
91.34
 21
90.709
  0
LINE
  8
0
 10
-4.099
 11
-4.431
 20
90.709
 21
90.134
  0
LINE
  8
0
 10
-4.431
 11
-4.876
 20
90.134
 21
89.641
  0
LINE
  8
0
 10
-4.876
 11
-5.413
 20
89.641
 21
89.25
  0
LINE
  8
0
 10
-5.413
 11
-6.019
 20
89.25
 21
88.98
  0
LINE
  8
0
 10
-6.019
 11
-6.668
 20
88.98
 21
88.842
  0
LINE
  8
0
 10
-6.668
 11
-7.332
 20
88.842
 21
88.842
  0
LINE
  8
0
 10
-7.332
 11
-7.981
 20
88.842
 21
88.98
  0
LINE
  8
0
 10
-7.981
 11
-8.587
 20
88.98
 21
89.25
  0
LINE
  8
0
 10
-8.587
 11
-9.124
 20
89.25
 21
89.641
  0
LINE
  8
0
 10
-9.124
 11
-9.569
 20
89.641
 21
90.134
  0
LINE
  8
0
 10
-9.569
 11
-9.901
 20
90.134
 21
90.709
  0
LINE
  8
0
 10
-9.901
 11
-10.106
 20
90.709
 21
91.34
  0
LINE
  8
0
 10
-10.106
 11
-10.175
 20
91.34
 21
92
  0
LINE
  8
0
 10
3.825
 11
3.894
 20
-92
 21
-91.34
  0
LINE
  8
0
 10
3.894
 11
4.099
 20
-91.34
 21
-90.709
  0
LINE
  8
0
 10
4.099
 11
4.431
 20
-90.709
 21
-90.134
  0
LINE
  8
0
 10
4.431
 11
4.876
 20
-90.134
 21
-89.641
  0
LINE
  8
0
 10
4.876
 11
5.413
 20
-89.641
 21
-89.25
  0
LINE
  8
0
 10
5.413
 11
6.019
 20
-89.25
 21
-88.98
  0
LINE
  8
0
 10
6.019
 11
6.668
 20
-88.98
 21
-88.842
  0
LINE
  8
0
 10
6.668
 11
7.332
 20
-88.842
 21
-88.842
  0
LINE
  8
0
 10
7.332
 11
7.981
 20
-88.842
 21
-88.98
  0
LINE
  8
0
 10
7.981
 11
8.587
 20
-88.98
 21
-89.25
  0
LINE
  8
0
 10
8.587
 11
9.124
 20
-89.25
 21
-89.641
  0
LINE
  8
0
 10
9.124
 11
9.569
 20
-89.641
 21
-90.134
  0
LINE
  8
0
 10
9.569
 11
9.901
 20
-90.134
 21
-90.709
  0
LINE
  8
0
 10
9.901
 11
10.106
 20
-90.709
 21
-91.34
  0
LINE
  8
0
 10
10.106
 11
10.175
 20
-91.34
 21
-92
  0
LINE
  8
0
 10
10.175
 11
10.106
 20
-92
 21
-92.66
  0
LINE
  8
0
 10
10.106
 11
9.901
 20
-92.66
 21
-93.291
  0
LINE
  8
0
 10
9.901
 11
9.569
 20
-93.291
 21
-93.866
  0
LINE
  8
0
 10
9.569
 11
9.124
 20
-93.866
 21
-94.359
  0
LINE
  8
0
 10
9.124
 11
8.587
 20
-94.359
 21
-94.75
  0
LINE
  8
0
 10
8.587
 11
7.981
 20
-94.75
 21
-95.02
  0
LINE
  8
0
 10
7.981
 11
7.332
 20
-95.02
 21
-95.158
  0
LINE
  8
0
 10
7.332
 11
6.668
 20
-95.158
 21
-95.158
  0
LINE
  8
0
 10
6.668
 11
6.019
 20
-95.158
 21
-95.02
  0
LINE
  8
0
 10
6.019
 11
5.413
 20
-95.02
 21
-94.75
  0
LINE
  8
0
 10
5.413
 11
4.876
 20
-94.75
 21
-94.359
  0
LINE
  8
0
 10
4.876
 11
4.431
 20
-94.359
 21
-93.866
  0
LINE
  8
0
 10
4.431
 11
4.099
 20
-93.866
 21
-93.291
  0
LINE
  8
0
 10
4.099
 11
3.894
 20
-93.291
 21
-92.66
  0
LINE
  8
0
 10
3.894
 11
3.825
 20
-92.66
 21
-92
  0
LINE
  8
0
 10
7.546
 11
35.83
 20
14.97
 21
43.254
  0
LINE
  8
0
 10
35.83
 11
43.254
 20
43.254
 21
35.83
  0
LINE
  8
0
 10
43.254
 11
14.97
 20
35.83
 21
7.546
  0
LINE
  8
0
 10
14.97
 11
7.546
 20
7.546
 21
14.97
  0
LINE
  8
0
 10
8.884
 11
23.026
 20
-31.726
 21
-17.584
  0
LINE
  8
0
 10
23.026
 11
27.516
 20
-17.584
 21
-22.074
  0
LINE
  8
0
 10
27.516
 11
13.374
 20
-22.074
 21
-36.216
  0
LINE
  8
0
 10
13.374
 11
8.884
 20
-36.216
 21
-31.726
  0
LINE
  8
0
 10
23.65
 11
23.789
 20
-65
 21
-63.68
  0
LINE
  8
0
 10
23.789
 11
24.199
 20
-63.68
 21
-62.417
  0
LINE
  8
0
 10
24.199
 11
24.863
 20
-62.417
 21
-61.268
  0
LINE
  8
0
 10
24.863
 11
25.751
 20
-61.268
 21
-60.281
  0
LINE
  8
0
 10
25.751
 11
26.825
 20
-60.281
 21
-59.501
  0
LINE
  8
0
 10
26.825
 11
28.038
 20
-59.501
 21
-58.961
  0
LINE
  8
0
 10
28.038
 11
29.336
 20
-58.961
 21
-58.685
  0
LINE
  8
0
 10
29.336
 11
30.664
 20
-58.685
 21
-58.685
  0
LINE
  8
0
 10
30.664
 11
31.962
 20
-58.685
 21
-58.961
  0
LINE
  8
0
 10
31.962
 11
33.175
 20
-58.961
 21
-59.501
  0
LINE
  8
0
 10
33.175
 11
34.249
 20
-59.501
 21
-60.281
  0
LINE
  8
0
 10
34.249
 11
35.137
 20
-60.281
 21
-61.268
  0
LINE
  8
0
 10
35.137
 11
35.801
 20
-61.268
 21
-62.417
  0
LINE
  8
0
 10
35.801
 11
36.211
 20
-62.417
 21
-63.68
  0
LINE
  8
0
 10
36.211
 11
36.35
 20
-63.68
 21
-65
  0
LINE
  8
0
 10
36.35
 11
36.211
 20
-65
 21
-66.32
  0
LINE
  8
0
 10
36.211
 11
35.801
 20
-66.32
 21
-67.583
  0
LINE
  8
0
 10
35.801
 11
35.137
 20
-67.583
 21
-68.732
  0
LINE
  8
0
 10
35.137
 11
34.249
 20
-68.732
 21
-69.719
  0
LINE
  8
0
 10
34.249
 11
33.175
 20
-69.719
 21
-70.499
  0
LINE
  8
0
 10
33.175
 11
31.962
 20
-70.499
 21
-71.039
  0
LINE
  8
0
 10
31.962
 11
30.664
 20
-71.039
 21
-71.315
  0
LINE
  8
0
 10
30.664
 11
29.336
 20
-71.315
 21
-71.315
  0
LINE
  8
0
 10
29.336
 11
28.038
 20
-71.315
 21
-71.039
  0
LINE
  8
0
 10
28.038
 11
26.825
 20
-71.039
 21
-70.499
  0
LINE
  8
0
 10
26.825
 11
25.751
 20
-70.499
 21
-69.719
  0
LINE
  8
0
 10
25.751
 11
24.863
 20
-69.719
 21
-68.732
  0
LINE
  8
0
 10
24.863
 11
24.199
 20
-68.732
 21
-67.583
  0
LINE
  8
0
 10
24.199
 11
23.789
 20
-67.583
 21
-66.32
  0
LINE
  8
0
 10
23.789
 11
23.65
 20
-66.32
 21
-65
  0
LINE
  8
0
 10
44.45
 11
44.589
 20
-108
 21
-106.68
  0
LINE
  8
0
 10
44.589
 11
44.999
 20
-106.68
 21
-105.417
  0
LINE
  8
0
 10
44.999
 11
45.663
 20
-105.417
 21
-104.268
  0
LINE
  8
0
 10
45.663
 11
46.551
 20
-104.268
 21
-103.281
  0
LINE
  8
0
 10
46.551
 11
47.625
 20
-103.281
 21
-102.501
  0
LINE
  8
0
 10
47.625
 11
48.838
 20
-102.501
 21
-101.961
  0
LINE
  8
0
 10
48.838
 11
50.136
 20
-101.961
 21
-101.685
  0
LINE
  8
0
 10
50.136
 11
51.464
 20
-101.685
 21
-101.685
  0
LINE
  8
0
 10
51.464
 11
52.762
 20
-101.685
 21
-101.961
  0
LINE
  8
0
 10
52.762
 11
53.975
 20
-101.961
 21
-102.501
  0
LINE
  8
0
 10
53.975
 11
55.049
 20
-102.501
 21
-103.281
  0
LINE
  8
0
 10
55.049
 11
55.937
 20
-103.281
 21
-104.268
  0
LINE
  8
0
 10
55.937
 11
56.601
 20
-104.268
 21
-105.417
  0
LINE
  8
0
 10
56.601
 11
57.011
 20
-105.417
 21
-106.68
  0
LINE
  8
0
 10
57.011
 11
57.15
 20
-106.68
 21
-108
  0
LINE
  8
0
 10
57.15
 11
57.011
 20
-108
 21
-109.32
  0
LINE
  8
0
 10
57.011
 11
56.601
 20
-109.32
 21
-110.583
  0
LINE
  8
0
 10
56.601
 11
55.937
 20
-110.583
 21
-111.732
  0
LINE
  8
0
 10
55.937
 11
55.049
 20
-111.732
 21
-112.719
  0
LINE
  8
0
 10
55.049
 11
53.975
 20
-112.719
 21
-113.499
  0
LINE
  8
0
 10
53.975
 11
52.762
 20
-113.499
 21
-114.039
  0
LINE
  8
0
 10
52.762
 11
51.464
 20
-114.039
 21
-114.315
  0
LINE
  8
0
 10
51.464
 11
50.136
 20
-114.315
 21
-114.315
  0
LINE
  8
0
 10
50.136
 11
48.838
 20
-114.315
 21
-114.039
  0
LINE
  8
0
 10
48.838
 11
47.625
 20
-114.039
 21
-113.499
  0
LINE
  8
0
 10
47.625
 11
46.551
 20
-113.499
 21
-112.719
  0
LINE
  8
0
 10
46.551
 11
45.663
 20
-112.719
 21
-111.732
  0
LINE
  8
0
 10
45.663
 11
44.999
 20
-111.732
 21
-110.583
  0
LINE
  8
0
 10
44.999
 11
44.589
 20
-110.583
 21
-109.32
  0
LINE
  8
0
 10
44.589
 11
44.45
 20
-109.32
 21
-108
  0
LINE
  8
0
 10
59.684
 11
73.826
 20
-82.526
 21
-68.384
  0
LINE
  8
0
 10
73.826
 11
78.316
 20
-68.384
 21
-72.874
  0
LINE
  8
0
 10
78.316
 11
64.174
 20
-72.874
 21
-87.016
  0
LINE
  8
0
 10
64.174
 11
59.684
 20
-87.016
 21
-82.526
  0
LINE
  8
0
 10
85.3
 11
85.934
 20
114.3
 21
120.329
  0
LINE
  8
0
 10
85.934
 11
87.807
 20
120.329
 21
126.095
  0
LINE
  8
0
 10
87.807
 11
90.839
 20
126.095
 21
131.346
  0
LINE
  8
0
 10
90.839
 11
94.895
 20
131.346
 21
135.851
  0
LINE
  8
0
 10
94.895
 11
99.8
 20
135.851
 21
139.415
  0
LINE
  8
0
 10
99.8
 11
105.339
 20
139.415
 21
141.881
  0
LINE
  8
0
 10
105.339
 11
111.269
 20
141.881
 21
143.141
  0
LINE
  8
0
 10
111.269
 11
117.331
 20
143.141
 21
143.141
  0
LINE
  8
0
 10
117.331
 11
123.261
 20
143.141
 21
141.881
  0
LINE
  8
0
 10
123.261
 11
128.8
 20
141.881
 21
139.415
  0
LINE
  8
0
 10
128.8
 11
133.705
 20
139.415
 21
135.851
  0
LINE
  8
0
 10
133.705
 11
137.761
 20
135.851
 21
131.346
  0
LINE
  8
0
 10
137.761
 11
140.793
 20
131.346
 21
126.095
  0
LINE
  8
0
 10
140.793
 11
142.666
 20
126.095
 21
120.329
  0
LINE
  8
0
 10
142.666
 11
143.3
 20
120.329
 21
114.3
  0
LINE
  8
0
 10
143.3
 11
142.666
 20
114.3
 21
108.271
  0
LINE
  8
0
 10
142.666
 11
140.793
 20
108.271
 21
102.505
  0
LINE
  8
0
 10
140.793
 11
137.761
 20
102.505
 21
97.254
  0
LINE
  8
0
 10
137.761
 11
133.705
 20
97.254
 21
92.749
  0
LINE
  8
0
 10
133.705
 11
128.8
 20
92.749
 21
89.185
  0
LINE
  8
0
 10
128.8
 11
123.261
 20
89.185
 21
86.719
  0
LINE
  8
0
 10
123.261
 11
117.331
 20
86.719
 21
85.459
  0
LINE
  8
0
 10
117.331
 11
111.269
 20
85.459
 21
85.459
  0
LINE
  8
0
 10
111.269
 11
105.339
 20
85.459
 21
86.719
  0
LINE
  8
0
 10
105.339
 11
99.8
 20
86.719
 21
89.185
  0
LINE
  8
0
 10
99.8
 11
94.895
 20
89.185
 21
92.749
  0
LINE
  8
0
 10
94.895
 11
90.839
 20
92.749
 21
97.254
  0
LINE
  8
0
 10
90.839
 11
87.807
 20
97.254
 21
102.505
  0
LINE
  8
0
 10
87.807
 11
85.934
 20
102.505
 21
108.271
  0
LINE
  8
0
 10
85.934
 11
85.3
 20
108.271
 21
114.3
  0
LINE
  8
0
 10
112.823
 11
137.571
 20
-137.571
 21
-112.823
  0
LINE
  8
0
 10
137.571
 11
141.177
 20
-112.823
 21
-116.429
  0
LINE
  8
0
 10
141.177
 11
116.429
 20
-116.429
 21
-141.177
  0
LINE
  8
0
 10
116.429
 11
112.823
 20
-141.177
 21
-137.571
  0
LINE
  8
0
 10
132.825
 11
132.894
 20
-152.4
 21
-151.74
  0
LINE
  8
0
 10
132.894
 11
133.099
 20
-151.74
 21
-151.109
  0
LINE
  8
0
 10
133.099
 11
133.431
 20
-151.109
 21
-150.534
  0
LINE
  8
0
 10
133.431
 11
133.876
 20
-150.534
 21
-150.041
  0
LINE
  8
0
 10
133.876
 11
134.413
 20
-150.041
 21
-149.65
  0
LINE
  8
0
 10
134.413
 11
135.019
 20
-149.65
 21
-149.38
  0
LINE
  8
0
 10
135.019
 11
135.668
 20
-149.38
 21
-149.242
  0
LINE
  8
0
 10
135.668
 11
136.332
 20
-149.242
 21
-149.242
  0
LINE
  8
0
 10
136.332
 11
136.981
 20
-149.242
 21
-149.38
  0
LINE
  8
0
 10
136.981
 11
137.587
 20
-149.38
 21
-149.65
  0
LINE
  8
0
 10
137.587
 11
138.124
 20
-149.65
 21
-150.041
  0
LINE
  8
0
 10
138.124
 11
138.569
 20
-150.041
 21
-150.534
  0
LINE
  8
0
 10
138.569
 11
138.901
 20
-150.534
 21
-151.109
  0
LINE
  8
0
 10
138.901
 11
139.106
 20
-151.109
 21
-151.74
  0
LINE
  8
0
 10
139.106
 11
139.175
 20
-151.74
 21
-152.4
  0
LINE
  8
0
 10
139.175
 11
139.106
 20
-152.4
 21
-153.06
  0
LINE
  8
0
 10
139.106
 11
138.901
 20
-153.06
 21
-153.691
  0
LINE
  8
0
 10
138.901
 11
138.569
 20
-153.691
 21
-154.266
  0
LINE
  8
0
 10
138.569
 11
138.124
 20
-154.266
 21
-154.759
  0
LINE
  8
0
 10
138.124
 11
137.587
 20
-154.759
 21
-155.15
  0
LINE
  8
0
 10
137.587
 11
136.981
 20
-155.15
 21
-155.42
  0
LINE
  8
0
 10
136.981
 11
136.332
 20
-155.42
 21
-155.558
  0
LINE
  8
0
 10
136.332
 11
135.668
 20
-155.558
 21
-155.558
  0
LINE
  8
0
 10
135.668
 11
135.019
 20
-155.558
 21
-155.42
  0
LINE
  8
0
 10
135.019
 11
134.413
 20
-155.42
 21
-155.15
  0
LINE
  8
0
 10
134.413
 11
133.876
 20
-155.15
 21
-154.759
  0
LINE
  8
0
 10
133.876
 11
133.431
 20
-154.759
 21
-154.266
  0
LINE
  8
0
 10
133.431
 11
133.099
 20
-154.266
 21
-153.691
  0
LINE
  8
0
 10
133.099
 11
132.894
 20
-153.691
 21
-153.06
  0
LINE
  8
0
 10
132.894
 11
132.825
 20
-153.06
 21
-152.4
  0
ENDSEC
  0
SECTION
  2
OBJECTS
  0
DICTIONARY
  0
ENDSEC
  0
EOF
