  0
SECTION
  2
BLOCKS
  0
ENDSEC
  0
SECTION
  2
ENTITIES
  0
LINE
  8
0
 10
-203.2
 11
-203.2
 20
-203.2
 21
203.2
  0
LINE
  8
0
 10
-203.2
 11
203.2
 20
203.2
 21
203.2
  0
LINE
  8
0
 10
203.2
 11
203.2
 20
203.2
 21
-203.2
  0
LINE
  8
0
 10
203.2
 11
-203.2
 20
-203.2
 21
-203.2
  0
LINE
  8
0
 10
-144.463
 11
-144.394
 20
152.4
 21
153.06
  0
LINE
  8
0
 10
-144.394
 11
-144.189
 20
153.06
 21
153.691
  0
LINE
  8
0
 10
-144.189
 11
-143.856
 20
153.691
 21
154.266
  0
LINE
  8
0
 10
-143.856
 11
-143.412
 20
154.266
 21
154.759
  0
LINE
  8
0
 10
-143.412
 11
-142.874
 20
154.759
 21
155.15
  0
LINE
  8
0
 10
-142.874
 11
-142.269
 20
155.15
 21
155.42
  0
LINE
  8
0
 10
-142.269
 11
-141.619
 20
155.42
 21
155.558
  0
LINE
  8
0
 10
-141.619
 11
-140.956
 20
155.558
 21
155.558
  0
LINE
  8
0
 10
-140.956
 11
-140.307
 20
155.558
 21
155.42
  0
LINE
  8
0
 10
-140.307
 11
-139.701
 20
155.42
 21
155.15
  0
LINE
  8
0
 10
-139.701
 11
-139.164
 20
155.15
 21
154.759
  0
LINE
  8
0
 10
-139.164
 11
-138.719
 20
154.759
 21
154.266
  0
LINE
  8
0
 10
-138.719
 11
-138.386
 20
154.266
 21
153.691
  0
LINE
  8
0
 10
-138.386
 11
-138.182
 20
153.691
 21
153.06
  0
LINE
  8
0
 10
-138.182
 11
-138.112
 20
153.06
 21
152.4
  0
LINE
  8
0
 10
-138.112
 11
-138.182
 20
152.4
 21
151.74
  0
LINE
  8
0
 10
-138.182
 11
-138.386
 20
151.74
 21
151.109
  0
LINE
  8
0
 10
-138.386
 11
-138.719
 20
151.109
 21
150.534
  0
LINE
  8
0
 10
-138.719
 11
-139.164
 20
150.534
 21
150.041
  0
LINE
  8
0
 10
-139.164
 11
-139.701
 20
150.041
 21
149.65
  0
LINE
  8
0
 10
-139.701
 11
-140.307
 20
149.65
 21
149.38
  0
LINE
  8
0
 10
-140.307
 11
-140.956
 20
149.38
 21
149.242
  0
LINE
  8
0
 10
-140.956
 11
-141.619
 20
149.242
 21
149.242
  0
LINE
  8
0
 10
-141.619
 11
-142.269
 20
149.242
 21
149.38
  0
LINE
  8
0
 10
-142.269
 11
-142.874
 20
149.38
 21
149.65
  0
LINE
  8
0
 10
-142.874
 11
-143.412
 20
149.65
 21
150.041
  0
LINE
  8
0
 10
-143.412
 11
-143.856
 20
150.041
 21
150.534
  0
LINE
  8
0
 10
-143.856
 11
-144.189
 20
150.534
 21
151.109
  0
LINE
  8
0
 10
-144.189
 11
-144.394
 20
151.109
 21
151.74
  0
LINE
  8
0
 10
-144.394
 11
-144.463
 20
151.74
 21
152.4
  0
LINE
  8
0
 10
-141.177
 11
-116.429
 20
116.429
 21
141.177
  0
LINE
  8
0
 10
-116.429
 11
-112.823
 20
141.177
 21
137.571
  0
LINE
  8
0
 10
-112.823
 11
-137.571
 20
137.571
 21
112.823
  0
LINE
  8
0
 10
-137.571
 11
-141.177
 20
112.823
 21
116.429
  0
LINE
  8
0
 10
-127
 11
-126.722
 20
-114.3
 21
-111.66
  0
LINE
  8
0
 10
-126.722
 11
-125.902
 20
-111.66
 21
-109.134
  0
LINE
  8
0
 10
-125.902
 11
-124.575
 20
-109.134
 21
-106.835
  0
LINE
  8
0
 10
-124.575
 11
-122.798
 20
-106.835
 21
-104.862
  0
LINE
  8
0
 10
-122.798
 11
-120.65
 20
-104.862
 21
-103.301
  0
LINE
  8
0
 10
-120.65
 11
-118.225
 20
-103.301
 21
-102.222
  0
LINE
  8
0
 10
-118.225
 11
-115.628
 20
-102.222
 21
-101.67
  0
LINE
  8
0
 10
-115.628
 11
-112.972
 20
-101.67
 21
-101.67
  0
LINE
  8
0
 10
-112.972
 11
-110.375
 20
-101.67
 21
-102.222
  0
LINE
  8
0
 10
-110.375
 11
-107.95
 20
-102.222
 21
-103.301
  0
LINE
  8
0
 10
-107.95
 11
-105.802
 20
-103.301
 21
-104.862
  0
LINE
  8
0
 10
-105.802
 11
-104.025
 20
-104.862
 21
-106.835
  0
LINE
  8
0
 10
-104.025
 11
-102.698
 20
-106.835
 21
-109.134
  0
LINE
  8
0
 10
-102.698
 11
-101.878
 20
-109.134
 21
-111.66
  0
LINE
  8
0
 10
-101.878
 11
-101.6
 20
-111.66
 21
-114.3
  0
LINE
  8
0
 10
-101.6
 11
-101.878
 20
-114.3
 21
-116.94
  0
LINE
  8
0
 10
-101.878
 11
-102.698
 20
-116.94
 21
-119.466
  0
LINE
  8
0
 10
-102.698
 11
-104.025
 20
-119.466
 21
-121.765
  0
LINE
  8
0
 10
-104.025
 11
-105.802
 20
-121.765
 21
-123.738
  0
LINE
  8
0
 10
-105.802
 11
-107.95
 20
-123.738
 21
-125.299
  0
LINE
  8
0
 10
-107.95
 11
-110.375
 20
-125.299
 21
-126.378
  0
LINE
  8
0
 10
-110.375
 11
-112.972
 20
-126.378
 21
-126.93
  0
LINE
  8
0
 10
-112.972
 11
-115.628
 20
-126.93
 21
-126.93
  0
LINE
  8
0
 10
-115.628
 11
-118.225
 20
-126.93
 21
-126.378
  0
LINE
  8
0
 10
-118.225
 11
-120.65
 20
-126.378
 21
-125.299
  0
LINE
  8
0
 10
-120.65
 11
-122.798
 20
-125.299
 21
-123.738
  0
LINE
  8
0
 10
-122.798
 11
-124.575
 20
-123.738
 21
-121.765
  0
LINE
  8
0
 10
-124.575
 11
-125.902
 20
-121.765
 21
-119.466
  0
LINE
  8
0
 10
-125.902
 11
-126.722
 20
-119.466
 21
-116.94
  0
LINE
  8
0
 10
-126.722
 11
-127
 20
-116.94
 21
-114.3
  0
LINE
  8
0
 10
-89.65
 11
-89.65
 20
127
 21
177.8
  0
LINE
  8
0
 10
-89.65
 11
-76.95
 20
177.8
 21
177.8
  0
LINE
  8
0
 10
-76.95
 11
-76.95
 20
177.8
 21
127
  0
LINE
  8
0
 10
-76.95
 11
-89.65
 20
127
 21
127
  0
LINE
  8
0
 10
-73.025
 11
-72.956
 20
76.2
 21
76.86
  0
LINE
  8
0
 10
-72.956
 11
-72.751
 20
76.86
 21
77.491
  0
LINE
  8
0
 10
-72.751
 11
-72.419
 20
77.491
 21
78.066
  0
LINE
  8
0
 10
-72.419
 11
-71.974
 20
78.066
 21
78.559
  0
LINE
  8
0
 10
-71.974
 11
-71.437
 20
78.559
 21
78.95
  0
LINE
  8
0
 10
-71.437
 11
-70.831
 20
78.95
 21
79.22
  0
LINE
  8
0
 10
-70.831
 11
-70.182
 20
79.22
 21
79.358
  0
LINE
  8
0
 10
-70.182
 11
-69.518
 20
79.358
 21
79.358
  0
LINE
  8
0
 10
-69.518
 11
-68.869
 20
79.358
 21
79.22
  0
LINE
  8
0
 10
-68.869
 11
-68.263
 20
79.22
 21
78.95
  0
LINE
  8
0
 10
-68.263
 11
-67.726
 20
78.95
 21
78.559
  0
LINE
  8
0
 10
-67.726
 11
-67.281
 20
78.559
 21
78.066
  0
LINE
  8
0
 10
-67.281
 11
-66.949
 20
78.066
 21
77.491
  0
LINE
  8
0
 10
-66.949
 11
-66.744
 20
77.491
 21
76.86
  0
LINE
  8
0
 10
-66.744
 11
-66.675
 20
76.86
 21
76.2
  0
LINE
  8
0
 10
-66.675
 11
-66.744
 20
76.2
 21
75.54
  0
LINE
  8
0
 10
-66.744
 11
-66.949
 20
75.54
 21
74.909
  0
LINE
  8
0
 10
-66.949
 11
-67.281
 20
74.909
 21
74.334
  0
LINE
  8
0
 10
-67.281
 11
-67.726
 20
74.334
 21
73.841
  0
LINE
  8
0
 10
-67.726
 11
-68.263
 20
73.841
 21
73.45
  0
LINE
  8
0
 10
-68.263
 11
-68.869
 20
73.45
 21
73.18
  0
LINE
  8
0
 10
-68.869
 11
-69.518
 20
73.18
 21
73.042
  0
LINE
  8
0
 10
-69.518
 11
-70.182
 20
73.042
 21
73.042
  0
LINE
  8
0
 10
-70.182
 11
-70.831
 20
73.042
 21
73.18
  0
LINE
  8
0
 10
-70.831
 11
-71.437
 20
73.18
 21
73.45
  0
LINE
  8
0
 10
-71.437
 11
-71.974
 20
73.45
 21
73.841
  0
LINE
  8
0
 10
-71.974
 11
-72.419
 20
73.841
 21
74.334
  0
LINE
  8
0
 10
-72.419
 11
-72.751
 20
74.334
 21
74.909
  0
LINE
  8
0
 10
-72.751
 11
-72.956
 20
74.909
 21
75.54
  0
LINE
  8
0
 10
-72.956
 11
-73.025
 20
75.54
 21
76.2
  0
LINE
  8
0
 10
-57.15
 11
-57.011
 20
108
 21
109.32
  0
LINE
  8
0
 10
-57.011
 11
-56.601
 20
109.32
 21
110.583
  0
LINE
  8
0
 10
-56.601
 11
-55.937
 20
110.583
 21
111.732
  0
LINE
  8
0
 10
-55.937
 11
-55.049
 20
111.732
 21
112.719
  0
LINE
  8
0
 10
-55.049
 11
-53.975
 20
112.719
 21
113.499
  0
LINE
  8
0
 10
-53.975
 11
-52.762
 20
113.499
 21
114.039
  0
LINE
  8
0
 10
-52.762
 11
-51.464
 20
114.039
 21
114.315
  0
LINE
  8
0
 10
-51.464
 11
-50.136
 20
114.315
 21
114.315
  0
LINE
  8
0
 10
-50.136
 11
-48.838
 20
114.315
 21
114.039
  0
LINE
  8
0
 10
-48.838
 11
-47.625
 20
114.039
 21
113.499
  0
LINE
  8
0
 10
-47.625
 11
-46.551
 20
113.499
 21
112.719
  0
LINE
  8
0
 10
-46.551
 11
-45.663
 20
112.719
 21
111.732
  0
LINE
  8
0
 10
-45.663
 11
-44.999
 20
111.732
 21
110.583
  0
LINE
  8
0
 10
-44.999
 11
-44.589
 20
110.583
 21
109.32
  0
LINE
  8
0
 10
-44.589
 11
-44.45
 20
109.32
 21
108
  0
LINE
  8
0
 10
-44.45
 11
-44.589
 20
108
 21
106.68
  0
LINE
  8
0
 10
-44.589
 11
-44.999
 20
106.68
 21
105.417
  0
LINE
  8
0
 10
-44.999
 11
-45.663
 20
105.417
 21
104.268
  0
LINE
  8
0
 10
-45.663
 11
-46.551
 20
104.268
 21
103.281
  0
LINE
  8
0
 10
-46.551
 11
-47.625
 20
103.281
 21
102.501
  0
LINE
  8
0
 10
-47.625
 11
-48.838
 20
102.501
 21
101.961
  0
LINE
  8
0
 10
-48.838
 11
-50.136
 20
101.961
 21
101.685
  0
LINE
  8
0
 10
-50.136
 11
-51.464
 20
101.685
 21
101.685
  0
LINE
  8
0
 10
-51.464
 11
-52.762
 20
101.685
 21
101.961
  0
LINE
  8
0
 10
-52.762
 11
-53.975
 20
101.961
 21
102.501
  0
LINE
  8
0
 10
-53.975
 11
-55.049
 20
102.501
 21
103.281
  0
LINE
  8
0
 10
-55.049
 11
-55.937
 20
103.281
 21
104.268
  0
LINE
  8
0
 10
-55.937
 11
-56.601
 20
104.268
 21
105.417
  0
LINE
  8
0
 10
-56.601
 11
-57.011
 20
105.417
 21
106.68
  0
LINE
  8
0
 10
-57.011
 11
-57.15
 20
106.68
 21
108
  0
LINE
  8
0
 10
-43.254
 11
-14.97
 20
-35.83
 21
-7.546
  0
LINE
  8
0
 10
-14.97
 11
-7.546
 20
-7.546
 21
-14.97
  0
LINE
  8
0
 10
-7.546
 11
-35.83
 20
-14.97
 21
-43.254
  0
LINE
  8
0
 10
-35.83
 11
-43.254
 20
-43.254
 21
-35.83
  0
LINE
  8
0
 10
-33.175
 11
-33.106
 20
65
 21
65.66
  0
LINE
  8
0
 10
-33.106
 11
-32.901
 20
65.66
 21
66.291
  0
LINE
  8
0
 10
-32.901
 11
-32.569
 20
66.291
 21
66.866
  0
LINE
  8
0
 10
-32.569
 11
-32.124
 20
66.866
 21
67.359
  0
LINE
  8
0
 10
-32.124
 11
-31.587
 20
67.359
 21
67.75
  0
LINE
  8
0
 10
-31.587
 11
-30.981
 20
67.75
 21
68.02
  0
LINE
  8
0
 10
-30.981
 11
-30.332
 20
68.02
 21
68.158
  0
LINE
  8
0
 10
-30.332
 11
-29.668
 20
68.158
 21
68.158
  0
LINE
  8
0
 10
-29.668
 11
-29.019
 20
68.158
 21
68.02
  0
LINE
  8
0
 10
-29.019
 11
-28.413
 20
68.02
 21
67.75
  0
LINE
  8
0
 10
-28.413
 11
-27.876
 20
67.75
 21
67.359
  0
LINE
  8
0
 10
-27.876
 11
-27.431
 20
67.359
 21
66.866
  0
LINE
  8
0
 10
-27.431
 11
-27.099
 20
66.866
 21
66.291
  0
LINE
  8
0
 10
-27.099
 11
-26.894
 20
66.291
 21
65.66
  0
LINE
  8
0
 10
-26.894
 11
-26.825
 20
65.66
 21
65
  0
LINE
  8
0
 10
-26.825
 11
-26.894
 20
65
 21
64.34
  0
LINE
  8
0
 10
-26.894
 11
-27.099
 20
64.34
 21
63.709
  0
LINE
  8
0
 10
-27.099
 11
-27.431
 20
63.709
 21
63.134
  0
LINE
  8
0
 10
-27.431
 11
-27.876
 20
63.134
 21
62.641
  0
LINE
  8
0
 10
-27.876
 11
-28.413
 20
62.641
 21
62.25
  0
LINE
  8
0
 10
-28.413
 11
-29.019
 20
62.25
 21
61.98
  0
LINE
  8
0
 10
-29.019
 11
-29.668
 20
61.98
 21
61.842
  0
LINE
  8
0
 10
-29.668
 11
-30.332
 20
61.842
 21
61.842
  0
LINE
  8
0
 10
-30.332
 11
-30.981
 20
61.842
 21
61.98
  0
LINE
  8
0
 10
-30.981
 11
-31.587
 20
61.98
 21
62.25
  0
LINE
  8
0
 10
-31.587
 11
-32.124
 20
62.25
 21
62.641
  0
LINE
  8
0
 10
-32.124
 11
-32.569
 20
62.641
 21
63.134
  0
LINE
  8
0
 10
-32.569
 11
-32.901
 20
63.134
 21
63.709
  0
LINE
  8
0
 10
-32.901
 11
-33.106
 20
63.709
 21
64.34
  0
LINE
  8
0
 10
-33.106
 11
-33.175
 20
64.34
 21
65
  0
LINE
  8
0
 10
-28.575
 11
-28.506
 20
152.4
 21
153.06
  0
LINE
  8
0
 10
-28.506
 11
-28.301
 20
153.06
 21
153.691
  0
LINE
  8
0
 10
-28.301
 11
-27.969
 20
153.691
 21
154.266
  0
LINE
  8
0
 10
-27.969
 11
-27.524
 20
154.266
 21
154.759
  0
LINE
  8
0
 10
-27.524
 11
-26.987
 20
154.759
 21
155.15
  0
LINE
  8
0
 10
-26.987
 11
-26.381
 20
155.15
 21
155.42
  0
LINE
  8
0
 10
-26.381
 11
-25.732
 20
155.42
 21
155.558
  0
LINE
  8
0
 10
-25.732
 11
-25.068
 20
155.558
 21
155.558
  0
LINE
  8
0
 10
-25.068
 11
-24.419
 20
155.558
 21
155.42
  0
LINE
  8
0
 10
-24.419
 11
-23.813
 20
155.42
 21
155.15
  0
LINE
  8
0
 10
-23.813
 11
-23.276
 20
155.15
 21
154.759
  0
LINE
  8
0
 10
-23.276
 11
-22.831
 20
154.759
 21
154.266
  0
LINE
  8
0
 10
-22.831
 11
-22.499
 20
154.266
 21
153.691
  0
LINE
  8
0
 10
-22.499
 11
-22.294
 20
153.691
 21
153.06
  0
LINE
  8
0
 10
-22.294
 11
-22.225
 20
153.06
 21
152.4
  0
LINE
  8
0
 10
-22.225
 11
-22.294
 20
152.4
 21
151.74
  0
LINE
  8
0
 10
-22.294
 11
-22.499
 20
151.74
 21
151.109
  0
LINE
  8
0
 10
-22.499
 11
-22.831
 20
151.109
 21
150.534
  0
LINE
  8
0
 10
-22.831
 11
-23.276
 20
150.534
 21
150.041
  0
LINE
  8
0
 10
-23.276
 11
-23.813
 20
150.041
 21
149.65
  0
LINE
  8
0
 10
-23.813
 11
-24.419
 20
149.65
 21
149.38
  0
LINE
  8
0
 10
-24.419
 11
-25.068
 20
149.38
 21
149.242
  0
LINE
  8
0
 10
-25.068
 11
-25.732
 20
149.242
 21
149.242
  0
LINE
  8
0
 10
-25.732
 11
-26.381
 20
149.242
 21
149.38
  0
LINE
  8
0
 10
-26.381
 11
-26.987
 20
149.38
 21
149.65
  0
LINE
  8
0
 10
-26.987
 11
-27.524
 20
149.65
 21
150.041
  0
LINE
  8
0
 10
-27.524
 11
-27.969
 20
150.041
 21
150.534
  0
LINE
  8
0
 10
-27.969
 11
-28.301
 20
150.534
 21
151.109
  0
LINE
  8
0
 10
-28.301
 11
-28.506
 20
151.109
 21
151.74
  0
LINE
  8
0
 10
-28.506
 11
-28.575
 20
151.74
 21
152.4
  0
LINE
  8
0
 10
-22.225
 11
-22.156
 20
25.4
 21
26.06
  0
LINE
  8
0
 10
-22.156
 11
-21.951
 20
26.06
 21
26.691
  0
LINE
  8
0
 10
-21.951
 11
-21.619
 20
26.691
 21
27.266
  0
LINE
  8
0
 10
-21.619
 11
-21.174
 20
27.266
 21
27.759
  0
LINE
  8
0
 10
-21.174
 11
-20.637
 20
27.759
 21
28.15
  0
LINE
  8
0
 10
-20.637
 11
-20.031
 20
28.15
 21
28.42
  0
LINE
  8
0
 10
-20.031
 11
-19.382
 20
28.42
 21
28.558
  0
LINE
  8
0
 10
-19.382
 11
-18.718
 20
28.558
 21
28.558
  0
LINE
  8
0
 10
-18.718
 11
-18.069
 20
28.558
 21
28.42
  0
LINE
  8
0
 10
-18.069
 11
-17.463
 20
28.42
 21
28.15
  0
LINE
  8
0
 10
-17.463
 11
-16.926
 20
28.15
 21
27.759
  0
LINE
  8
0
 10
-16.926
 11
-16.481
 20
27.759
 21
27.266
  0
LINE
  8
0
 10
-16.481
 11
-16.149
 20
27.266
 21
26.691
  0
LINE
  8
0
 10
-16.149
 11
-15.944
 20
26.691
 21
26.06
  0
LINE
  8
0
 10
-15.944
 11
-15.875
 20
26.06
 21
25.4
  0
LINE
  8
0
 10
-15.875
 11
-15.944
 20
25.4
 21
24.74
  0
LINE
  8
0
 10
-15.944
 11
-16.149
 20
24.74
 21
24.109
  0
LINE
  8
0
 10
-16.149
 11
-16.481
 20
24.109
 21
23.534
  0
LINE
  8
0
 10
-16.481
 11
-16.926
 20
23.534
 21
23.041
  0
LINE
  8
0
 10
-16.926
 11
-17.463
 20
23.041
 21
22.65
  0
LINE
  8
0
 10
-17.463
 11
-18.069
 20
22.65
 21
22.38
  0
LINE
  8
0
 10
-18.069
 11
-18.718
 20
22.38
 21
22.242
  0
LINE
  8
0
 10
-18.718
 11
-19.382
 20
22.242
 21
22.242
  0
LINE
  8
0
 10
-19.382
 11
-20.031
 20
22.242
 21
22.38
  0
LINE
  8
0
 10
-20.031
 11
-20.637
 20
22.38
 21
22.65
  0
LINE
  8
0
 10
-20.637
 11
-21.174
 20
22.65
 21
23.041
  0
LINE
  8
0
 10
-21.174
 11
-21.619
 20
23.041
 21
23.534
  0
LINE
  8
0
 10
-21.619
 11
-21.951
 20
23.534
 21
24.109
  0
LINE
  8
0
 10
-21.951
 11
-22.156
 20
24.109
 21
24.74
  0
LINE
  8
0
 10
-22.156
 11
-22.225
 20
24.74
 21
25.4
  0
LINE
  8
0
 10
-3.175
 11
-3.106
 20
-88.9
 21
-88.24
  0
LINE
  8
0
 10
-3.106
 11
-2.901
 20
-88.24
 21
-87.609
  0
LINE
  8
0
 10
-2.901
 11
-2.569
 20
-87.609
 21
-87.034
  0
LINE
  8
0
 10
-2.569
 11
-2.124
 20
-87.034
 21
-86.541
  0
LINE
  8
0
 10
-2.124
 11
-1.587
 20
-86.541
 21
-86.15
  0
LINE
  8
0
 10
-1.587
 11
-0.981
 20
-86.15
 21
-85.88
  0
LINE
  8
0
 10
-0.981
 11
-0.332
 20
-85.88
 21
-85.742
  0
LINE
  8
0
 10
-0.332
 11
0.332
 20
-85.742
 21
-85.742
  0
LINE
  8
0
 10
0.332
 11
0.981
 20
-85.742
 21
-85.88
  0
LINE
  8
0
 10
0.981
 11
1.587
 20
-85.88
 21
-86.15
  0
LINE
  8
0
 10
1.587
 11
2.124
 20
-86.15
 21
-86.541
  0
LINE
  8
0
 10
2.124
 11
2.569
 20
-86.541
 21
-87.034
  0
LINE
  8
0
 10
2.569
 11
2.901
 20
-87.034
 21
-87.609
  0
LINE
  8
0
 10
2.901
 11
3.106
 20
-87.609
 21
-88.24
  0
LINE
  8
0
 10
3.106
 11
3.175
 20
-88.24
 21
-88.9
  0
LINE
  8
0
 10
3.175
 11
3.106
 20
-88.9
 21
-89.56
  0
LINE
  8
0
 10
3.106
 11
2.901
 20
-89.56
 21
-90.191
  0
LINE
  8
0
 10
2.901
 11
2.569
 20
-90.191
 21
-90.766
  0
LINE
  8
0
 10
2.569
 11
2.124
 20
-90.766
 21
-91.259
  0
LINE
  8
0
 10
2.124
 11
1.587
 20
-91.259
 21
-91.65
  0
LINE
  8
0
 10
1.587
 11
0.981
 20
-91.65
 21
-91.92
  0
LINE
  8
0
 10
0.981
 11
0.332
 20
-91.92
 21
-92.058
  0
LINE
  8
0
 10
0.332
 11
-0.332
 20
-92.058
 21
-92.058
  0
LINE
  8
0
 10
-0.332
 11
-0.981
 20
-92.058
 21
-91.92
  0
LINE
  8
0
 10
-0.981
 11
-1.587
 20
-91.92
 21
-91.65
  0
LINE
  8
0
 10
-1.587
 11
-2.124
 20
-91.65
 21
-91.259
  0
LINE
  8
0
 10
-2.124
 11
-2.569
 20
-91.259
 21
-90.766
  0
LINE
  8
0
 10
-2.569
 11
-2.901
 20
-90.766
 21
-90.191
  0
LINE
  8
0
 10
-2.901
 11
-3.106
 20
-90.191
 21
-89.56
  0
LINE
  8
0
 10
-3.106
 11
-3.175
 20
-89.56
 21
-88.9
  0
LINE
  8
0
 10
-3.175
 11
-3.106
 20
88.9
 21
89.56
  0
LINE
  8
0
 10
-3.106
 11
-2.901
 20
89.56
 21
90.191
  0
LINE
  8
0
 10
-2.901
 11
-2.569
 20
90.191
 21
90.766
  0
LINE
  8
0
 10
-2.569
 11
-2.124
 20
90.766
 21
91.259
  0
LINE
  8
0
 10
-2.124
 11
-1.587
 20
91.259
 21
91.65
  0
LINE
  8
0
 10
-1.587
 11
-0.981
 20
91.65
 21
91.92
  0
LINE
  8
0
 10
-0.981
 11
-0.332
 20
91.92
 21
92.058
  0
LINE
  8
0
 10
-0.332
 11
0.332
 20
92.058
 21
92.058
  0
LINE
  8
0
 10
0.332
 11
0.981
 20
92.058
 21
91.92
  0
LINE
  8
0
 10
0.981
 11
1.587
 20
91.92
 21
91.65
  0
LINE
  8
0
 10
1.587
 11
2.124
 20
91.65
 21
91.259
  0
LINE
  8
0
 10
2.124
 11
2.569
 20
91.259
 21
90.766
  0
LINE
  8
0
 10
2.569
 11
2.901
 20
90.766
 21
90.191
  0
LINE
  8
0
 10
2.901
 11
3.106
 20
90.191
 21
89.56
  0
LINE
  8
0
 10
3.106
 11
3.175
 20
89.56
 21
88.9
  0
LINE
  8
0
 10
3.175
 11
3.106
 20
88.9
 21
88.24
  0
LINE
  8
0
 10
3.106
 11
2.901
 20
88.24
 21
87.609
  0
LINE
  8
0
 10
2.901
 11
2.569
 20
87.609
 21
87.034
  0
LINE
  8
0
 10
2.569
 11
2.124
 20
87.034
 21
86.541
  0
LINE
  8
0
 10
2.124
 11
1.587
 20
86.541
 21
86.15
  0
LINE
  8
0
 10
1.587
 11
0.981
 20
86.15
 21
85.88
  0
LINE
  8
0
 10
0.981
 11
0.332
 20
85.88
 21
85.742
  0
LINE
  8
0
 10
0.332
 11
-0.332
 20
85.742
 21
85.742
  0
LINE
  8
0
 10
-0.332
 11
-0.981
 20
85.742
 21
85.88
  0
LINE
  8
0
 10
-0.981
 11
-1.587
 20
85.88
 21
86.15
  0
LINE
  8
0
 10
-1.587
 11
-2.124
 20
86.15
 21
86.541
  0
LINE
  8
0
 10
-2.124
 11
-2.569
 20
86.541
 21
87.034
  0
LINE
  8
0
 10
-2.569
 11
-2.901
 20
87.034
 21
87.609
  0
LINE
  8
0
 10
-2.901
 11
-3.106
 20
87.609
 21
88.24
  0
LINE
  8
0
 10
-3.106
 11
-3.175
 20
88.24
 21
88.9
  0
LINE
  8
0
 10
7.546
 11
35.83
 20
14.97
 21
43.254
  0
LINE
  8
0
 10
35.83
 11
43.254
 20
43.254
 21
35.83
  0
LINE
  8
0
 10
43.254
 11
14.97
 20
35.83
 21
7.546
  0
LINE
  8
0
 10
14.97
 11
7.546
 20
7.546
 21
14.97
  0
LINE
  8
0
 10
15.875
 11
15.944
 20
-25.4
 21
-24.74
  0
LINE
  8
0
 10
15.944
 11
16.149
 20
-24.74
 21
-24.109
  0
LINE
  8
0
 10
16.149
 11
16.481
 20
-24.109
 21
-23.534
  0
LINE
  8
0
 10
16.481
 11
16.926
 20
-23.534
 21
-23.041
  0
LINE
  8
0
 10
16.926
 11
17.463
 20
-23.041
 21
-22.65
  0
LINE
  8
0
 10
17.463
 11
18.069
 20
-22.65
 21
-22.38
  0
LINE
  8
0
 10
18.069
 11
18.718
 20
-22.38
 21
-22.242
  0
LINE
  8
0
 10
18.718
 11
19.382
 20
-22.242
 21
-22.242
  0
LINE
  8
0
 10
19.382
 11
20.031
 20
-22.242
 21
-22.38
  0
LINE
  8
0
 10
20.031
 11
20.637
 20
-22.38
 21
-22.65
  0
LINE
  8
0
 10
20.637
 11
21.174
 20
-22.65
 21
-23.041
  0
LINE
  8
0
 10
21.174
 11
21.619
 20
-23.041
 21
-23.534
  0
LINE
  8
0
 10
21.619
 11
21.951
 20
-23.534
 21
-24.109
  0
LINE
  8
0
 10
21.951
 11
22.156
 20
-24.109
 21
-24.74
  0
LINE
  8
0
 10
22.156
 11
22.225
 20
-24.74
 21
-25.4
  0
LINE
  8
0
 10
22.225
 11
22.156
 20
-25.4
 21
-26.06
  0
LINE
  8
0
 10
22.156
 11
21.951
 20
-26.06
 21
-26.691
  0
LINE
  8
0
 10
21.951
 11
21.619
 20
-26.691
 21
-27.266
  0
LINE
  8
0
 10
21.619
 11
21.174
 20
-27.266
 21
-27.759
  0
LINE
  8
0
 10
21.174
 11
20.637
 20
-27.759
 21
-28.15
  0
LINE
  8
0
 10
20.637
 11
20.031
 20
-28.15
 21
-28.42
  0
LINE
  8
0
 10
20.031
 11
19.382
 20
-28.42
 21
-28.558
  0
LINE
  8
0
 10
19.382
 11
18.718
 20
-28.558
 21
-28.558
  0
LINE
  8
0
 10
18.718
 11
18.069
 20
-28.558
 21
-28.42
  0
LINE
  8
0
 10
18.069
 11
17.463
 20
-28.42
 21
-28.15
  0
LINE
  8
0
 10
17.463
 11
16.926
 20
-28.15
 21
-27.759
  0
LINE
  8
0
 10
16.926
 11
16.481
 20
-27.759
 21
-27.266
  0
LINE
  8
0
 10
16.481
 11
16.149
 20
-27.266
 21
-26.691
  0
LINE
  8
0
 10
16.149
 11
15.944
 20
-26.691
 21
-26.06
  0
LINE
  8
0
 10
15.944
 11
15.875
 20
-26.06
 21
-25.4
  0
LINE
  8
0
 10
26.825
 11
26.894
 20
-65
 21
-64.34
  0
LINE
  8
0
 10
26.894
 11
27.099
 20
-64.34
 21
-63.709
  0
LINE
  8
0
 10
27.099
 11
27.431
 20
-63.709
 21
-63.134
  0
LINE
  8
0
 10
27.431
 11
27.876
 20
-63.134
 21
-62.641
  0
LINE
  8
0
 10
27.876
 11
28.413
 20
-62.641
 21
-62.25
  0
LINE
  8
0
 10
28.413
 11
29.019
 20
-62.25
 21
-61.98
  0
LINE
  8
0
 10
29.019
 11
29.668
 20
-61.98
 21
-61.842
  0
LINE
  8
0
 10
29.668
 11
30.332
 20
-61.842
 21
-61.842
  0
LINE
  8
0
 10
30.332
 11
30.981
 20
-61.842
 21
-61.98
  0
LINE
  8
0
 10
30.981
 11
31.587
 20
-61.98
 21
-62.25
  0
LINE
  8
0
 10
31.587
 11
32.124
 20
-62.25
 21
-62.641
  0
LINE
  8
0
 10
32.124
 11
32.569
 20
-62.641
 21
-63.134
  0
LINE
  8
0
 10
32.569
 11
32.901
 20
-63.134
 21
-63.709
  0
LINE
  8
0
 10
32.901
 11
33.106
 20
-63.709
 21
-64.34
  0
LINE
  8
0
 10
33.106
 11
33.175
 20
-64.34
 21
-65
  0
LINE
  8
0
 10
33.175
 11
33.106
 20
-65
 21
-65.66
  0
LINE
  8
0
 10
33.106
 11
32.901
 20
-65.66
 21
-66.291
  0
LINE
  8
0
 10
32.901
 11
32.569
 20
-66.291
 21
-66.866
  0
LINE
  8
0
 10
32.569
 11
32.124
 20
-66.866
 21
-67.359
  0
LINE
  8
0
 10
32.124
 11
31.587
 20
-67.359
 21
-67.75
  0
LINE
  8
0
 10
31.587
 11
30.981
 20
-67.75
 21
-68.02
  0
LINE
  8
0
 10
30.981
 11
30.332
 20
-68.02
 21
-68.158
  0
LINE
  8
0
 10
30.332
 11
29.668
 20
-68.158
 21
-68.158
  0
LINE
  8
0
 10
29.668
 11
29.019
 20
-68.158
 21
-68.02
  0
LINE
  8
0
 10
29.019
 11
28.413
 20
-68.02
 21
-67.75
  0
LINE
  8
0
 10
28.413
 11
27.876
 20
-67.75
 21
-67.359
  0
LINE
  8
0
 10
27.876
 11
27.431
 20
-67.359
 21
-66.866
  0
LINE
  8
0
 10
27.431
 11
27.099
 20
-66.866
 21
-66.291
  0
LINE
  8
0
 10
27.099
 11
26.894
 20
-66.291
 21
-65.66
  0
LINE
  8
0
 10
26.894
 11
26.825
 20
-65.66
 21
-65
  0
LINE
  8
0
 10
44.45
 11
44.589
 20
-108
 21
-106.68
  0
LINE
  8
0
 10
44.589
 11
44.999
 20
-106.68
 21
-105.417
  0
LINE
  8
0
 10
44.999
 11
45.663
 20
-105.417
 21
-104.268
  0
LINE
  8
0
 10
45.663
 11
46.551
 20
-104.268
 21
-103.281
  0
LINE
  8
0
 10
46.551
 11
47.625
 20
-103.281
 21
-102.501
  0
LINE
  8
0
 10
47.625
 11
48.838
 20
-102.501
 21
-101.961
  0
LINE
  8
0
 10
48.838
 11
50.136
 20
-101.961
 21
-101.685
  0
LINE
  8
0
 10
50.136
 11
51.464
 20
-101.685
 21
-101.685
  0
LINE
  8
0
 10
51.464
 11
52.762
 20
-101.685
 21
-101.961
  0
LINE
  8
0
 10
52.762
 11
53.975
 20
-101.961
 21
-102.501
  0
LINE
  8
0
 10
53.975
 11
55.049
 20
-102.501
 21
-103.281
  0
LINE
  8
0
 10
55.049
 11
55.937
 20
-103.281
 21
-104.268
  0
LINE
  8
0
 10
55.937
 11
56.601
 20
-104.268
 21
-105.417
  0
LINE
  8
0
 10
56.601
 11
57.011
 20
-105.417
 21
-106.68
  0
LINE
  8
0
 10
57.011
 11
57.15
 20
-106.68
 21
-108
  0
LINE
  8
0
 10
57.15
 11
57.011
 20
-108
 21
-109.32
  0
LINE
  8
0
 10
57.011
 11
56.601
 20
-109.32
 21
-110.583
  0
LINE
  8
0
 10
56.601
 11
55.937
 20
-110.583
 21
-111.732
  0
LINE
  8
0
 10
55.937
 11
55.049
 20
-111.732
 21
-112.719
  0
LINE
  8
0
 10
55.049
 11
53.975
 20
-112.719
 21
-113.499
  0
LINE
  8
0
 10
53.975
 11
52.762
 20
-113.499
 21
-114.039
  0
LINE
  8
0
 10
52.762
 11
51.464
 20
-114.039
 21
-114.315
  0
LINE
  8
0
 10
51.464
 11
50.136
 20
-114.315
 21
-114.315
  0
LINE
  8
0
 10
50.136
 11
48.838
 20
-114.315
 21
-114.039
  0
LINE
  8
0
 10
48.838
 11
47.625
 20
-114.039
 21
-113.499
  0
LINE
  8
0
 10
47.625
 11
46.551
 20
-113.499
 21
-112.719
  0
LINE
  8
0
 10
46.551
 11
45.663
 20
-112.719
 21
-111.732
  0
LINE
  8
0
 10
45.663
 11
44.999
 20
-111.732
 21
-110.583
  0
LINE
  8
0
 10
44.999
 11
44.589
 20
-110.583
 21
-109.32
  0
LINE
  8
0
 10
44.589
 11
44.45
 20
-109.32
 21
-108
  0
LINE
  8
0
 10
66.675
 11
66.744
 20
-76.2
 21
-75.54
  0
LINE
  8
0
 10
66.744
 11
66.949
 20
-75.54
 21
-74.909
  0
LINE
  8
0
 10
66.949
 11
67.281
 20
-74.909
 21
-74.334
  0
LINE
  8
0
 10
67.281
 11
67.726
 20
-74.334
 21
-73.841
  0
LINE
  8
0
 10
67.726
 11
68.263
 20
-73.841
 21
-73.45
  0
LINE
  8
0
 10
68.263
 11
68.869
 20
-73.45
 21
-73.18
  0
LINE
  8
0
 10
68.869
 11
69.518
 20
-73.18
 21
-73.042
  0
LINE
  8
0
 10
69.518
 11
70.182
 20
-73.042
 21
-73.042
  0
LINE
  8
0
 10
70.182
 11
70.831
 20
-73.042
 21
-73.18
  0
LINE
  8
0
 10
70.831
 11
71.437
 20
-73.18
 21
-73.45
  0
LINE
  8
0
 10
71.437
 11
71.974
 20
-73.45
 21
-73.841
  0
LINE
  8
0
 10
71.974
 11
72.419
 20
-73.841
 21
-74.334
  0
LINE
  8
0
 10
72.419
 11
72.751
 20
-74.334
 21
-74.909
  0
LINE
  8
0
 10
72.751
 11
72.956
 20
-74.909
 21
-75.54
  0
LINE
  8
0
 10
72.956
 11
73.025
 20
-75.54
 21
-76.2
  0
LINE
  8
0
 10
73.025
 11
72.956
 20
-76.2
 21
-76.86
  0
LINE
  8
0
 10
72.956
 11
72.751
 20
-76.86
 21
-77.491
  0
LINE
  8
0
 10
72.751
 11
72.419
 20
-77.491
 21
-78.066
  0
LINE
  8
0
 10
72.419
 11
71.974
 20
-78.066
 21
-78.559
  0
LINE
  8
0
 10
71.974
 11
71.437
 20
-78.559
 21
-78.95
  0
LINE
  8
0
 10
71.437
 11
70.831
 20
-78.95
 21
-79.22
  0
LINE
  8
0
 10
70.831
 11
70.182
 20
-79.22
 21
-79.358
  0
LINE
  8
0
 10
70.182
 11
69.518
 20
-79.358
 21
-79.358
  0
LINE
  8
0
 10
69.518
 11
68.869
 20
-79.358
 21
-79.22
  0
LINE
  8
0
 10
68.869
 11
68.263
 20
-79.22
 21
-78.95
  0
LINE
  8
0
 10
68.263
 11
67.726
 20
-78.95
 21
-78.559
  0
LINE
  8
0
 10
67.726
 11
67.281
 20
-78.559
 21
-78.066
  0
LINE
  8
0
 10
67.281
 11
66.949
 20
-78.066
 21
-77.491
  0
LINE
  8
0
 10
66.949
 11
66.744
 20
-77.491
 21
-76.86
  0
LINE
  8
0
 10
66.744
 11
66.675
 20
-76.86
 21
-76.2
  0
LINE
  8
0
 10
101.6
 11
101.878
 20
114.3
 21
116.94
  0
LINE
  8
0
 10
101.878
 11
102.698
 20
116.94
 21
119.466
  0
LINE
  8
0
 10
102.698
 11
104.025
 20
119.466
 21
121.765
  0
LINE
  8
0
 10
104.025
 11
105.802
 20
121.765
 21
123.738
  0
LINE
  8
0
 10
105.802
 11
107.95
 20
123.738
 21
125.299
  0
LINE
  8
0
 10
107.95
 11
110.375
 20
125.299
 21
126.378
  0
LINE
  8
0
 10
110.375
 11
112.972
 20
126.378
 21
126.93
  0
LINE
  8
0
 10
112.972
 11
115.628
 20
126.93
 21
126.93
  0
LINE
  8
0
 10
115.628
 11
118.225
 20
126.93
 21
126.378
  0
LINE
  8
0
 10
118.225
 11
120.65
 20
126.378
 21
125.299
  0
LINE
  8
0
 10
120.65
 11
122.798
 20
125.299
 21
123.738
  0
LINE
  8
0
 10
122.798
 11
124.575
 20
123.738
 21
121.765
  0
LINE
  8
0
 10
124.575
 11
125.902
 20
121.765
 21
119.466
  0
LINE
  8
0
 10
125.902
 11
126.722
 20
119.466
 21
116.94
  0
LINE
  8
0
 10
126.722
 11
127
 20
116.94
 21
114.3
  0
LINE
  8
0
 10
127
 11
126.722
 20
114.3
 21
111.66
  0
LINE
  8
0
 10
126.722
 11
125.902
 20
111.66
 21
109.134
  0
LINE
  8
0
 10
125.902
 11
124.575
 20
109.134
 21
106.835
  0
LINE
  8
0
 10
124.575
 11
122.798
 20
106.835
 21
104.862
  0
LINE
  8
0
 10
122.798
 11
120.65
 20
104.862
 21
103.301
  0
LINE
  8
0
 10
120.65
 11
118.225
 20
103.301
 21
102.222
  0
LINE
  8
0
 10
118.225
 11
115.628
 20
102.222
 21
101.67
  0
LINE
  8
0
 10
115.628
 11
112.972
 20
101.67
 21
101.67
  0
LINE
  8
0
 10
112.972
 11
110.375
 20
101.67
 21
102.222
  0
LINE
  8
0
 10
110.375
 11
107.95
 20
102.222
 21
103.301
  0
LINE
  8
0
 10
107.95
 11
105.802
 20
103.301
 21
104.862
  0
LINE
  8
0
 10
105.802
 11
104.025
 20
104.862
 21
106.835
  0
LINE
  8
0
 10
104.025
 11
102.698
 20
106.835
 21
109.134
  0
LINE
  8
0
 10
102.698
 11
101.878
 20
109.134
 21
111.66
  0
LINE
  8
0
 10
101.878
 11
101.6
 20
111.66
 21
114.3
  0
LINE
  8
0
 10
112.823
 11
137.571
 20
-137.571
 21
-112.823
  0
LINE
  8
0
 10
137.571
 11
141.177
 20
-112.823
 21
-116.429
  0
LINE
  8
0
 10
141.177
 11
116.429
 20
-116.429
 21
-141.177
  0
LINE
  8
0
 10
116.429
 11
112.823
 20
-141.177
 21
-137.571
  0
LINE
  8
0
 10
138.112
 11
138.182
 20
-152.4
 21
-151.74
  0
LINE
  8
0
 10
138.182
 11
138.386
 20
-151.74
 21
-151.109
  0
LINE
  8
0
 10
138.386
 11
138.719
 20
-151.109
 21
-150.534
  0
LINE
  8
0
 10
138.719
 11
139.164
 20
-150.534
 21
-150.041
  0
LINE
  8
0
 10
139.164
 11
139.701
 20
-150.041
 21
-149.65
  0
LINE
  8
0
 10
139.701
 11
140.307
 20
-149.65
 21
-149.38
  0
LINE
  8
0
 10
140.307
 11
140.956
 20
-149.38
 21
-149.242
  0
LINE
  8
0
 10
140.956
 11
141.619
 20
-149.242
 21
-149.242
  0
LINE
  8
0
 10
141.619
 11
142.269
 20
-149.242
 21
-149.38
  0
LINE
  8
0
 10
142.269
 11
142.874
 20
-149.38
 21
-149.65
  0
LINE
  8
0
 10
142.874
 11
143.412
 20
-149.65
 21
-150.041
  0
LINE
  8
0
 10
143.412
 11
143.856
 20
-150.041
 21
-150.534
  0
LINE
  8
0
 10
143.856
 11
144.189
 20
-150.534
 21
-151.109
  0
LINE
  8
0
 10
144.189
 11
144.394
 20
-151.109
 21
-151.74
  0
LINE
  8
0
 10
144.394
 11
144.463
 20
-151.74
 21
-152.4
  0
LINE
  8
0
 10
144.463
 11
144.394
 20
-152.4
 21
-153.06
  0
LINE
  8
0
 10
144.394
 11
144.189
 20
-153.06
 21
-153.691
  0
LINE
  8
0
 10
144.189
 11
143.856
 20
-153.691
 21
-154.266
  0
LINE
  8
0
 10
143.856
 11
143.412
 20
-154.266
 21
-154.759
  0
LINE
  8
0
 10
143.412
 11
142.874
 20
-154.759
 21
-155.15
  0
LINE
  8
0
 10
142.874
 11
142.269
 20
-155.15
 21
-155.42
  0
LINE
  8
0
 10
142.269
 11
141.619
 20
-155.42
 21
-155.558
  0
LINE
  8
0
 10
141.619
 11
140.956
 20
-155.558
 21
-155.558
  0
LINE
  8
0
 10
140.956
 11
140.307
 20
-155.558
 21
-155.42
  0
LINE
  8
0
 10
140.307
 11
139.701
 20
-155.42
 21
-155.15
  0
LINE
  8
0
 10
139.701
 11
139.164
 20
-155.15
 21
-154.759
  0
LINE
  8
0
 10
139.164
 11
138.719
 20
-154.759
 21
-154.266
  0
LINE
  8
0
 10
138.719
 11
138.386
 20
-154.266
 21
-153.691
  0
LINE
  8
0
 10
138.386
 11
138.182
 20
-153.691
 21
-153.06
  0
LINE
  8
0
 10
138.182
 11
138.112
 20
-153.06
 21
-152.4
  0
ENDSEC
  0
SECTION
  2
OBJECTS
  0
DICTIONARY
  0
ENDSEC
  0
EOF
