  0
SECTION
  2
BLOCKS
  0
ENDSEC
  0
SECTION
  2
ENTITIES
  0
LINE
  8
0
 10
-195.072
 11
-195.072
 20
-203.2
 21
203.2
  0
LINE
  8
0
 10
-195.072
 11
195.072
 20
203.2
 21
203.2
  0
LINE
  8
0
 10
195.072
 11
195.072
 20
203.2
 21
-203.2
  0
LINE
  8
0
 10
195.072
 11
-195.072
 20
-203.2
 21
-203.2
  0
LINE
  8
0
 10
-144.8
 11
-144.134
 20
-114.3
 21
-107.959
  0
LINE
  8
0
 10
-144.134
 11
-142.163
 20
-107.959
 21
-101.895
  0
LINE
  8
0
 10
-142.163
 11
-138.975
 20
-101.895
 21
-96.373
  0
LINE
  8
0
 10
-138.975
 11
-134.708
 20
-96.373
 21
-91.634
  0
LINE
  8
0
 10
-134.708
 11
-129.55
 20
-91.634
 21
-87.886
  0
LINE
  8
0
 10
-129.55
 11
-123.725
 20
-87.886
 21
-85.293
  0
LINE
  8
0
 10
-123.725
 11
-117.488
 20
-85.293
 21
-83.967
  0
LINE
  8
0
 10
-117.488
 11
-111.112
 20
-83.967
 21
-83.967
  0
LINE
  8
0
 10
-111.112
 11
-104.875
 20
-83.967
 21
-85.293
  0
LINE
  8
0
 10
-104.875
 11
-99.05
 20
-85.293
 21
-87.886
  0
LINE
  8
0
 10
-99.05
 11
-93.892
 20
-87.886
 21
-91.634
  0
LINE
  8
0
 10
-93.892
 11
-89.625
 20
-91.634
 21
-96.373
  0
LINE
  8
0
 10
-89.625
 11
-86.437
 20
-96.373
 21
-101.895
  0
LINE
  8
0
 10
-86.437
 11
-84.466
 20
-101.895
 21
-107.959
  0
LINE
  8
0
 10
-84.466
 11
-83.8
 20
-107.959
 21
-114.3
  0
LINE
  8
0
 10
-83.8
 11
-84.466
 20
-114.3
 21
-120.641
  0
LINE
  8
0
 10
-84.466
 11
-86.437
 20
-120.641
 21
-126.705
  0
LINE
  8
0
 10
-86.437
 11
-89.625
 20
-126.705
 21
-132.227
  0
LINE
  8
0
 10
-89.625
 11
-93.892
 20
-132.227
 21
-136.966
  0
LINE
  8
0
 10
-93.892
 11
-99.05
 20
-136.966
 21
-140.714
  0
LINE
  8
0
 10
-99.05
 11
-104.875
 20
-140.714
 21
-143.307
  0
LINE
  8
0
 10
-104.875
 11
-111.112
 20
-143.307
 21
-144.633
  0
LINE
  8
0
 10
-111.112
 11
-117.488
 20
-144.633
 21
-144.633
  0
LINE
  8
0
 10
-117.488
 11
-123.725
 20
-144.633
 21
-143.307
  0
LINE
  8
0
 10
-123.725
 11
-129.55
 20
-143.307
 21
-140.714
  0
LINE
  8
0
 10
-129.55
 11
-134.708
 20
-140.714
 21
-136.966
  0
LINE
  8
0
 10
-134.708
 11
-138.975
 20
-136.966
 21
-132.227
  0
LINE
  8
0
 10
-138.975
 11
-142.163
 20
-132.227
 21
-126.705
  0
LINE
  8
0
 10
-142.163
 11
-144.134
 20
-126.705
 21
-120.641
  0
LINE
  8
0
 10
-144.134
 11
-144.8
 20
-120.641
 21
-114.3
  0
LINE
  8
0
 10
-141.177
 11
-116.429
 20
116.429
 21
141.177
  0
LINE
  8
0
 10
-116.429
 11
-112.823
 20
141.177
 21
137.571
  0
LINE
  8
0
 10
-112.823
 11
-137.571
 20
137.571
 21
112.823
  0
LINE
  8
0
 10
-137.571
 11
-141.177
 20
112.823
 21
116.429
  0
LINE
  8
0
 10
-139.225
 11
-139.155
 20
152.4
 21
153.071
  0
LINE
  8
0
 10
-139.155
 11
-138.946
 20
153.071
 21
153.712
  0
LINE
  8
0
 10
-138.946
 11
-138.609
 20
153.712
 21
154.296
  0
LINE
  8
0
 10
-138.609
 11
-138.158
 20
154.296
 21
154.797
  0
LINE
  8
0
 10
-138.158
 11
-137.612
 20
154.797
 21
155.193
  0
LINE
  8
0
 10
-137.612
 11
-136.997
 20
155.193
 21
155.467
  0
LINE
  8
0
 10
-136.997
 11
-136.337
 20
155.467
 21
155.607
  0
LINE
  8
0
 10
-136.337
 11
-135.663
 20
155.607
 21
155.607
  0
LINE
  8
0
 10
-135.663
 11
-135.003
 20
155.607
 21
155.467
  0
LINE
  8
0
 10
-135.003
 11
-134.388
 20
155.467
 21
155.193
  0
LINE
  8
0
 10
-134.388
 11
-133.842
 20
155.193
 21
154.797
  0
LINE
  8
0
 10
-133.842
 11
-133.391
 20
154.797
 21
154.296
  0
LINE
  8
0
 10
-133.391
 11
-133.054
 20
154.296
 21
153.712
  0
LINE
  8
0
 10
-133.054
 11
-132.845
 20
153.712
 21
153.071
  0
LINE
  8
0
 10
-132.845
 11
-132.775
 20
153.071
 21
152.4
  0
LINE
  8
0
 10
-132.775
 11
-132.845
 20
152.4
 21
151.729
  0
LINE
  8
0
 10
-132.845
 11
-133.054
 20
151.729
 21
151.088
  0
LINE
  8
0
 10
-133.054
 11
-133.391
 20
151.088
 21
150.504
  0
LINE
  8
0
 10
-133.391
 11
-133.842
 20
150.504
 21
150.003
  0
LINE
  8
0
 10
-133.842
 11
-134.388
 20
150.003
 21
149.607
  0
LINE
  8
0
 10
-134.388
 11
-135.003
 20
149.607
 21
149.333
  0
LINE
  8
0
 10
-135.003
 11
-135.663
 20
149.333
 21
149.193
  0
LINE
  8
0
 10
-135.663
 11
-136.337
 20
149.193
 21
149.193
  0
LINE
  8
0
 10
-136.337
 11
-136.997
 20
149.193
 21
149.333
  0
LINE
  8
0
 10
-136.997
 11
-137.612
 20
149.333
 21
149.607
  0
LINE
  8
0
 10
-137.612
 11
-138.158
 20
149.607
 21
150.003
  0
LINE
  8
0
 10
-138.158
 11
-138.609
 20
150.003
 21
150.504
  0
LINE
  8
0
 10
-138.609
 11
-138.946
 20
150.504
 21
151.088
  0
LINE
  8
0
 10
-138.946
 11
-139.155
 20
151.088
 21
151.729
  0
LINE
  8
0
 10
-139.155
 11
-139.225
 20
151.729
 21
152.4
  0
LINE
  8
0
 10
-85.95
 11
-85.95
 20
127
 21
177.8
  0
LINE
  8
0
 10
-85.95
 11
-75.45
 20
177.8
 21
177.8
  0
LINE
  8
0
 10
-75.45
 11
-75.45
 20
177.8
 21
127
  0
LINE
  8
0
 10
-75.45
 11
-85.95
 20
127
 21
127
  0
LINE
  8
0
 10
-78.351
 11
-64.209
 20
72.909
 21
87.051
  0
LINE
  8
0
 10
-64.209
 11
-59.649
 20
87.051
 21
82.491
  0
LINE
  8
0
 10
-59.649
 11
-73.791
 20
82.491
 21
68.349
  0
LINE
  8
0
 10
-73.791
 11
-78.351
 20
68.349
 21
72.909
  0
LINE
  8
0
 10
-57.15
 11
-57.011
 20
108
 21
109.32
  0
LINE
  8
0
 10
-57.011
 11
-56.601
 20
109.32
 21
110.583
  0
LINE
  8
0
 10
-56.601
 11
-55.937
 20
110.583
 21
111.732
  0
LINE
  8
0
 10
-55.937
 11
-55.049
 20
111.732
 21
112.719
  0
LINE
  8
0
 10
-55.049
 11
-53.975
 20
112.719
 21
113.499
  0
LINE
  8
0
 10
-53.975
 11
-52.762
 20
113.499
 21
114.039
  0
LINE
  8
0
 10
-52.762
 11
-51.464
 20
114.039
 21
114.315
  0
LINE
  8
0
 10
-51.464
 11
-50.136
 20
114.315
 21
114.315
  0
LINE
  8
0
 10
-50.136
 11
-48.838
 20
114.315
 21
114.039
  0
LINE
  8
0
 10
-48.838
 11
-47.625
 20
114.039
 21
113.499
  0
LINE
  8
0
 10
-47.625
 11
-46.551
 20
113.499
 21
112.719
  0
LINE
  8
0
 10
-46.551
 11
-45.663
 20
112.719
 21
111.732
  0
LINE
  8
0
 10
-45.663
 11
-44.999
 20
111.732
 21
110.583
  0
LINE
  8
0
 10
-44.999
 11
-44.589
 20
110.583
 21
109.32
  0
LINE
  8
0
 10
-44.589
 11
-44.45
 20
109.32
 21
108
  0
LINE
  8
0
 10
-44.45
 11
-44.589
 20
108
 21
106.68
  0
LINE
  8
0
 10
-44.589
 11
-44.999
 20
106.68
 21
105.417
  0
LINE
  8
0
 10
-44.999
 11
-45.663
 20
105.417
 21
104.268
  0
LINE
  8
0
 10
-45.663
 11
-46.551
 20
104.268
 21
103.281
  0
LINE
  8
0
 10
-46.551
 11
-47.625
 20
103.281
 21
102.501
  0
LINE
  8
0
 10
-47.625
 11
-48.838
 20
102.501
 21
101.961
  0
LINE
  8
0
 10
-48.838
 11
-50.136
 20
101.961
 21
101.685
  0
LINE
  8
0
 10
-50.136
 11
-51.464
 20
101.685
 21
101.685
  0
LINE
  8
0
 10
-51.464
 11
-52.762
 20
101.685
 21
101.961
  0
LINE
  8
0
 10
-52.762
 11
-53.975
 20
101.961
 21
102.501
  0
LINE
  8
0
 10
-53.975
 11
-55.049
 20
102.501
 21
103.281
  0
LINE
  8
0
 10
-55.049
 11
-55.937
 20
103.281
 21
104.268
  0
LINE
  8
0
 10
-55.937
 11
-56.601
 20
104.268
 21
105.417
  0
LINE
  8
0
 10
-56.601
 11
-57.011
 20
105.417
 21
106.68
  0
LINE
  8
0
 10
-57.011
 11
-57.15
 20
106.68
 21
108
  0
LINE
  8
0
 10
-43.254
 11
-14.97
 20
-35.83
 21
-7.546
  0
LINE
  8
0
 10
-14.97
 11
-7.546
 20
-7.546
 21
-14.97
  0
LINE
  8
0
 10
-7.546
 11
-35.83
 20
-14.97
 21
-43.254
  0
LINE
  8
0
 10
-35.83
 11
-43.254
 20
-43.254
 21
-35.83
  0
LINE
  8
0
 10
-36.35
 11
-36.211
 20
65
 21
66.32
  0
LINE
  8
0
 10
-36.211
 11
-35.801
 20
66.32
 21
67.583
  0
LINE
  8
0
 10
-35.801
 11
-35.137
 20
67.583
 21
68.732
  0
LINE
  8
0
 10
-35.137
 11
-34.249
 20
68.732
 21
69.719
  0
LINE
  8
0
 10
-34.249
 11
-33.175
 20
69.719
 21
70.499
  0
LINE
  8
0
 10
-33.175
 11
-31.962
 20
70.499
 21
71.039
  0
LINE
  8
0
 10
-31.962
 11
-30.664
 20
71.039
 21
71.315
  0
LINE
  8
0
 10
-30.664
 11
-29.336
 20
71.315
 21
71.315
  0
LINE
  8
0
 10
-29.336
 11
-28.038
 20
71.315
 21
71.039
  0
LINE
  8
0
 10
-28.038
 11
-26.825
 20
71.039
 21
70.499
  0
LINE
  8
0
 10
-26.825
 11
-25.751
 20
70.499
 21
69.719
  0
LINE
  8
0
 10
-25.751
 11
-24.863
 20
69.719
 21
68.732
  0
LINE
  8
0
 10
-24.863
 11
-24.199
 20
68.732
 21
67.583
  0
LINE
  8
0
 10
-24.199
 11
-23.789
 20
67.583
 21
66.32
  0
LINE
  8
0
 10
-23.789
 11
-23.65
 20
66.32
 21
65
  0
LINE
  8
0
 10
-23.65
 11
-23.789
 20
65
 21
63.68
  0
LINE
  8
0
 10
-23.789
 11
-24.199
 20
63.68
 21
62.417
  0
LINE
  8
0
 10
-24.199
 11
-24.863
 20
62.417
 21
61.268
  0
LINE
  8
0
 10
-24.863
 11
-25.751
 20
61.268
 21
60.281
  0
LINE
  8
0
 10
-25.751
 11
-26.825
 20
60.281
 21
59.501
  0
LINE
  8
0
 10
-26.825
 11
-28.038
 20
59.501
 21
58.961
  0
LINE
  8
0
 10
-28.038
 11
-29.336
 20
58.961
 21
58.685
  0
LINE
  8
0
 10
-29.336
 11
-30.664
 20
58.685
 21
58.685
  0
LINE
  8
0
 10
-30.664
 11
-31.962
 20
58.685
 21
58.961
  0
LINE
  8
0
 10
-31.962
 11
-33.175
 20
58.961
 21
59.501
  0
LINE
  8
0
 10
-33.175
 11
-34.249
 20
59.501
 21
60.281
  0
LINE
  8
0
 10
-34.249
 11
-35.137
 20
60.281
 21
61.268
  0
LINE
  8
0
 10
-35.137
 11
-35.801
 20
61.268
 21
62.417
  0
LINE
  8
0
 10
-35.801
 11
-36.211
 20
62.417
 21
63.68
  0
LINE
  8
0
 10
-36.211
 11
-36.35
 20
63.68
 21
65
  0
LINE
  8
0
 10
-28.625
 11
-28.555
 20
152.4
 21
153.071
  0
LINE
  8
0
 10
-28.555
 11
-28.346
 20
153.071
 21
153.712
  0
LINE
  8
0
 10
-28.346
 11
-28.009
 20
153.712
 21
154.296
  0
LINE
  8
0
 10
-28.009
 11
-27.558
 20
154.296
 21
154.797
  0
LINE
  8
0
 10
-27.558
 11
-27.012
 20
154.797
 21
155.193
  0
LINE
  8
0
 10
-27.012
 11
-26.397
 20
155.193
 21
155.467
  0
LINE
  8
0
 10
-26.397
 11
-25.737
 20
155.467
 21
155.607
  0
LINE
  8
0
 10
-25.737
 11
-25.063
 20
155.607
 21
155.607
  0
LINE
  8
0
 10
-25.063
 11
-24.403
 20
155.607
 21
155.467
  0
LINE
  8
0
 10
-24.403
 11
-23.788
 20
155.467
 21
155.193
  0
LINE
  8
0
 10
-23.788
 11
-23.242
 20
155.193
 21
154.797
  0
LINE
  8
0
 10
-23.242
 11
-22.791
 20
154.797
 21
154.296
  0
LINE
  8
0
 10
-22.791
 11
-22.454
 20
154.296
 21
153.712
  0
LINE
  8
0
 10
-22.454
 11
-22.245
 20
153.712
 21
153.071
  0
LINE
  8
0
 10
-22.245
 11
-22.175
 20
153.071
 21
152.4
  0
LINE
  8
0
 10
-22.175
 11
-22.245
 20
152.4
 21
151.729
  0
LINE
  8
0
 10
-22.245
 11
-22.454
 20
151.729
 21
151.088
  0
LINE
  8
0
 10
-22.454
 11
-22.791
 20
151.088
 21
150.504
  0
LINE
  8
0
 10
-22.791
 11
-23.242
 20
150.504
 21
150.003
  0
LINE
  8
0
 10
-23.242
 11
-23.788
 20
150.003
 21
149.607
  0
LINE
  8
0
 10
-23.788
 11
-24.403
 20
149.607
 21
149.333
  0
LINE
  8
0
 10
-24.403
 11
-25.063
 20
149.333
 21
149.193
  0
LINE
  8
0
 10
-25.063
 11
-25.737
 20
149.193
 21
149.193
  0
LINE
  8
0
 10
-25.737
 11
-26.397
 20
149.193
 21
149.333
  0
LINE
  8
0
 10
-26.397
 11
-27.012
 20
149.333
 21
149.607
  0
LINE
  8
0
 10
-27.012
 11
-27.558
 20
149.607
 21
150.003
  0
LINE
  8
0
 10
-27.558
 11
-28.009
 20
150.003
 21
150.504
  0
LINE
  8
0
 10
-28.009
 11
-28.346
 20
150.504
 21
151.088
  0
LINE
  8
0
 10
-28.346
 11
-28.555
 20
151.088
 21
151.729
  0
LINE
  8
0
 10
-28.555
 11
-28.625
 20
151.729
 21
152.4
  0
LINE
  8
0
 10
-27.551
 11
-13.409
 20
22.109
 21
36.251
  0
LINE
  8
0
 10
-13.409
 11
-8.849
 20
36.251
 21
31.691
  0
LINE
  8
0
 10
-8.849
 11
-22.991
 20
31.691
 21
17.549
  0
LINE
  8
0
 10
-22.991
 11
-27.551
 20
17.549
 21
22.109
  0
LINE
  8
0
 10
-10.225
 11
-10.155
 20
92
 21
92.671
  0
LINE
  8
0
 10
-10.155
 11
-9.946
 20
92.671
 21
93.312
  0
LINE
  8
0
 10
-9.946
 11
-9.609
 20
93.312
 21
93.896
  0
LINE
  8
0
 10
-9.609
 11
-9.158
 20
93.896
 21
94.397
  0
LINE
  8
0
 10
-9.158
 11
-8.612
 20
94.397
 21
94.793
  0
LINE
  8
0
 10
-8.612
 11
-7.997
 20
94.793
 21
95.067
  0
LINE
  8
0
 10
-7.997
 11
-7.337
 20
95.067
 21
95.207
  0
LINE
  8
0
 10
-7.337
 11
-6.663
 20
95.207
 21
95.207
  0
LINE
  8
0
 10
-6.663
 11
-6.003
 20
95.207
 21
95.067
  0
LINE
  8
0
 10
-6.003
 11
-5.388
 20
95.067
 21
94.793
  0
LINE
  8
0
 10
-5.388
 11
-4.842
 20
94.793
 21
94.397
  0
LINE
  8
0
 10
-4.842
 11
-4.391
 20
94.397
 21
93.896
  0
LINE
  8
0
 10
-4.391
 11
-4.054
 20
93.896
 21
93.312
  0
LINE
  8
0
 10
-4.054
 11
-3.845
 20
93.312
 21
92.671
  0
LINE
  8
0
 10
-3.845
 11
-3.775
 20
92.671
 21
92
  0
LINE
  8
0
 10
-3.775
 11
-3.845
 20
92
 21
91.329
  0
LINE
  8
0
 10
-3.845
 11
-4.054
 20
91.329
 21
90.688
  0
LINE
  8
0
 10
-4.054
 11
-4.391
 20
90.688
 21
90.104
  0
LINE
  8
0
 10
-4.391
 11
-4.842
 20
90.104
 21
89.603
  0
LINE
  8
0
 10
-4.842
 11
-5.388
 20
89.603
 21
89.207
  0
LINE
  8
0
 10
-5.388
 11
-6.003
 20
89.207
 21
88.933
  0
LINE
  8
0
 10
-6.003
 11
-6.663
 20
88.933
 21
88.793
  0
LINE
  8
0
 10
-6.663
 11
-7.337
 20
88.793
 21
88.793
  0
LINE
  8
0
 10
-7.337
 11
-7.997
 20
88.793
 21
88.933
  0
LINE
  8
0
 10
-7.997
 11
-8.612
 20
88.933
 21
89.207
  0
LINE
  8
0
 10
-8.612
 11
-9.158
 20
89.207
 21
89.603
  0
LINE
  8
0
 10
-9.158
 11
-9.609
 20
89.603
 21
90.104
  0
LINE
  8
0
 10
-9.609
 11
-9.946
 20
90.104
 21
90.688
  0
LINE
  8
0
 10
-9.946
 11
-10.155
 20
90.688
 21
91.329
  0
LINE
  8
0
 10
-10.155
 11
-10.225
 20
91.329
 21
92
  0
LINE
  8
0
 10
3.775
 11
3.845
 20
-92
 21
-91.329
  0
LINE
  8
0
 10
3.845
 11
4.054
 20
-91.329
 21
-90.688
  0
LINE
  8
0
 10
4.054
 11
4.391
 20
-90.688
 21
-90.104
  0
LINE
  8
0
 10
4.391
 11
4.842
 20
-90.104
 21
-89.603
  0
LINE
  8
0
 10
4.842
 11
5.388
 20
-89.603
 21
-89.207
  0
LINE
  8
0
 10
5.388
 11
6.003
 20
-89.207
 21
-88.933
  0
LINE
  8
0
 10
6.003
 11
6.663
 20
-88.933
 21
-88.793
  0
LINE
  8
0
 10
6.663
 11
7.337
 20
-88.793
 21
-88.793
  0
LINE
  8
0
 10
7.337
 11
7.997
 20
-88.793
 21
-88.933
  0
LINE
  8
0
 10
7.997
 11
8.612
 20
-88.933
 21
-89.207
  0
LINE
  8
0
 10
8.612
 11
9.158
 20
-89.207
 21
-89.603
  0
LINE
  8
0
 10
9.158
 11
9.609
 20
-89.603
 21
-90.104
  0
LINE
  8
0
 10
9.609
 11
9.946
 20
-90.104
 21
-90.688
  0
LINE
  8
0
 10
9.946
 11
10.155
 20
-90.688
 21
-91.329
  0
LINE
  8
0
 10
10.155
 11
10.225
 20
-91.329
 21
-92
  0
LINE
  8
0
 10
10.225
 11
10.155
 20
-92
 21
-92.671
  0
LINE
  8
0
 10
10.155
 11
9.946
 20
-92.671
 21
-93.312
  0
LINE
  8
0
 10
9.946
 11
9.609
 20
-93.312
 21
-93.896
  0
LINE
  8
0
 10
9.609
 11
9.158
 20
-93.896
 21
-94.397
  0
LINE
  8
0
 10
9.158
 11
8.612
 20
-94.397
 21
-94.793
  0
LINE
  8
0
 10
8.612
 11
7.997
 20
-94.793
 21
-95.067
  0
LINE
  8
0
 10
7.997
 11
7.337
 20
-95.067
 21
-95.207
  0
LINE
  8
0
 10
7.337
 11
6.663
 20
-95.207
 21
-95.207
  0
LINE
  8
0
 10
6.663
 11
6.003
 20
-95.207
 21
-95.067
  0
LINE
  8
0
 10
6.003
 11
5.388
 20
-95.067
 21
-94.793
  0
LINE
  8
0
 10
5.388
 11
4.842
 20
-94.793
 21
-94.397
  0
LINE
  8
0
 10
4.842
 11
4.391
 20
-94.397
 21
-93.896
  0
LINE
  8
0
 10
4.391
 11
4.054
 20
-93.896
 21
-93.312
  0
LINE
  8
0
 10
4.054
 11
3.845
 20
-93.312
 21
-92.671
  0
LINE
  8
0
 10
3.845
 11
3.775
 20
-92.671
 21
-92
  0
LINE
  8
0
 10
7.546
 11
35.83
 20
14.97
 21
43.254
  0
LINE
  8
0
 10
35.83
 11
43.254
 20
43.254
 21
35.83
  0
LINE
  8
0
 10
43.254
 11
14.97
 20
35.83
 21
7.546
  0
LINE
  8
0
 10
14.97
 11
7.546
 20
7.546
 21
14.97
  0
LINE
  8
0
 10
8.849
 11
22.991
 20
-31.691
 21
-17.549
  0
LINE
  8
0
 10
22.991
 11
27.551
 20
-17.549
 21
-22.109
  0
LINE
  8
0
 10
27.551
 11
13.409
 20
-22.109
 21
-36.251
  0
LINE
  8
0
 10
13.409
 11
8.849
 20
-36.251
 21
-31.691
  0
LINE
  8
0
 10
23.65
 11
23.789
 20
-65
 21
-63.68
  0
LINE
  8
0
 10
23.789
 11
24.199
 20
-63.68
 21
-62.417
  0
LINE
  8
0
 10
24.199
 11
24.863
 20
-62.417
 21
-61.268
  0
LINE
  8
0
 10
24.863
 11
25.751
 20
-61.268
 21
-60.281
  0
LINE
  8
0
 10
25.751
 11
26.825
 20
-60.281
 21
-59.501
  0
LINE
  8
0
 10
26.825
 11
28.038
 20
-59.501
 21
-58.961
  0
LINE
  8
0
 10
28.038
 11
29.336
 20
-58.961
 21
-58.685
  0
LINE
  8
0
 10
29.336
 11
30.664
 20
-58.685
 21
-58.685
  0
LINE
  8
0
 10
30.664
 11
31.962
 20
-58.685
 21
-58.961
  0
LINE
  8
0
 10
31.962
 11
33.175
 20
-58.961
 21
-59.501
  0
LINE
  8
0
 10
33.175
 11
34.249
 20
-59.501
 21
-60.281
  0
LINE
  8
0
 10
34.249
 11
35.137
 20
-60.281
 21
-61.268
  0
LINE
  8
0
 10
35.137
 11
35.801
 20
-61.268
 21
-62.417
  0
LINE
  8
0
 10
35.801
 11
36.211
 20
-62.417
 21
-63.68
  0
LINE
  8
0
 10
36.211
 11
36.35
 20
-63.68
 21
-65
  0
LINE
  8
0
 10
36.35
 11
36.211
 20
-65
 21
-66.32
  0
LINE
  8
0
 10
36.211
 11
35.801
 20
-66.32
 21
-67.583
  0
LINE
  8
0
 10
35.801
 11
35.137
 20
-67.583
 21
-68.732
  0
LINE
  8
0
 10
35.137
 11
34.249
 20
-68.732
 21
-69.719
  0
LINE
  8
0
 10
34.249
 11
33.175
 20
-69.719
 21
-70.499
  0
LINE
  8
0
 10
33.175
 11
31.962
 20
-70.499
 21
-71.039
  0
LINE
  8
0
 10
31.962
 11
30.664
 20
-71.039
 21
-71.315
  0
LINE
  8
0
 10
30.664
 11
29.336
 20
-71.315
 21
-71.315
  0
LINE
  8
0
 10
29.336
 11
28.038
 20
-71.315
 21
-71.039
  0
LINE
  8
0
 10
28.038
 11
26.825
 20
-71.039
 21
-70.499
  0
LINE
  8
0
 10
26.825
 11
25.751
 20
-70.499
 21
-69.719
  0
LINE
  8
0
 10
25.751
 11
24.863
 20
-69.719
 21
-68.732
  0
LINE
  8
0
 10
24.863
 11
24.199
 20
-68.732
 21
-67.583
  0
LINE
  8
0
 10
24.199
 11
23.789
 20
-67.583
 21
-66.32
  0
LINE
  8
0
 10
23.789
 11
23.65
 20
-66.32
 21
-65
  0
LINE
  8
0
 10
44.45
 11
44.589
 20
-108
 21
-106.68
  0
LINE
  8
0
 10
44.589
 11
44.999
 20
-106.68
 21
-105.417
  0
LINE
  8
0
 10
44.999
 11
45.663
 20
-105.417
 21
-104.268
  0
LINE
  8
0
 10
45.663
 11
46.551
 20
-104.268
 21
-103.281
  0
LINE
  8
0
 10
46.551
 11
47.625
 20
-103.281
 21
-102.501
  0
LINE
  8
0
 10
47.625
 11
48.838
 20
-102.501
 21
-101.961
  0
LINE
  8
0
 10
48.838
 11
50.136
 20
-101.961
 21
-101.685
  0
LINE
  8
0
 10
50.136
 11
51.464
 20
-101.685
 21
-101.685
  0
LINE
  8
0
 10
51.464
 11
52.762
 20
-101.685
 21
-101.961
  0
LINE
  8
0
 10
52.762
 11
53.975
 20
-101.961
 21
-102.501
  0
LINE
  8
0
 10
53.975
 11
55.049
 20
-102.501
 21
-103.281
  0
LINE
  8
0
 10
55.049
 11
55.937
 20
-103.281
 21
-104.268
  0
LINE
  8
0
 10
55.937
 11
56.601
 20
-104.268
 21
-105.417
  0
LINE
  8
0
 10
56.601
 11
57.011
 20
-105.417
 21
-106.68
  0
LINE
  8
0
 10
57.011
 11
57.15
 20
-106.68
 21
-108
  0
LINE
  8
0
 10
57.15
 11
57.011
 20
-108
 21
-109.32
  0
LINE
  8
0
 10
57.011
 11
56.601
 20
-109.32
 21
-110.583
  0
LINE
  8
0
 10
56.601
 11
55.937
 20
-110.583
 21
-111.732
  0
LINE
  8
0
 10
55.937
 11
55.049
 20
-111.732
 21
-112.719
  0
LINE
  8
0
 10
55.049
 11
53.975
 20
-112.719
 21
-113.499
  0
LINE
  8
0
 10
53.975
 11
52.762
 20
-113.499
 21
-114.039
  0
LINE
  8
0
 10
52.762
 11
51.464
 20
-114.039
 21
-114.315
  0
LINE
  8
0
 10
51.464
 11
50.136
 20
-114.315
 21
-114.315
  0
LINE
  8
0
 10
50.136
 11
48.838
 20
-114.315
 21
-114.039
  0
LINE
  8
0
 10
48.838
 11
47.625
 20
-114.039
 21
-113.499
  0
LINE
  8
0
 10
47.625
 11
46.551
 20
-113.499
 21
-112.719
  0
LINE
  8
0
 10
46.551
 11
45.663
 20
-112.719
 21
-111.732
  0
LINE
  8
0
 10
45.663
 11
44.999
 20
-111.732
 21
-110.583
  0
LINE
  8
0
 10
44.999
 11
44.589
 20
-110.583
 21
-109.32
  0
LINE
  8
0
 10
44.589
 11
44.45
 20
-109.32
 21
-108
  0
LINE
  8
0
 10
59.649
 11
73.791
 20
-82.491
 21
-68.349
  0
LINE
  8
0
 10
73.791
 11
78.351
 20
-68.349
 21
-72.909
  0
LINE
  8
0
 10
78.351
 11
64.209
 20
-72.909
 21
-87.051
  0
LINE
  8
0
 10
64.209
 11
59.649
 20
-87.051
 21
-82.491
  0
LINE
  8
0
 10
83.8
 11
84.466
 20
114.3
 21
120.641
  0
LINE
  8
0
 10
84.466
 11
86.437
 20
120.641
 21
126.705
  0
LINE
  8
0
 10
86.437
 11
89.625
 20
126.705
 21
132.227
  0
LINE
  8
0
 10
89.625
 11
93.892
 20
132.227
 21
136.966
  0
LINE
  8
0
 10
93.892
 11
99.05
 20
136.966
 21
140.714
  0
LINE
  8
0
 10
99.05
 11
104.875
 20
140.714
 21
143.307
  0
LINE
  8
0
 10
104.875
 11
111.112
 20
143.307
 21
144.633
  0
LINE
  8
0
 10
111.112
 11
117.488
 20
144.633
 21
144.633
  0
LINE
  8
0
 10
117.488
 11
123.725
 20
144.633
 21
143.307
  0
LINE
  8
0
 10
123.725
 11
129.55
 20
143.307
 21
140.714
  0
LINE
  8
0
 10
129.55
 11
134.708
 20
140.714
 21
136.966
  0
LINE
  8
0
 10
134.708
 11
138.975
 20
136.966
 21
132.227
  0
LINE
  8
0
 10
138.975
 11
142.163
 20
132.227
 21
126.705
  0
LINE
  8
0
 10
142.163
 11
144.134
 20
126.705
 21
120.641
  0
LINE
  8
0
 10
144.134
 11
144.8
 20
120.641
 21
114.3
  0
LINE
  8
0
 10
144.8
 11
144.134
 20
114.3
 21
107.959
  0
LINE
  8
0
 10
144.134
 11
142.163
 20
107.959
 21
101.895
  0
LINE
  8
0
 10
142.163
 11
138.975
 20
101.895
 21
96.373
  0
LINE
  8
0
 10
138.975
 11
134.708
 20
96.373
 21
91.634
  0
LINE
  8
0
 10
134.708
 11
129.55
 20
91.634
 21
87.886
  0
LINE
  8
0
 10
129.55
 11
123.725
 20
87.886
 21
85.293
  0
LINE
  8
0
 10
123.725
 11
117.488
 20
85.293
 21
83.967
  0
LINE
  8
0
 10
117.488
 11
111.112
 20
83.967
 21
83.967
  0
LINE
  8
0
 10
111.112
 11
104.875
 20
83.967
 21
85.293
  0
LINE
  8
0
 10
104.875
 11
99.05
 20
85.293
 21
87.886
  0
LINE
  8
0
 10
99.05
 11
93.892
 20
87.886
 21
91.634
  0
LINE
  8
0
 10
93.892
 11
89.625
 20
91.634
 21
96.373
  0
LINE
  8
0
 10
89.625
 11
86.437
 20
96.373
 21
101.895
  0
LINE
  8
0
 10
86.437
 11
84.466
 20
101.895
 21
107.959
  0
LINE
  8
0
 10
84.466
 11
83.8
 20
107.959
 21
114.3
  0
LINE
  8
0
 10
112.823
 11
137.571
 20
-137.571
 21
-112.823
  0
LINE
  8
0
 10
137.571
 11
141.177
 20
-112.823
 21
-116.429
  0
LINE
  8
0
 10
141.177
 11
116.429
 20
-116.429
 21
-141.177
  0
LINE
  8
0
 10
116.429
 11
112.823
 20
-141.177
 21
-137.571
  0
LINE
  8
0
 10
132.775
 11
132.845
 20
-152.4
 21
-151.729
  0
LINE
  8
0
 10
132.845
 11
133.054
 20
-151.729
 21
-151.088
  0
LINE
  8
0
 10
133.054
 11
133.391
 20
-151.088
 21
-150.504
  0
LINE
  8
0
 10
133.391
 11
133.842
 20
-150.504
 21
-150.003
  0
LINE
  8
0
 10
133.842
 11
134.388
 20
-150.003
 21
-149.607
  0
LINE
  8
0
 10
134.388
 11
135.003
 20
-149.607
 21
-149.333
  0
LINE
  8
0
 10
135.003
 11
135.663
 20
-149.333
 21
-149.193
  0
LINE
  8
0
 10
135.663
 11
136.337
 20
-149.193
 21
-149.193
  0
LINE
  8
0
 10
136.337
 11
136.997
 20
-149.193
 21
-149.333
  0
LINE
  8
0
 10
136.997
 11
137.612
 20
-149.333
 21
-149.607
  0
LINE
  8
0
 10
137.612
 11
138.158
 20
-149.607
 21
-150.003
  0
LINE
  8
0
 10
138.158
 11
138.609
 20
-150.003
 21
-150.504
  0
LINE
  8
0
 10
138.609
 11
138.946
 20
-150.504
 21
-151.088
  0
LINE
  8
0
 10
138.946
 11
139.155
 20
-151.088
 21
-151.729
  0
LINE
  8
0
 10
139.155
 11
139.225
 20
-151.729
 21
-152.4
  0
LINE
  8
0
 10
139.225
 11
139.155
 20
-152.4
 21
-153.071
  0
LINE
  8
0
 10
139.155
 11
138.946
 20
-153.071
 21
-153.712
  0
LINE
  8
0
 10
138.946
 11
138.609
 20
-153.712
 21
-154.296
  0
LINE
  8
0
 10
138.609
 11
138.158
 20
-154.296
 21
-154.797
  0
LINE
  8
0
 10
138.158
 11
137.612
 20
-154.797
 21
-155.193
  0
LINE
  8
0
 10
137.612
 11
136.997
 20
-155.193
 21
-155.467
  0
LINE
  8
0
 10
136.997
 11
136.337
 20
-155.467
 21
-155.607
  0
LINE
  8
0
 10
136.337
 11
135.663
 20
-155.607
 21
-155.607
  0
LINE
  8
0
 10
135.663
 11
135.003
 20
-155.607
 21
-155.467
  0
LINE
  8
0
 10
135.003
 11
134.388
 20
-155.467
 21
-155.193
  0
LINE
  8
0
 10
134.388
 11
133.842
 20
-155.193
 21
-154.797
  0
LINE
  8
0
 10
133.842
 11
133.391
 20
-154.797
 21
-154.296
  0
LINE
  8
0
 10
133.391
 11
133.054
 20
-154.296
 21
-153.712
  0
LINE
  8
0
 10
133.054
 11
132.845
 20
-153.712
 21
-153.071
  0
LINE
  8
0
 10
132.845
 11
132.775
 20
-153.071
 21
-152.4
  0
ENDSEC
  0
SECTION
  2
OBJECTS
  0
DICTIONARY
  0
ENDSEC
  0
EOF
