  0
SECTION
  2
HEADER
  9
$ACADVER
  1
AC1009
  9
$EXTMIN
  10
 0.000000
  20
 0.000000
  30
 0.000000
  9
$EXTMAX
  10
 129.000000
  20
 198.000000
  30
 0.000000
  0
ENDSEC
  0
SECTION
  2
TABLES
  0
TABLE
  2
LAYER
  70
     2048
  0
LAYER
  2
0
  70
    0
  62
     7
  6
CONTINUOUS
  0
LAYER
   2
C7
  70
     64
  62
7
  6
CONTINUOUS
  0
LAYER
   2
C18
  70
     64
  62
18
  6
CONTINUOUS
  0
ENDTAB
  0
ENDSEC
  0
SECTION
  2
ENTITIES
  0
POLYLINE
  8
C7
  66
1
  10
0.000000
  20
198.000000
  0
VERTEX
  8
C7
  10
0.000000
  20
198.000000
  0
SEQEND
  8
C7
  0
POLYLINE
  8
C7
  66
1
  10
0.000000
  20
198.000000
  0
VERTEX
  8
C7
  10
0.000000
  20
198.000000
  0
VERTEX
  8
C7
  10
0.000000
  20
0.000000
  0
VERTEX
  8
C7
  10
129.000000
  20
0.000000
  0
VERTEX
  8
C7
  10
129.000000
  20
198.000000
  0
VERTEX
  8
C7
  10
0.000000
  20
198.000000
  0
SEQEND
  8
C7
  0
POLYLINE
  8
C7
  66
1
  10
8.000000
  20
192.000000
  0
VERTEX
  8
C7
  10
8.000000
  20
192.000000
  0
VERTEX
  8
C7
  10
8.000000
  20
186.000000
  0
VERTEX
  8
C7
  10
75.000000
  20
186.000000
  0
VERTEX
  8
C7
  10
75.000000
  20
182.000000
  0
VERTEX
  8
C7
  10
75.681300
  20
181.990700
  0
VERTEX
  8
C7
  10
76.421500
  20
181.964200
  0
VERTEX
  8
C7
  10
77.216700
  20
181.922200
  0
VERTEX
  8
C7
  10
78.062800
  20
181.866400
  0
VERTEX
  8
C7
  10
78.955900
  20
181.798700
  0
VERTEX
  8
C7
  10
79.892200
  20
181.720800
  0
VERTEX
  8
C7
  10
80.867500
  20
181.634500
  0
VERTEX
  8
C7
  10
81.878000
  20
181.541500
  0
VERTEX
  8
C7
  10
82.919700
  20
181.443700
  0
VERTEX
  8
C7
  10
83.988600
  20
181.342700
  0
VERTEX
  8
C7
  10
85.080900
  20
181.240500
  0
VERTEX
  8
C7
  10
86.192400
  20
181.138700
  0
VERTEX
  8
C7
  10
87.319400
  20
181.039100
  0
VERTEX
  8
C7
  10
88.457800
  20
180.943500
  0
VERTEX
  8
C7
  10
89.603700
  20
180.853700
  0
VERTEX
  8
C7
  10
90.753000
  20
180.771400
  0
VERTEX
  8
C7
  10
91.902000
  20
180.698500
  0
VERTEX
  8
C7
  10
93.046500
  20
180.636600
  0
VERTEX
  8
C7
  10
94.182800
  20
180.587600
  0
VERTEX
  8
C7
  10
95.306700
  20
180.553300
  0
VERTEX
  8
C7
  10
96.414300
  20
180.535300
  0
VERTEX
  8
C7
  10
97.501800
  20
180.535500
  0
VERTEX
  8
C7
  10
98.565000
  20
180.555700
  0
VERTEX
  8
C7
  10
99.600200
  20
180.597600
  0
VERTEX
  8
C7
  10
100.603300
  20
180.663000
  0
VERTEX
  8
C7
  10
101.570300
  20
180.753700
  0
VERTEX
  8
C7
  10
102.497400
  20
180.871500
  0
VERTEX
  8
C7
  10
103.380500
  20
181.018000
  0
VERTEX
  8
C7
  10
104.215800
  20
181.195200
  0
VERTEX
  8
C7
  10
104.999200
  20
181.404700
  0
VERTEX
  8
C7
  10
105.726800
  20
181.648400
  0
VERTEX
  8
C7
  10
106.394600
  20
181.928000
  0
VERTEX
  8
C7
  10
106.998700
  20
182.245200
  0
VERTEX
  8
C7
  10
107.535100
  20
182.602000
  0
VERTEX
  8
C7
  10
108.000000
  20
183.000000
  0
VERTEX
  8
C7
  10
86.000000
  20
183.000000
  0
VERTEX
  8
C7
  10
86.000000
  20
186.000000
  0
VERTEX
  8
C7
  10
104.000000
  20
186.000000
  0
VERTEX
  8
C7
  10
104.000000
  20
191.000000
  0
VERTEX
  8
C7
  10
112.000000
  20
191.000000
  0
VERTEX
  8
C7
  10
112.000000
  20
192.000000
  0
VERTEX
  8
C7
  10
41.000000
  20
192.000000
  0
VERTEX
  8
C7
  10
41.000000
  20
191.000000
  0
VERTEX
  8
C7
  10
103.000000
  20
191.000000
  0
VERTEX
  8
C7
  10
103.000000
  20
187.000000
  0
VERTEX
  8
C7
  10
9.000000
  20
187.000000
  0
VERTEX
  8
C7
  10
9.000000
  20
191.000000
  0
VERTEX
  8
C7
  10
40.000000
  20
191.000000
  0
VERTEX
  8
C7
  10
8.000000
  20
192.000000
  0
SEQEND
  8
C7
  0
POLYLINE
  8
C7
  66
1
  10
113.000000
  20
191.000000
  0
VERTEX
  8
C7
  10
113.000000
  20
191.000000
  0
VERTEX
  8
C7
  10
114.000000
  20
190.000000
  0
VERTEX
  8
C7
  10
113.000000
  20
191.000000
  0
SEQEND
  8
C7
  0
POLYLINE
  8
C7
  66
1
  10
115.000000
  20
190.000000
  0
VERTEX
  8
C7
  10
115.000000
  20
190.000000
  0
VERTEX
  8
C7
  10
119.000000
  20
186.000000
  0
VERTEX
  8
C7
  10
115.000000
  20
190.000000
  0
SEQEND
  8
C7
  0
POLYLINE
  8
C7
  66
1
  10
76.000000
  20
186.000000
  0
VERTEX
  8
C7
  10
76.000000
  20
186.000000
  0
VERTEX
  8
C7
  10
76.000000
  20
183.000000
  0
VERTEX
  8
C7
  10
85.000000
  20
183.000000
  0
VERTEX
  8
C7
  10
85.000000
  20
186.000000
  0
VERTEX
  8
C7
  10
76.000000
  20
186.000000
  0
SEQEND
  8
C7
  0
POLYLINE
  8
C7
  66
1
  10
119.000000
  20
185.000000
  0
VERTEX
  8
C7
  10
119.000000
  20
185.000000
  0
VERTEX
  8
C7
  10
120.000000
  20
184.000000
  0
VERTEX
  8
C7
  10
119.000000
  20
185.000000
  0
SEQEND
  8
C7
  0
POLYLINE
  8
C7
  66
1
  10
110.000000
  20
183.000000
  0
VERTEX
  8
C7
  10
110.000000
  20
183.000000
  0
VERTEX
  8
C7
  10
110.290400
  20
181.775600
  0
VERTEX
  8
C7
  10
110.419100
  20
180.733100
  0
VERTEX
  8
C7
  10
110.376600
  20
179.866200
  0
VERTEX
  8
C7
  10
110.153600
  20
179.168500
  0
VERTEX
  8
C7
  10
109.740500
  20
178.633800
  0
VERTEX
  8
C7
  10
109.128100
  20
178.255900
  0
VERTEX
  8
C7
  10
108.306800
  20
178.028500
  0
VERTEX
  8
C7
  10
107.267200
  20
177.945300
  0
VERTEX
  8
C7
  10
106.000000
  20
178.000000
  0
VERTEX
  8
C7
  10
106.000000
  20
177.000000
  0
VERTEX
  8
C7
  10
106.967400
  20
176.832800
  0
VERTEX
  8
C7
  10
107.872900
  20
176.771400
  0
VERTEX
  8
C7
  10
108.707600
  20
176.809900
  0
VERTEX
  8
C7
  10
109.462800
  20
176.942700
  0
VERTEX
  8
C7
  10
110.129600
  20
177.164100
  0
VERTEX
  8
C7
  10
110.699200
  20
177.468500
  0
VERTEX
  8
C7
  10
111.162800
  20
177.850000
  0
VERTEX
  8
C7
  10
111.511700
  20
178.303100
  0
VERTEX
  8
C7
  10
111.736900
  20
178.822100
  0
VERTEX
  8
C7
  10
111.829800
  20
179.401200
  0
VERTEX
  8
C7
  10
111.781400
  20
180.034700
  0
VERTEX
  8
C7
  10
111.583100
  20
180.717100
  0
VERTEX
  8
C7
  10
111.225900
  20
181.442500
  0
VERTEX
  8
C7
  10
110.701100
  20
182.205400
  0
VERTEX
  8
C7
  10
110.000000
  20
183.000000
  0
SEQEND
  8
C7
  0
POLYLINE
  8
C7
  66
1
  10
120.000000
  20
183.000000
  0
VERTEX
  8
C7
  10
120.000000
  20
183.000000
  0
VERTEX
  8
C7
  10
120.000000
  20
15.000000
  0
VERTEX
  8
C7
  10
121.000000
  20
15.000000
  0
VERTEX
  8
C7
  10
121.000000
  20
133.000000
  0
VERTEX
  8
C7
  10
121.004900
  20
133.836000
  0
VERTEX
  8
C7
  10
121.019400
  20
134.692100
  0
VERTEX
  8
C7
  10
121.042800
  20
135.567200
  0
VERTEX
  8
C7
  10
121.074400
  20
136.460600
  0
VERTEX
  8
C7
  10
121.113600
  20
137.371400
  0
VERTEX
  8
C7
  10
121.159700
  20
138.298700
  0
VERTEX
  8
C7
  10
121.212200
  20
139.241600
  0
VERTEX
  8
C7
  10
121.270300
  20
140.199300
  0
VERTEX
  8
C7
  10
121.333400
  20
141.170800
  0
VERTEX
  8
C7
  10
121.400900
  20
142.155400
  0
VERTEX
  8
C7
  10
121.472200
  20
143.152200
  0
VERTEX
  8
C7
  10
121.546500
  20
144.160200
  0
VERTEX
  8
C7
  10
121.623300
  20
145.178700
  0
VERTEX
  8
C7
  10
121.701900
  20
146.206700
  0
VERTEX
  8
C7
  10
121.781600
  20
147.243300
  0
VERTEX
  8
C7
  10
121.861900
  20
148.287800
  0
VERTEX
  8
C7
  10
121.942000
  20
149.339200
  0
VERTEX
  8
C7
  10
122.021400
  20
150.396700
  0
VERTEX
  8
C7
  10
122.099300
  20
151.459400
  0
VERTEX
  8
C7
  10
122.175200
  20
152.526300
  0
VERTEX
  8
C7
  10
122.248400
  20
153.596800
  0
VERTEX
  8
C7
  10
122.318300
  20
154.669800
  0
VERTEX
  8
C7
  10
122.384100
  20
155.744500
  0
VERTEX
  8
C7
  10
122.445400
  20
156.820100
  0
VERTEX
  8
C7
  10
122.501400
  20
157.895700
  0
VERTEX
  8
C7
  10
122.551400
  20
158.970300
  0
VERTEX
  8
C7
  10
122.594900
  20
160.043200
  0
VERTEX
  8
C7
  10
122.631200
  20
161.113400
  0
VERTEX
  8
C7
  10
122.659700
  20
162.180200
  0
VERTEX
  8
C7
  10
122.679700
  20
163.242500
  0
VERTEX
  8
C7
  10
122.690500
  20
164.299700
  0
VERTEX
  8
C7
  10
122.691600
  20
165.350700
  0
VERTEX
  8
C7
  10
122.682200
  20
166.394700
  0
VERTEX
  8
C7
  10
122.661800
  20
167.430800
  0
VERTEX
  8
C7
  10
122.629700
  20
168.458200
  0
VERTEX
  8
C7
  10
122.585300
  20
169.476100
  0
VERTEX
  8
C7
  10
122.527800
  20
170.483400
  0
VERTEX
  8
C7
  10
122.456800
  20
171.479400
  0
VERTEX
  8
C7
  10
122.371400
  20
172.463200
  0
VERTEX
  8
C7
  10
122.271200
  20
173.434000
  0
VERTEX
  8
C7
  10
122.155400
  20
174.390700
  0
VERTEX
  8
C7
  10
122.023400
  20
175.332700
  0
VERTEX
  8
C7
  10
121.874500
  20
176.259000
  0
VERTEX
  8
C7
  10
121.708100
  20
177.168700
  0
VERTEX
  8
C7
  10
121.523700
  20
178.061000
  0
VERTEX
  8
C7
  10
121.320400
  20
178.935000
  0
VERTEX
  8
C7
  10
121.097700
  20
179.789800
  0
VERTEX
  8
C7
  10
120.855000
  20
180.624600
  0
VERTEX
  8
C7
  10
120.591500
  20
181.438400
  0
VERTEX
  8
C7
  10
120.306700
  20
182.230500
  0
VERTEX
  8
C7
  10
120.000000
  20
183.000000
  0
SEQEND
  8
C7
  0
POLYLINE
  8
C7
  66
1
  10
104.000000
  20
177.000000
  0
VERTEX
  8
C7
  10
104.000000
  20
177.000000
  0
VERTEX
  8
C7
  10
103.000000
  20
175.000000
  0
VERTEX
  8
C7
  10
104.000000
  20
177.000000
  0
SEQEND
  8
C7
  0
POLYLINE
  8
C7
  66
1
  10
106.000000
  20
173.000000
  0
VERTEX
  8
C7
  10
106.000000
  20
173.000000
  0
VERTEX
  8
C7
  10
107.000000
  20
172.000000
  0
VERTEX
  8
C7
  10
106.000000
  20
173.000000
  0
SEQEND
  8
C7
  0
POLYLINE
  8
C7
  66
1
  10
108.000000
  20
172.000000
  0
VERTEX
  8
C7
  10
108.000000
  20
172.000000
  0
VERTEX
  8
C7
  10
108.000000
  20
171.000000
  0
VERTEX
  8
C7
  10
116.000000
  20
171.000000
  0
VERTEX
  8
C7
  10
116.000000
  20
167.000000
  0
VERTEX
  8
C7
  10
117.000000
  20
167.000000
  0
VERTEX
  8
C7
  10
117.000000
  20
172.000000
  0
VERTEX
  8
C7
  10
108.000000
  20
172.000000
  0
SEQEND
  8
C7
  0
POLYLINE
  8
C7
  66
1
  10
111.000000
  20
167.000000
  0
VERTEX
  8
C7
  10
111.000000
  20
167.000000
  0
VERTEX
  8
C7
  10
111.000000
  20
162.000000
  0
VERTEX
  8
C7
  10
116.000000
  20
162.000000
  0
VERTEX
  8
C7
  10
116.000000
  20
158.000000
  0
VERTEX
  8
C7
  10
117.000000
  20
158.000000
  0
VERTEX
  8
C7
  10
117.000000
  20
163.000000
  0
VERTEX
  8
C7
  10
112.000000
  20
163.000000
  0
VERTEX
  8
C7
  10
111.000000
  20
167.000000
  0
SEQEND
  8
C7
  0
POLYLINE
  8
C7
  66
1
  10
111.000000
  20
158.000000
  0
VERTEX
  8
C7
  10
111.000000
  20
158.000000
  0
VERTEX
  8
C7
  10
111.000000
  20
152.000000
  0
VERTEX
  8
C7
  10
116.000000
  20
152.000000
  0
VERTEX
  8
C7
  10
116.000000
  20
149.000000
  0
VERTEX
  8
C7
  10
111.000000
  20
149.000000
  0
VERTEX
  8
C7
  10
111.000000
  20
143.000000
  0
VERTEX
  8
C7
  10
116.000000
  20
143.000000
  0
VERTEX
  8
C7
  10
116.000000
  20
139.000000
  0
VERTEX
  8
C7
  10
111.000000
  20
139.000000
  0
VERTEX
  8
C7
  10
111.000000
  20
133.000000
  0
VERTEX
  8
C7
  10
116.000000
  20
133.000000
  0
VERTEX
  8
C7
  10
116.000000
  20
129.000000
  0
VERTEX
  8
C7
  10
117.000000
  20
129.000000
  0
VERTEX
  8
C7
  10
117.000000
  20
134.000000
  0
VERTEX
  8
C7
  10
112.000000
  20
134.000000
  0
VERTEX
  8
C7
  10
112.000000
  20
138.000000
  0
VERTEX
  8
C7
  10
117.000000
  20
138.000000
  0
VERTEX
  8
C7
  10
117.000000
  20
144.000000
  0
VERTEX
  8
C7
  10
112.000000
  20
144.000000
  0
VERTEX
  8
C7
  10
112.000000
  20
148.000000
  0
VERTEX
  8
C7
  10
117.000000
  20
148.000000
  0
VERTEX
  8
C7
  10
117.000000
  20
153.000000
  0
VERTEX
  8
C7
  10
112.000000
  20
153.000000
  0
VERTEX
  8
C7
  10
111.000000
  20
158.000000
  0
SEQEND
  8
C7
  0
POLYLINE
  8
C7
  66
1
  10
111.000000
  20
129.000000
  0
VERTEX
  8
C7
  10
111.000000
  20
129.000000
  0
VERTEX
  8
C7
  10
111.000000
  20
123.000000
  0
VERTEX
  8
C7
  10
116.000000
  20
123.000000
  0
VERTEX
  8
C7
  10
116.000000
  20
120.000000
  0
VERTEX
  8
C7
  10
111.000000
  20
120.000000
  0
VERTEX
  8
C7
  10
111.000000
  20
114.000000
  0
VERTEX
  8
C7
  10
116.000000
  20
114.000000
  0
VERTEX
  8
C7
  10
116.000000
  20
110.000000
  0
VERTEX
  8
C7
  10
111.000000
  20
110.000000
  0
VERTEX
  8
C7
  10
111.000000
  20
88.000000
  0
VERTEX
  8
C7
  10
116.000000
  20
88.000000
  0
VERTEX
  8
C7
  10
116.000000
  20
85.000000
  0
VERTEX
  8
C7
  10
111.000000
  20
85.000000
  0
VERTEX
  8
C7
  10
111.000000
  20
79.000000
  0
VERTEX
  8
C7
  10
112.000000
  20
79.000000
  0
VERTEX
  8
C7
  10
112.000000
  20
84.000000
  0
VERTEX
  8
C7
  10
117.000000
  20
84.000000
  0
VERTEX
  8
C7
  10
117.000000
  20
89.000000
  0
VERTEX
  8
C7
  10
112.000000
  20
89.000000
  0
VERTEX
  8
C7
  10
112.000000
  20
109.000000
  0
VERTEX
  8
C7
  10
117.000000
  20
109.000000
  0
VERTEX
  8
C7
  10
117.000000
  20
115.000000
  0
VERTEX
  8
C7
  10
112.000000
  20
115.000000
  0
VERTEX
  8
C7
  10
112.000000
  20
119.000000
  0
VERTEX
  8
C7
  10
117.000000
  20
119.000000
  0
VERTEX
  8
C7
  10
117.000000
  20
124.000000
  0
VERTEX
  8
C7
  10
112.000000
  20
124.000000
  0
VERTEX
  8
C7
  10
111.000000
  20
129.000000
  0
SEQEND
  8
C7
  0
POLYLINE
  8
C7
  66
1
  10
116.000000
  20
79.000000
  0
VERTEX
  8
C7
  10
116.000000
  20
79.000000
  0
VERTEX
  8
C7
  10
116.000000
  20
75.000000
  0
VERTEX
  8
C7
  10
111.000000
  20
75.000000
  0
VERTEX
  8
C7
  10
111.000000
  20
69.000000
  0
VERTEX
  8
C7
  10
116.000000
  20
69.000000
  0
VERTEX
  8
C7
  10
116.000000
  20
65.000000
  0
VERTEX
  8
C7
  10
117.000000
  20
65.000000
  0
VERTEX
  8
C7
  10
117.000000
  20
70.000000
  0
VERTEX
  8
C7
  10
112.000000
  20
70.000000
  0
VERTEX
  8
C7
  10
112.000000
  20
74.000000
  0
VERTEX
  8
C7
  10
117.000000
  20
74.000000
  0
VERTEX
  8
C7
  10
116.000000
  20
79.000000
  0
SEQEND
  8
C7
  0
POLYLINE
  8
C7
  66
1
  10
111.000000
  20
65.000000
  0
VERTEX
  8
C7
  10
111.000000
  20
65.000000
  0
VERTEX
  8
C7
  10
111.000000
  20
59.000000
  0
VERTEX
  8
C7
  10
116.000000
  20
59.000000
  0
VERTEX
  8
C7
  10
116.000000
  20
56.000000
  0
VERTEX
  8
C7
  10
111.000000
  20
56.000000
  0
VERTEX
  8
C7
  10
111.000000
  20
50.000000
  0
VERTEX
  8
C7
  10
112.000000
  20
50.000000
  0
VERTEX
  8
C7
  10
112.000000
  20
55.000000
  0
VERTEX
  8
C7
  10
117.000000
  20
55.000000
  0
VERTEX
  8
C7
  10
117.000000
  20
60.000000
  0
VERTEX
  8
C7
  10
112.000000
  20
60.000000
  0
VERTEX
  8
C7
  10
111.000000
  20
65.000000
  0
SEQEND
  8
C7
  0
POLYLINE
  8
C7
  66
1
  10
116.000000
  20
50.000000
  0
VERTEX
  8
C7
  10
116.000000
  20
50.000000
  0
VERTEX
  8
C7
  10
116.000000
  20
46.000000
  0
VERTEX
  8
C7
  10
111.000000
  20
46.000000
  0
VERTEX
  8
C7
  10
111.000000
  20
40.000000
  0
VERTEX
  8
C7
  10
116.000000
  20
40.000000
  0
VERTEX
  8
C7
  10
116.000000
  20
36.000000
  0
VERTEX
  8
C7
  10
117.000000
  20
36.000000
  0
VERTEX
  8
C7
  10
117.000000
  20
41.000000
  0
VERTEX
  8
C7
  10
112.000000
  20
41.000000
  0
VERTEX
  8
C7
  10
112.000000
  20
45.000000
  0
VERTEX
  8
C7
  10
117.000000
  20
45.000000
  0
VERTEX
  8
C7
  10
116.000000
  20
50.000000
  0
SEQEND
  8
C7
  0
POLYLINE
  8
C7
  66
1
  10
111.000000
  20
36.000000
  0
VERTEX
  8
C7
  10
111.000000
  20
36.000000
  0
VERTEX
  8
C7
  10
111.000000
  20
31.000000
  0
VERTEX
  8
C7
  10
116.000000
  20
31.000000
  0
VERTEX
  8
C7
  10
116.000000
  20
27.000000
  0
VERTEX
  8
C7
  10
117.000000
  20
27.000000
  0
VERTEX
  8
C7
  10
117.000000
  20
32.000000
  0
VERTEX
  8
C7
  10
112.000000
  20
32.000000
  0
VERTEX
  8
C7
  10
111.000000
  20
36.000000
  0
SEQEND
  8
C7
  0
POLYLINE
  8
C7
  66
1
  10
107.666664
  20
26.666666
  0
VERTEX
  8
C7
  10
107.666664
  20
26.666666
  0
VERTEX
  8
C7
  10
108.333336
  20
26.333334
  0
VERTEX
  8
C7
  10
107.666664
  20
26.666666
  0
SEQEND
  8
C7
  0
POLYLINE
  8
C7
  66
1
  10
105.000000
  20
26.000000
  0
VERTEX
  8
C7
  10
105.000000
  20
26.000000
  0
VERTEX
  8
C7
  10
103.000000
  20
22.000000
  0
VERTEX
  8
C7
  10
108.000000
  20
21.000000
  0
VERTEX
  8
C7
  10
108.000000
  20
22.000000
  0
VERTEX
  8
C7
  10
104.000000
  20
22.000000
  0
VERTEX
  8
C7
  10
105.000000
  20
26.000000
  0
SEQEND
  8
C7
  0
POLYLINE
  8
C7
  66
1
  10
110.000000
  20
22.000000
  0
VERTEX
  8
C7
  10
110.000000
  20
22.000000
  0
VERTEX
  8
C7
  10
111.000000
  20
21.000000
  0
VERTEX
  8
C7
  10
110.000000
  20
22.000000
  0
SEQEND
  8
C7
  0
POLYLINE
  8
C7
  66
1
  10
112.333336
  20
19.333334
  0
VERTEX
  8
C7
  10
112.333336
  20
19.333334
  0
VERTEX
  8
C7
  10
112.666664
  20
18.666666
  0
VERTEX
  8
C7
  10
112.333336
  20
19.333334
  0
SEQEND
  8
C7
  0
POLYLINE
  8
C7
  66
1
  10
102.000000
  20
17.000000
  0
VERTEX
  8
C7
  10
102.000000
  20
17.000000
  0
VERTEX
  8
C7
  10
102.000000
  20
16.000000
  0
VERTEX
  8
C7
  10
112.000000
  20
16.000000
  0
VERTEX
  8
C7
  10
102.000000
  20
17.000000
  0
SEQEND
  8
C7
  0
POLYLINE
  8
C7
  66
1
  10
75.000000
  20
16.000000
  0
VERTEX
  8
C7
  10
75.000000
  20
16.000000
  0
VERTEX
  8
C7
  10
74.424700
  20
15.241100
  0
VERTEX
  8
C7
  10
73.773900
  20
14.607600
  0
VERTEX
  8
C7
  10
73.055200
  20
14.089000
  0
VERTEX
  8
C7
  10
72.276100
  20
13.674700
  0
VERTEX
  8
C7
  10
71.444400
  20
13.354200
  0
VERTEX
  8
C7
  10
70.567600
  20
13.116900
  0
VERTEX
  8
C7
  10
69.653400
  20
12.952300
  0
VERTEX
  8
C7
  10
68.709400
  20
12.849800
  0
VERTEX
  8
C7
  10
67.743200
  20
12.798800
  0
VERTEX
  8
C7
  10
66.762500
  20
12.788900
  0
VERTEX
  8
C7
  10
65.774800
  20
12.809400
  0
VERTEX
  8
C7
  10
64.787900
  20
12.849900
  0
VERTEX
  8
C7
  10
63.809300
  20
12.899700
  0
VERTEX
  8
C7
  10
62.846700
  20
12.948400
  0
VERTEX
  8
C7
  10
61.907700
  20
12.985300
  0
VERTEX
  8
C7
  10
61.000000
  20
13.000000
  0
VERTEX
  8
C7
  10
61.000000
  20
12.000000
  0
VERTEX
  8
C7
  10
103.000000
  20
12.000000
  0
VERTEX
  8
C7
  10
103.000000
  20
7.000000
  0
VERTEX
  8
C7
  10
9.000000
  20
7.000000
  0
VERTEX
  8
C7
  10
9.000000
  20
12.000000
  0
VERTEX
  8
C7
  10
52.000000
  20
12.000000
  0
VERTEX
  8
C7
  10
52.000000
  20
13.000000
  0
VERTEX
  8
C7
  10
8.000000
  20
13.000000
  0
VERTEX
  8
C7
  10
8.000000
  20
6.000000
  0
VERTEX
  8
C7
  10
110.000000
  20
6.000000
  0
VERTEX
  8
C7
  10
110.000000
  20
7.000000
  0
VERTEX
  8
C7
  10
104.000000
  20
7.000000
  0
VERTEX
  8
C7
  10
104.000000
  20
13.000000
  0
VERTEX
  8
C7
  10
103.163800
  20
12.986100
  0
VERTEX
  8
C7
  10
102.275300
  20
12.949100
  0
VERTEX
  8
C7
  10
101.342100
  20
12.895600
  0
VERTEX
  8
C7
  10
100.371800
  20
12.832400
  0
VERTEX
  8
C7
  10
99.371900
  20
12.766300
  0
VERTEX
  8
C7
  10
98.350100
  20
12.703900
  0
VERTEX
  8
C7
  10
97.314000
  20
12.652000
  0
VERTEX
  8
C7
  10
96.271100
  20
12.617300
  0
VERTEX
  8
C7
  10
95.229200
  20
12.606700
  0
VERTEX
  8
C7
  10
94.195700
  20
12.626700
  0
VERTEX
  8
C7
  10
93.178300
  20
12.684300
  0
VERTEX
  8
C7
  10
92.184600
  20
12.786000
  0
VERTEX
  8
C7
  10
91.222200
  20
12.938700
  0
VERTEX
  8
C7
  10
90.298700
  20
13.149100
  0
VERTEX
  8
C7
  10
89.421600
  20
13.423900
  0
VERTEX
  8
C7
  10
88.598700
  20
13.769800
  0
VERTEX
  8
C7
  10
87.837500
  20
14.193600
  0
VERTEX
  8
C7
  10
87.145500
  20
14.702100
  0
VERTEX
  8
C7
  10
86.530500
  20
15.302000
  0
VERTEX
  8
C7
  10
86.000000
  20
16.000000
  0
VERTEX
  8
C7
  10
85.000000
  20
16.000000
  0
VERTEX
  8
C7
  10
85.000000
  20
13.000000
  0
VERTEX
  8
C7
  10
75.000000
  20
16.000000
  0
SEQEND
  8
C7
  0
POLYLINE
  8
C7
  66
1
  10
119.000000
  20
14.000000
  0
VERTEX
  8
C7
  10
119.000000
  20
14.000000
  0
VERTEX
  8
C7
  10
120.000000
  20
13.000000
  0
VERTEX
  8
C7
  10
119.000000
  20
14.000000
  0
SEQEND
  8
C7
  0
POLYLINE
  8
C7
  66
1
  10
55.000000
  20
13.000000
  0
VERTEX
  8
C7
  10
55.000000
  20
13.000000
  0
VERTEX
  8
C7
  10
56.000000
  20
12.000000
  0
VERTEX
  8
C7
  10
55.000000
  20
13.000000
  0
SEQEND
  8
C7
  0
POLYLINE
  8
C7
  66
1
  10
118.000000
  20
12.000000
  0
VERTEX
  8
C7
  10
118.000000
  20
12.000000
  0
VERTEX
  8
C7
  10
116.000000
  20
9.000000
  0
VERTEX
  8
C7
  10
118.000000
  20
12.000000
  0
SEQEND
  8
C7
  0
POLYLINE
  8
C7
  66
1
  10
114.000000
  20
9.000000
  0
VERTEX
  8
C7
  10
114.000000
  20
9.000000
  0
VERTEX
  8
C7
  10
112.000000
  20
8.000000
  0
VERTEX
  8
C7
  10
112.000000
  20
7.000000
  0
VERTEX
  8
C7
  10
114.000000
  20
9.000000
  0
SEQEND
  8
0
  0
ENDSEC
  0
EOF
