  0
SECTION
  2
BLOCKS
  0
ENDSEC
  0
SECTION
  2
ENTITIES
  0
LINE
  8
0
 10
-203.2
 11
-203.2
 20
-203.2
 21
203.2
  0
LINE
  8
0
 10
-203.2
 11
203.2
 20
203.2
 21
203.2
  0
LINE
  8
0
 10
203.2
 11
203.2
 20
203.2
 21
-203.2
  0
LINE
  8
0
 10
203.2
 11
-203.2
 20
-203.2
 21
-203.2
  0
LINE
  8
0
 10
-143.3
 11
-142.666
 20
-114.3
 21
-108.271
  0
LINE
  8
0
 10
-142.666
 11
-140.793
 20
-108.271
 21
-102.505
  0
LINE
  8
0
 10
-140.793
 11
-137.761
 20
-102.505
 21
-97.254
  0
LINE
  8
0
 10
-137.761
 11
-133.705
 20
-97.254
 21
-92.749
  0
LINE
  8
0
 10
-133.705
 11
-128.8
 20
-92.749
 21
-89.185
  0
LINE
  8
0
 10
-128.8
 11
-123.261
 20
-89.185
 21
-86.719
  0
LINE
  8
0
 10
-123.261
 11
-117.331
 20
-86.719
 21
-85.459
  0
LINE
  8
0
 10
-117.331
 11
-111.269
 20
-85.459
 21
-85.459
  0
LINE
  8
0
 10
-111.269
 11
-105.339
 20
-85.459
 21
-86.719
  0
LINE
  8
0
 10
-105.339
 11
-99.8
 20
-86.719
 21
-89.185
  0
LINE
  8
0
 10
-99.8
 11
-94.895
 20
-89.185
 21
-92.749
  0
LINE
  8
0
 10
-94.895
 11
-90.839
 20
-92.749
 21
-97.254
  0
LINE
  8
0
 10
-90.839
 11
-87.807
 20
-97.254
 21
-102.505
  0
LINE
  8
0
 10
-87.807
 11
-85.934
 20
-102.505
 21
-108.271
  0
LINE
  8
0
 10
-85.934
 11
-85.3
 20
-108.271
 21
-114.3
  0
LINE
  8
0
 10
-85.3
 11
-85.934
 20
-114.3
 21
-120.329
  0
LINE
  8
0
 10
-85.934
 11
-87.807
 20
-120.329
 21
-126.095
  0
LINE
  8
0
 10
-87.807
 11
-90.839
 20
-126.095
 21
-131.346
  0
LINE
  8
0
 10
-90.839
 11
-94.895
 20
-131.346
 21
-135.851
  0
LINE
  8
0
 10
-94.895
 11
-99.8
 20
-135.851
 21
-139.415
  0
LINE
  8
0
 10
-99.8
 11
-105.339
 20
-139.415
 21
-141.881
  0
LINE
  8
0
 10
-105.339
 11
-111.269
 20
-141.881
 21
-143.141
  0
LINE
  8
0
 10
-111.269
 11
-117.331
 20
-143.141
 21
-143.141
  0
LINE
  8
0
 10
-117.331
 11
-123.261
 20
-143.141
 21
-141.881
  0
LINE
  8
0
 10
-123.261
 11
-128.8
 20
-141.881
 21
-139.415
  0
LINE
  8
0
 10
-128.8
 11
-133.705
 20
-139.415
 21
-135.851
  0
LINE
  8
0
 10
-133.705
 11
-137.761
 20
-135.851
 21
-131.346
  0
LINE
  8
0
 10
-137.761
 11
-140.793
 20
-131.346
 21
-126.095
  0
LINE
  8
0
 10
-140.793
 11
-142.666
 20
-126.095
 21
-120.329
  0
LINE
  8
0
 10
-142.666
 11
-143.3
 20
-120.329
 21
-114.3
  0
LINE
  8
0
 10
-141.177
 11
-116.429
 20
116.429
 21
141.177
  0
LINE
  8
0
 10
-116.429
 11
-112.823
 20
141.177
 21
137.571
  0
LINE
  8
0
 10
-112.823
 11
-137.571
 20
137.571
 21
112.823
  0
LINE
  8
0
 10
-137.571
 11
-141.177
 20
112.823
 21
116.429
  0
LINE
  8
0
 10
-139.175
 11
-139.106
 20
152.4
 21
153.06
  0
LINE
  8
0
 10
-139.106
 11
-138.901
 20
153.06
 21
153.691
  0
LINE
  8
0
 10
-138.901
 11
-138.569
 20
153.691
 21
154.266
  0
LINE
  8
0
 10
-138.569
 11
-138.124
 20
154.266
 21
154.759
  0
LINE
  8
0
 10
-138.124
 11
-137.587
 20
154.759
 21
155.15
  0
LINE
  8
0
 10
-137.587
 11
-136.981
 20
155.15
 21
155.42
  0
LINE
  8
0
 10
-136.981
 11
-136.332
 20
155.42
 21
155.558
  0
LINE
  8
0
 10
-136.332
 11
-135.668
 20
155.558
 21
155.558
  0
LINE
  8
0
 10
-135.668
 11
-135.019
 20
155.558
 21
155.42
  0
LINE
  8
0
 10
-135.019
 11
-134.413
 20
155.42
 21
155.15
  0
LINE
  8
0
 10
-134.413
 11
-133.876
 20
155.15
 21
154.759
  0
LINE
  8
0
 10
-133.876
 11
-133.431
 20
154.759
 21
154.266
  0
LINE
  8
0
 10
-133.431
 11
-133.099
 20
154.266
 21
153.691
  0
LINE
  8
0
 10
-133.099
 11
-132.894
 20
153.691
 21
153.06
  0
LINE
  8
0
 10
-132.894
 11
-132.825
 20
153.06
 21
152.4
  0
LINE
  8
0
 10
-132.825
 11
-132.894
 20
152.4
 21
151.74
  0
LINE
  8
0
 10
-132.894
 11
-133.099
 20
151.74
 21
151.109
  0
LINE
  8
0
 10
-133.099
 11
-133.431
 20
151.109
 21
150.534
  0
LINE
  8
0
 10
-133.431
 11
-133.876
 20
150.534
 21
150.041
  0
LINE
  8
0
 10
-133.876
 11
-134.413
 20
150.041
 21
149.65
  0
LINE
  8
0
 10
-134.413
 11
-135.019
 20
149.65
 21
149.38
  0
LINE
  8
0
 10
-135.019
 11
-135.668
 20
149.38
 21
149.242
  0
LINE
  8
0
 10
-135.668
 11
-136.332
 20
149.242
 21
149.242
  0
LINE
  8
0
 10
-136.332
 11
-136.981
 20
149.242
 21
149.38
  0
LINE
  8
0
 10
-136.981
 11
-137.587
 20
149.38
 21
149.65
  0
LINE
  8
0
 10
-137.587
 11
-138.124
 20
149.65
 21
150.041
  0
LINE
  8
0
 10
-138.124
 11
-138.569
 20
150.041
 21
150.534
  0
LINE
  8
0
 10
-138.569
 11
-138.901
 20
150.534
 21
151.109
  0
LINE
  8
0
 10
-138.901
 11
-139.106
 20
151.109
 21
151.74
  0
LINE
  8
0
 10
-139.106
 11
-139.175
 20
151.74
 21
152.4
  0
LINE
  8
0
 10
-85.95
 11
-85.95
 20
127
 21
177.8
  0
LINE
  8
0
 10
-85.95
 11
-75.45
 20
177.8
 21
177.8
  0
LINE
  8
0
 10
-75.45
 11
-75.45
 20
177.8
 21
127
  0
LINE
  8
0
 10
-75.45
 11
-85.95
 20
127
 21
127
  0
LINE
  8
0
 10
-72.175
 11
-72.106
 20
77.7
 21
78.36
  0
LINE
  8
0
 10
-72.106
 11
-71.901
 20
78.36
 21
78.991
  0
LINE
  8
0
 10
-71.901
 11
-71.569
 20
78.991
 21
79.566
  0
LINE
  8
0
 10
-71.569
 11
-71.124
 20
79.566
 21
80.059
  0
LINE
  8
0
 10
-71.124
 11
-70.587
 20
80.059
 21
80.45
  0
LINE
  8
0
 10
-70.587
 11
-69.981
 20
80.45
 21
80.72
  0
LINE
  8
0
 10
-69.981
 11
-69.332
 20
80.72
 21
80.858
  0
LINE
  8
0
 10
-69.332
 11
-68.668
 20
80.858
 21
80.858
  0
LINE
  8
0
 10
-68.668
 11
-68.019
 20
80.858
 21
80.72
  0
LINE
  8
0
 10
-68.019
 11
-67.413
 20
80.72
 21
80.45
  0
LINE
  8
0
 10
-67.413
 11
-66.876
 20
80.45
 21
80.059
  0
LINE
  8
0
 10
-66.876
 11
-66.431
 20
80.059
 21
79.566
  0
LINE
  8
0
 10
-66.431
 11
-66.099
 20
79.566
 21
78.991
  0
LINE
  8
0
 10
-66.099
 11
-65.894
 20
78.991
 21
78.36
  0
LINE
  8
0
 10
-65.894
 11
-65.825
 20
78.36
 21
77.7
  0
LINE
  8
0
 10
-65.825
 11
-65.894
 20
77.7
 21
77.04
  0
LINE
  8
0
 10
-65.894
 11
-66.099
 20
77.04
 21
76.409
  0
LINE
  8
0
 10
-66.099
 11
-66.431
 20
76.409
 21
75.834
  0
LINE
  8
0
 10
-66.431
 11
-66.876
 20
75.834
 21
75.341
  0
LINE
  8
0
 10
-66.876
 11
-67.413
 20
75.341
 21
74.95
  0
LINE
  8
0
 10
-67.413
 11
-68.019
 20
74.95
 21
74.68
  0
LINE
  8
0
 10
-68.019
 11
-68.668
 20
74.68
 21
74.542
  0
LINE
  8
0
 10
-68.668
 11
-69.332
 20
74.542
 21
74.542
  0
LINE
  8
0
 10
-69.332
 11
-69.981
 20
74.542
 21
74.68
  0
LINE
  8
0
 10
-69.981
 11
-70.587
 20
74.68
 21
74.95
  0
LINE
  8
0
 10
-70.587
 11
-71.124
 20
74.95
 21
75.341
  0
LINE
  8
0
 10
-71.124
 11
-71.569
 20
75.341
 21
75.834
  0
LINE
  8
0
 10
-71.569
 11
-71.901
 20
75.834
 21
76.409
  0
LINE
  8
0
 10
-71.901
 11
-72.106
 20
76.409
 21
77.04
  0
LINE
  8
0
 10
-72.106
 11
-72.175
 20
77.04
 21
77.7
  0
LINE
  8
0
 10
-57.15
 11
-57.011
 20
108
 21
109.32
  0
LINE
  8
0
 10
-57.011
 11
-56.601
 20
109.32
 21
110.583
  0
LINE
  8
0
 10
-56.601
 11
-55.937
 20
110.583
 21
111.732
  0
LINE
  8
0
 10
-55.937
 11
-55.049
 20
111.732
 21
112.719
  0
LINE
  8
0
 10
-55.049
 11
-53.975
 20
112.719
 21
113.499
  0
LINE
  8
0
 10
-53.975
 11
-52.762
 20
113.499
 21
114.039
  0
LINE
  8
0
 10
-52.762
 11
-51.464
 20
114.039
 21
114.315
  0
LINE
  8
0
 10
-51.464
 11
-50.136
 20
114.315
 21
114.315
  0
LINE
  8
0
 10
-50.136
 11
-48.838
 20
114.315
 21
114.039
  0
LINE
  8
0
 10
-48.838
 11
-47.625
 20
114.039
 21
113.499
  0
LINE
  8
0
 10
-47.625
 11
-46.551
 20
113.499
 21
112.719
  0
LINE
  8
0
 10
-46.551
 11
-45.663
 20
112.719
 21
111.732
  0
LINE
  8
0
 10
-45.663
 11
-44.999
 20
111.732
 21
110.583
  0
LINE
  8
0
 10
-44.999
 11
-44.589
 20
110.583
 21
109.32
  0
LINE
  8
0
 10
-44.589
 11
-44.45
 20
109.32
 21
108
  0
LINE
  8
0
 10
-44.45
 11
-44.589
 20
108
 21
106.68
  0
LINE
  8
0
 10
-44.589
 11
-44.999
 20
106.68
 21
105.417
  0
LINE
  8
0
 10
-44.999
 11
-45.663
 20
105.417
 21
104.268
  0
LINE
  8
0
 10
-45.663
 11
-46.551
 20
104.268
 21
103.281
  0
LINE
  8
0
 10
-46.551
 11
-47.625
 20
103.281
 21
102.501
  0
LINE
  8
0
 10
-47.625
 11
-48.838
 20
102.501
 21
101.961
  0
LINE
  8
0
 10
-48.838
 11
-50.136
 20
101.961
 21
101.685
  0
LINE
  8
0
 10
-50.136
 11
-51.464
 20
101.685
 21
101.685
  0
LINE
  8
0
 10
-51.464
 11
-52.762
 20
101.685
 21
101.961
  0
LINE
  8
0
 10
-52.762
 11
-53.975
 20
101.961
 21
102.501
  0
LINE
  8
0
 10
-53.975
 11
-55.049
 20
102.501
 21
103.281
  0
LINE
  8
0
 10
-55.049
 11
-55.937
 20
103.281
 21
104.268
  0
LINE
  8
0
 10
-55.937
 11
-56.601
 20
104.268
 21
105.417
  0
LINE
  8
0
 10
-56.601
 11
-57.011
 20
105.417
 21
106.68
  0
LINE
  8
0
 10
-57.011
 11
-57.15
 20
106.68
 21
108
  0
LINE
  8
0
 10
-43.254
 11
-14.97
 20
-35.83
 21
-7.546
  0
LINE
  8
0
 10
-14.97
 11
-7.546
 20
-7.546
 21
-14.97
  0
LINE
  8
0
 10
-7.546
 11
-35.83
 20
-14.97
 21
-43.254
  0
LINE
  8
0
 10
-35.83
 11
-43.254
 20
-43.254
 21
-35.83
  0
LINE
  8
0
 10
-33.175
 11
-33.106
 20
65
 21
65.66
  0
LINE
  8
0
 10
-33.106
 11
-32.901
 20
65.66
 21
66.291
  0
LINE
  8
0
 10
-32.901
 11
-32.569
 20
66.291
 21
66.866
  0
LINE
  8
0
 10
-32.569
 11
-32.124
 20
66.866
 21
67.359
  0
LINE
  8
0
 10
-32.124
 11
-31.587
 20
67.359
 21
67.75
  0
LINE
  8
0
 10
-31.587
 11
-30.981
 20
67.75
 21
68.02
  0
LINE
  8
0
 10
-30.981
 11
-30.332
 20
68.02
 21
68.158
  0
LINE
  8
0
 10
-30.332
 11
-29.668
 20
68.158
 21
68.158
  0
LINE
  8
0
 10
-29.668
 11
-29.019
 20
68.158
 21
68.02
  0
LINE
  8
0
 10
-29.019
 11
-28.413
 20
68.02
 21
67.75
  0
LINE
  8
0
 10
-28.413
 11
-27.876
 20
67.75
 21
67.359
  0
LINE
  8
0
 10
-27.876
 11
-27.431
 20
67.359
 21
66.866
  0
LINE
  8
0
 10
-27.431
 11
-27.099
 20
66.866
 21
66.291
  0
LINE
  8
0
 10
-27.099
 11
-26.894
 20
66.291
 21
65.66
  0
LINE
  8
0
 10
-26.894
 11
-26.825
 20
65.66
 21
65
  0
LINE
  8
0
 10
-26.825
 11
-26.894
 20
65
 21
64.34
  0
LINE
  8
0
 10
-26.894
 11
-27.099
 20
64.34
 21
63.709
  0
LINE
  8
0
 10
-27.099
 11
-27.431
 20
63.709
 21
63.134
  0
LINE
  8
0
 10
-27.431
 11
-27.876
 20
63.134
 21
62.641
  0
LINE
  8
0
 10
-27.876
 11
-28.413
 20
62.641
 21
62.25
  0
LINE
  8
0
 10
-28.413
 11
-29.019
 20
62.25
 21
61.98
  0
LINE
  8
0
 10
-29.019
 11
-29.668
 20
61.98
 21
61.842
  0
LINE
  8
0
 10
-29.668
 11
-30.332
 20
61.842
 21
61.842
  0
LINE
  8
0
 10
-30.332
 11
-30.981
 20
61.842
 21
61.98
  0
LINE
  8
0
 10
-30.981
 11
-31.587
 20
61.98
 21
62.25
  0
LINE
  8
0
 10
-31.587
 11
-32.124
 20
62.25
 21
62.641
  0
LINE
  8
0
 10
-32.124
 11
-32.569
 20
62.641
 21
63.134
  0
LINE
  8
0
 10
-32.569
 11
-32.901
 20
63.134
 21
63.709
  0
LINE
  8
0
 10
-32.901
 11
-33.106
 20
63.709
 21
64.34
  0
LINE
  8
0
 10
-33.106
 11
-33.175
 20
64.34
 21
65
  0
LINE
  8
0
 10
-28.575
 11
-28.506
 20
152.4
 21
153.06
  0
LINE
  8
0
 10
-28.506
 11
-28.301
 20
153.06
 21
153.691
  0
LINE
  8
0
 10
-28.301
 11
-27.969
 20
153.691
 21
154.266
  0
LINE
  8
0
 10
-27.969
 11
-27.524
 20
154.266
 21
154.759
  0
LINE
  8
0
 10
-27.524
 11
-26.987
 20
154.759
 21
155.15
  0
LINE
  8
0
 10
-26.987
 11
-26.381
 20
155.15
 21
155.42
  0
LINE
  8
0
 10
-26.381
 11
-25.732
 20
155.42
 21
155.558
  0
LINE
  8
0
 10
-25.732
 11
-25.068
 20
155.558
 21
155.558
  0
LINE
  8
0
 10
-25.068
 11
-24.419
 20
155.558
 21
155.42
  0
LINE
  8
0
 10
-24.419
 11
-23.813
 20
155.42
 21
155.15
  0
LINE
  8
0
 10
-23.813
 11
-23.276
 20
155.15
 21
154.759
  0
LINE
  8
0
 10
-23.276
 11
-22.831
 20
154.759
 21
154.266
  0
LINE
  8
0
 10
-22.831
 11
-22.499
 20
154.266
 21
153.691
  0
LINE
  8
0
 10
-22.499
 11
-22.294
 20
153.691
 21
153.06
  0
LINE
  8
0
 10
-22.294
 11
-22.225
 20
153.06
 21
152.4
  0
LINE
  8
0
 10
-22.225
 11
-22.294
 20
152.4
 21
151.74
  0
LINE
  8
0
 10
-22.294
 11
-22.499
 20
151.74
 21
151.109
  0
LINE
  8
0
 10
-22.499
 11
-22.831
 20
151.109
 21
150.534
  0
LINE
  8
0
 10
-22.831
 11
-23.276
 20
150.534
 21
150.041
  0
LINE
  8
0
 10
-23.276
 11
-23.813
 20
150.041
 21
149.65
  0
LINE
  8
0
 10
-23.813
 11
-24.419
 20
149.65
 21
149.38
  0
LINE
  8
0
 10
-24.419
 11
-25.068
 20
149.38
 21
149.242
  0
LINE
  8
0
 10
-25.068
 11
-25.732
 20
149.242
 21
149.242
  0
LINE
  8
0
 10
-25.732
 11
-26.381
 20
149.242
 21
149.38
  0
LINE
  8
0
 10
-26.381
 11
-26.987
 20
149.38
 21
149.65
  0
LINE
  8
0
 10
-26.987
 11
-27.524
 20
149.65
 21
150.041
  0
LINE
  8
0
 10
-27.524
 11
-27.969
 20
150.041
 21
150.534
  0
LINE
  8
0
 10
-27.969
 11
-28.301
 20
150.534
 21
151.109
  0
LINE
  8
0
 10
-28.301
 11
-28.506
 20
151.109
 21
151.74
  0
LINE
  8
0
 10
-28.506
 11
-28.575
 20
151.74
 21
152.4
  0
LINE
  8
0
 10
-21.375
 11
-21.306
 20
26.9
 21
27.56
  0
LINE
  8
0
 10
-21.306
 11
-21.101
 20
27.56
 21
28.191
  0
LINE
  8
0
 10
-21.101
 11
-20.769
 20
28.191
 21
28.766
  0
LINE
  8
0
 10
-20.769
 11
-20.324
 20
28.766
 21
29.259
  0
LINE
  8
0
 10
-20.324
 11
-19.787
 20
29.259
 21
29.65
  0
LINE
  8
0
 10
-19.787
 11
-19.181
 20
29.65
 21
29.92
  0
LINE
  8
0
 10
-19.181
 11
-18.532
 20
29.92
 21
30.058
  0
LINE
  8
0
 10
-18.532
 11
-17.868
 20
30.058
 21
30.058
  0
LINE
  8
0
 10
-17.868
 11
-17.219
 20
30.058
 21
29.92
  0
LINE
  8
0
 10
-17.219
 11
-16.613
 20
29.92
 21
29.65
  0
LINE
  8
0
 10
-16.613
 11
-16.076
 20
29.65
 21
29.259
  0
LINE
  8
0
 10
-16.076
 11
-15.631
 20
29.259
 21
28.766
  0
LINE
  8
0
 10
-15.631
 11
-15.299
 20
28.766
 21
28.191
  0
LINE
  8
0
 10
-15.299
 11
-15.094
 20
28.191
 21
27.56
  0
LINE
  8
0
 10
-15.094
 11
-15.025
 20
27.56
 21
26.9
  0
LINE
  8
0
 10
-15.025
 11
-15.094
 20
26.9
 21
26.24
  0
LINE
  8
0
 10
-15.094
 11
-15.299
 20
26.24
 21
25.609
  0
LINE
  8
0
 10
-15.299
 11
-15.631
 20
25.609
 21
25.034
  0
LINE
  8
0
 10
-15.631
 11
-16.076
 20
25.034
 21
24.541
  0
LINE
  8
0
 10
-16.076
 11
-16.613
 20
24.541
 21
24.15
  0
LINE
  8
0
 10
-16.613
 11
-17.219
 20
24.15
 21
23.88
  0
LINE
  8
0
 10
-17.219
 11
-17.868
 20
23.88
 21
23.742
  0
LINE
  8
0
 10
-17.868
 11
-18.532
 20
23.742
 21
23.742
  0
LINE
  8
0
 10
-18.532
 11
-19.181
 20
23.742
 21
23.88
  0
LINE
  8
0
 10
-19.181
 11
-19.787
 20
23.88
 21
24.15
  0
LINE
  8
0
 10
-19.787
 11
-20.324
 20
24.15
 21
24.541
  0
LINE
  8
0
 10
-20.324
 11
-20.769
 20
24.541
 21
25.034
  0
LINE
  8
0
 10
-20.769
 11
-21.101
 20
25.034
 21
25.609
  0
LINE
  8
0
 10
-21.101
 11
-21.306
 20
25.609
 21
26.24
  0
LINE
  8
0
 10
-21.306
 11
-21.375
 20
26.24
 21
26.9
  0
LINE
  8
0
 10
-10.175
 11
-10.106
 20
92
 21
92.66
  0
LINE
  8
0
 10
-10.106
 11
-9.901
 20
92.66
 21
93.291
  0
LINE
  8
0
 10
-9.901
 11
-9.569
 20
93.291
 21
93.866
  0
LINE
  8
0
 10
-9.569
 11
-9.124
 20
93.866
 21
94.359
  0
LINE
  8
0
 10
-9.124
 11
-8.587
 20
94.359
 21
94.75
  0
LINE
  8
0
 10
-8.587
 11
-7.981
 20
94.75
 21
95.02
  0
LINE
  8
0
 10
-7.981
 11
-7.332
 20
95.02
 21
95.158
  0
LINE
  8
0
 10
-7.332
 11
-6.668
 20
95.158
 21
95.158
  0
LINE
  8
0
 10
-6.668
 11
-6.019
 20
95.158
 21
95.02
  0
LINE
  8
0
 10
-6.019
 11
-5.413
 20
95.02
 21
94.75
  0
LINE
  8
0
 10
-5.413
 11
-4.876
 20
94.75
 21
94.359
  0
LINE
  8
0
 10
-4.876
 11
-4.431
 20
94.359
 21
93.866
  0
LINE
  8
0
 10
-4.431
 11
-4.099
 20
93.866
 21
93.291
  0
LINE
  8
0
 10
-4.099
 11
-3.894
 20
93.291
 21
92.66
  0
LINE
  8
0
 10
-3.894
 11
-3.825
 20
92.66
 21
92
  0
LINE
  8
0
 10
-3.825
 11
-3.894
 20
92
 21
91.34
  0
LINE
  8
0
 10
-3.894
 11
-4.099
 20
91.34
 21
90.709
  0
LINE
  8
0
 10
-4.099
 11
-4.431
 20
90.709
 21
90.134
  0
LINE
  8
0
 10
-4.431
 11
-4.876
 20
90.134
 21
89.641
  0
LINE
  8
0
 10
-4.876
 11
-5.413
 20
89.641
 21
89.25
  0
LINE
  8
0
 10
-5.413
 11
-6.019
 20
89.25
 21
88.98
  0
LINE
  8
0
 10
-6.019
 11
-6.668
 20
88.98
 21
88.842
  0
LINE
  8
0
 10
-6.668
 11
-7.332
 20
88.842
 21
88.842
  0
LINE
  8
0
 10
-7.332
 11
-7.981
 20
88.842
 21
88.98
  0
LINE
  8
0
 10
-7.981
 11
-8.587
 20
88.98
 21
89.25
  0
LINE
  8
0
 10
-8.587
 11
-9.124
 20
89.25
 21
89.641
  0
LINE
  8
0
 10
-9.124
 11
-9.569
 20
89.641
 21
90.134
  0
LINE
  8
0
 10
-9.569
 11
-9.901
 20
90.134
 21
90.709
  0
LINE
  8
0
 10
-9.901
 11
-10.106
 20
90.709
 21
91.34
  0
LINE
  8
0
 10
-10.106
 11
-10.175
 20
91.34
 21
92
  0
LINE
  8
0
 10
3.825
 11
3.894
 20
-92
 21
-91.34
  0
LINE
  8
0
 10
3.894
 11
4.099
 20
-91.34
 21
-90.709
  0
LINE
  8
0
 10
4.099
 11
4.431
 20
-90.709
 21
-90.134
  0
LINE
  8
0
 10
4.431
 11
4.876
 20
-90.134
 21
-89.641
  0
LINE
  8
0
 10
4.876
 11
5.413
 20
-89.641
 21
-89.25
  0
LINE
  8
0
 10
5.413
 11
6.019
 20
-89.25
 21
-88.98
  0
LINE
  8
0
 10
6.019
 11
6.668
 20
-88.98
 21
-88.842
  0
LINE
  8
0
 10
6.668
 11
7.332
 20
-88.842
 21
-88.842
  0
LINE
  8
0
 10
7.332
 11
7.981
 20
-88.842
 21
-88.98
  0
LINE
  8
0
 10
7.981
 11
8.587
 20
-88.98
 21
-89.25
  0
LINE
  8
0
 10
8.587
 11
9.124
 20
-89.25
 21
-89.641
  0
LINE
  8
0
 10
9.124
 11
9.569
 20
-89.641
 21
-90.134
  0
LINE
  8
0
 10
9.569
 11
9.901
 20
-90.134
 21
-90.709
  0
LINE
  8
0
 10
9.901
 11
10.106
 20
-90.709
 21
-91.34
  0
LINE
  8
0
 10
10.106
 11
10.175
 20
-91.34
 21
-92
  0
LINE
  8
0
 10
10.175
 11
10.106
 20
-92
 21
-92.66
  0
LINE
  8
0
 10
10.106
 11
9.901
 20
-92.66
 21
-93.291
  0
LINE
  8
0
 10
9.901
 11
9.569
 20
-93.291
 21
-93.866
  0
LINE
  8
0
 10
9.569
 11
9.124
 20
-93.866
 21
-94.359
  0
LINE
  8
0
 10
9.124
 11
8.587
 20
-94.359
 21
-94.75
  0
LINE
  8
0
 10
8.587
 11
7.981
 20
-94.75
 21
-95.02
  0
LINE
  8
0
 10
7.981
 11
7.332
 20
-95.02
 21
-95.158
  0
LINE
  8
0
 10
7.332
 11
6.668
 20
-95.158
 21
-95.158
  0
LINE
  8
0
 10
6.668
 11
6.019
 20
-95.158
 21
-95.02
  0
LINE
  8
0
 10
6.019
 11
5.413
 20
-95.02
 21
-94.75
  0
LINE
  8
0
 10
5.413
 11
4.876
 20
-94.75
 21
-94.359
  0
LINE
  8
0
 10
4.876
 11
4.431
 20
-94.359
 21
-93.866
  0
LINE
  8
0
 10
4.431
 11
4.099
 20
-93.866
 21
-93.291
  0
LINE
  8
0
 10
4.099
 11
3.894
 20
-93.291
 21
-92.66
  0
LINE
  8
0
 10
3.894
 11
3.825
 20
-92.66
 21
-92
  0
LINE
  8
0
 10
7.546
 11
35.83
 20
14.97
 21
43.254
  0
LINE
  8
0
 10
35.83
 11
43.254
 20
43.254
 21
35.83
  0
LINE
  8
0
 10
43.254
 11
14.97
 20
35.83
 21
7.546
  0
LINE
  8
0
 10
14.97
 11
7.546
 20
7.546
 21
14.97
  0
LINE
  8
0
 10
15.025
 11
15.094
 20
-26.9
 21
-26.24
  0
LINE
  8
0
 10
15.094
 11
15.299
 20
-26.24
 21
-25.609
  0
LINE
  8
0
 10
15.299
 11
15.631
 20
-25.609
 21
-25.034
  0
LINE
  8
0
 10
15.631
 11
16.076
 20
-25.034
 21
-24.541
  0
LINE
  8
0
 10
16.076
 11
16.613
 20
-24.541
 21
-24.15
  0
LINE
  8
0
 10
16.613
 11
17.219
 20
-24.15
 21
-23.88
  0
LINE
  8
0
 10
17.219
 11
17.868
 20
-23.88
 21
-23.742
  0
LINE
  8
0
 10
17.868
 11
18.532
 20
-23.742
 21
-23.742
  0
LINE
  8
0
 10
18.532
 11
19.181
 20
-23.742
 21
-23.88
  0
LINE
  8
0
 10
19.181
 11
19.787
 20
-23.88
 21
-24.15
  0
LINE
  8
0
 10
19.787
 11
20.324
 20
-24.15
 21
-24.541
  0
LINE
  8
0
 10
20.324
 11
20.769
 20
-24.541
 21
-25.034
  0
LINE
  8
0
 10
20.769
 11
21.101
 20
-25.034
 21
-25.609
  0
LINE
  8
0
 10
21.101
 11
21.306
 20
-25.609
 21
-26.24
  0
LINE
  8
0
 10
21.306
 11
21.375
 20
-26.24
 21
-26.9
  0
LINE
  8
0
 10
21.375
 11
21.306
 20
-26.9
 21
-27.56
  0
LINE
  8
0
 10
21.306
 11
21.101
 20
-27.56
 21
-28.191
  0
LINE
  8
0
 10
21.101
 11
20.769
 20
-28.191
 21
-28.766
  0
LINE
  8
0
 10
20.769
 11
20.324
 20
-28.766
 21
-29.259
  0
LINE
  8
0
 10
20.324
 11
19.787
 20
-29.259
 21
-29.65
  0
LINE
  8
0
 10
19.787
 11
19.181
 20
-29.65
 21
-29.92
  0
LINE
  8
0
 10
19.181
 11
18.532
 20
-29.92
 21
-30.058
  0
LINE
  8
0
 10
18.532
 11
17.868
 20
-30.058
 21
-30.058
  0
LINE
  8
0
 10
17.868
 11
17.219
 20
-30.058
 21
-29.92
  0
LINE
  8
0
 10
17.219
 11
16.613
 20
-29.92
 21
-29.65
  0
LINE
  8
0
 10
16.613
 11
16.076
 20
-29.65
 21
-29.259
  0
LINE
  8
0
 10
16.076
 11
15.631
 20
-29.259
 21
-28.766
  0
LINE
  8
0
 10
15.631
 11
15.299
 20
-28.766
 21
-28.191
  0
LINE
  8
0
 10
15.299
 11
15.094
 20
-28.191
 21
-27.56
  0
LINE
  8
0
 10
15.094
 11
15.025
 20
-27.56
 21
-26.9
  0
LINE
  8
0
 10
26.825
 11
26.894
 20
-65
 21
-64.34
  0
LINE
  8
0
 10
26.894
 11
27.099
 20
-64.34
 21
-63.709
  0
LINE
  8
0
 10
27.099
 11
27.431
 20
-63.709
 21
-63.134
  0
LINE
  8
0
 10
27.431
 11
27.876
 20
-63.134
 21
-62.641
  0
LINE
  8
0
 10
27.876
 11
28.413
 20
-62.641
 21
-62.25
  0
LINE
  8
0
 10
28.413
 11
29.019
 20
-62.25
 21
-61.98
  0
LINE
  8
0
 10
29.019
 11
29.668
 20
-61.98
 21
-61.842
  0
LINE
  8
0
 10
29.668
 11
30.332
 20
-61.842
 21
-61.842
  0
LINE
  8
0
 10
30.332
 11
30.981
 20
-61.842
 21
-61.98
  0
LINE
  8
0
 10
30.981
 11
31.587
 20
-61.98
 21
-62.25
  0
LINE
  8
0
 10
31.587
 11
32.124
 20
-62.25
 21
-62.641
  0
LINE
  8
0
 10
32.124
 11
32.569
 20
-62.641
 21
-63.134
  0
LINE
  8
0
 10
32.569
 11
32.901
 20
-63.134
 21
-63.709
  0
LINE
  8
0
 10
32.901
 11
33.106
 20
-63.709
 21
-64.34
  0
LINE
  8
0
 10
33.106
 11
33.175
 20
-64.34
 21
-65
  0
LINE
  8
0
 10
33.175
 11
33.106
 20
-65
 21
-65.66
  0
LINE
  8
0
 10
33.106
 11
32.901
 20
-65.66
 21
-66.291
  0
LINE
  8
0
 10
32.901
 11
32.569
 20
-66.291
 21
-66.866
  0
LINE
  8
0
 10
32.569
 11
32.124
 20
-66.866
 21
-67.359
  0
LINE
  8
0
 10
32.124
 11
31.587
 20
-67.359
 21
-67.75
  0
LINE
  8
0
 10
31.587
 11
30.981
 20
-67.75
 21
-68.02
  0
LINE
  8
0
 10
30.981
 11
30.332
 20
-68.02
 21
-68.158
  0
LINE
  8
0
 10
30.332
 11
29.668
 20
-68.158
 21
-68.158
  0
LINE
  8
0
 10
29.668
 11
29.019
 20
-68.158
 21
-68.02
  0
LINE
  8
0
 10
29.019
 11
28.413
 20
-68.02
 21
-67.75
  0
LINE
  8
0
 10
28.413
 11
27.876
 20
-67.75
 21
-67.359
  0
LINE
  8
0
 10
27.876
 11
27.431
 20
-67.359
 21
-66.866
  0
LINE
  8
0
 10
27.431
 11
27.099
 20
-66.866
 21
-66.291
  0
LINE
  8
0
 10
27.099
 11
26.894
 20
-66.291
 21
-65.66
  0
LINE
  8
0
 10
26.894
 11
26.825
 20
-65.66
 21
-65
  0
LINE
  8
0
 10
44.45
 11
44.589
 20
-108
 21
-106.68
  0
LINE
  8
0
 10
44.589
 11
44.999
 20
-106.68
 21
-105.417
  0
LINE
  8
0
 10
44.999
 11
45.663
 20
-105.417
 21
-104.268
  0
LINE
  8
0
 10
45.663
 11
46.551
 20
-104.268
 21
-103.281
  0
LINE
  8
0
 10
46.551
 11
47.625
 20
-103.281
 21
-102.501
  0
LINE
  8
0
 10
47.625
 11
48.838
 20
-102.501
 21
-101.961
  0
LINE
  8
0
 10
48.838
 11
50.136
 20
-101.961
 21
-101.685
  0
LINE
  8
0
 10
50.136
 11
51.464
 20
-101.685
 21
-101.685
  0
LINE
  8
0
 10
51.464
 11
52.762
 20
-101.685
 21
-101.961
  0
LINE
  8
0
 10
52.762
 11
53.975
 20
-101.961
 21
-102.501
  0
LINE
  8
0
 10
53.975
 11
55.049
 20
-102.501
 21
-103.281
  0
LINE
  8
0
 10
55.049
 11
55.937
 20
-103.281
 21
-104.268
  0
LINE
  8
0
 10
55.937
 11
56.601
 20
-104.268
 21
-105.417
  0
LINE
  8
0
 10
56.601
 11
57.011
 20
-105.417
 21
-106.68
  0
LINE
  8
0
 10
57.011
 11
57.15
 20
-106.68
 21
-108
  0
LINE
  8
0
 10
57.15
 11
57.011
 20
-108
 21
-109.32
  0
LINE
  8
0
 10
57.011
 11
56.601
 20
-109.32
 21
-110.583
  0
LINE
  8
0
 10
56.601
 11
55.937
 20
-110.583
 21
-111.732
  0
LINE
  8
0
 10
55.937
 11
55.049
 20
-111.732
 21
-112.719
  0
LINE
  8
0
 10
55.049
 11
53.975
 20
-112.719
 21
-113.499
  0
LINE
  8
0
 10
53.975
 11
52.762
 20
-113.499
 21
-114.039
  0
LINE
  8
0
 10
52.762
 11
51.464
 20
-114.039
 21
-114.315
  0
LINE
  8
0
 10
51.464
 11
50.136
 20
-114.315
 21
-114.315
  0
LINE
  8
0
 10
50.136
 11
48.838
 20
-114.315
 21
-114.039
  0
LINE
  8
0
 10
48.838
 11
47.625
 20
-114.039
 21
-113.499
  0
LINE
  8
0
 10
47.625
 11
46.551
 20
-113.499
 21
-112.719
  0
LINE
  8
0
 10
46.551
 11
45.663
 20
-112.719
 21
-111.732
  0
LINE
  8
0
 10
45.663
 11
44.999
 20
-111.732
 21
-110.583
  0
LINE
  8
0
 10
44.999
 11
44.589
 20
-110.583
 21
-109.32
  0
LINE
  8
0
 10
44.589
 11
44.45
 20
-109.32
 21
-108
  0
LINE
  8
0
 10
65.825
 11
65.894
 20
-77.7
 21
-77.04
  0
LINE
  8
0
 10
65.894
 11
66.099
 20
-77.04
 21
-76.409
  0
LINE
  8
0
 10
66.099
 11
66.431
 20
-76.409
 21
-75.834
  0
LINE
  8
0
 10
66.431
 11
66.876
 20
-75.834
 21
-75.341
  0
LINE
  8
0
 10
66.876
 11
67.413
 20
-75.341
 21
-74.95
  0
LINE
  8
0
 10
67.413
 11
68.019
 20
-74.95
 21
-74.68
  0
LINE
  8
0
 10
68.019
 11
68.668
 20
-74.68
 21
-74.542
  0
LINE
  8
0
 10
68.668
 11
69.332
 20
-74.542
 21
-74.542
  0
LINE
  8
0
 10
69.332
 11
69.981
 20
-74.542
 21
-74.68
  0
LINE
  8
0
 10
69.981
 11
70.587
 20
-74.68
 21
-74.95
  0
LINE
  8
0
 10
70.587
 11
71.124
 20
-74.95
 21
-75.341
  0
LINE
  8
0
 10
71.124
 11
71.569
 20
-75.341
 21
-75.834
  0
LINE
  8
0
 10
71.569
 11
71.901
 20
-75.834
 21
-76.409
  0
LINE
  8
0
 10
71.901
 11
72.106
 20
-76.409
 21
-77.04
  0
LINE
  8
0
 10
72.106
 11
72.175
 20
-77.04
 21
-77.7
  0
LINE
  8
0
 10
72.175
 11
72.106
 20
-77.7
 21
-78.36
  0
LINE
  8
0
 10
72.106
 11
71.901
 20
-78.36
 21
-78.991
  0
LINE
  8
0
 10
71.901
 11
71.569
 20
-78.991
 21
-79.566
  0
LINE
  8
0
 10
71.569
 11
71.124
 20
-79.566
 21
-80.059
  0
LINE
  8
0
 10
71.124
 11
70.587
 20
-80.059
 21
-80.45
  0
LINE
  8
0
 10
70.587
 11
69.981
 20
-80.45
 21
-80.72
  0
LINE
  8
0
 10
69.981
 11
69.332
 20
-80.72
 21
-80.858
  0
LINE
  8
0
 10
69.332
 11
68.668
 20
-80.858
 21
-80.858
  0
LINE
  8
0
 10
68.668
 11
68.019
 20
-80.858
 21
-80.72
  0
LINE
  8
0
 10
68.019
 11
67.413
 20
-80.72
 21
-80.45
  0
LINE
  8
0
 10
67.413
 11
66.876
 20
-80.45
 21
-80.059
  0
LINE
  8
0
 10
66.876
 11
66.431
 20
-80.059
 21
-79.566
  0
LINE
  8
0
 10
66.431
 11
66.099
 20
-79.566
 21
-78.991
  0
LINE
  8
0
 10
66.099
 11
65.894
 20
-78.991
 21
-78.36
  0
LINE
  8
0
 10
65.894
 11
65.825
 20
-78.36
 21
-77.7
  0
LINE
  8
0
 10
85.3
 11
85.934
 20
114.3
 21
120.329
  0
LINE
  8
0
 10
85.934
 11
87.807
 20
120.329
 21
126.095
  0
LINE
  8
0
 10
87.807
 11
90.839
 20
126.095
 21
131.346
  0
LINE
  8
0
 10
90.839
 11
94.895
 20
131.346
 21
135.851
  0
LINE
  8
0
 10
94.895
 11
99.8
 20
135.851
 21
139.415
  0
LINE
  8
0
 10
99.8
 11
105.339
 20
139.415
 21
141.881
  0
LINE
  8
0
 10
105.339
 11
111.269
 20
141.881
 21
143.141
  0
LINE
  8
0
 10
111.269
 11
117.331
 20
143.141
 21
143.141
  0
LINE
  8
0
 10
117.331
 11
123.261
 20
143.141
 21
141.881
  0
LINE
  8
0
 10
123.261
 11
128.8
 20
141.881
 21
139.415
  0
LINE
  8
0
 10
128.8
 11
133.705
 20
139.415
 21
135.851
  0
LINE
  8
0
 10
133.705
 11
137.761
 20
135.851
 21
131.346
  0
LINE
  8
0
 10
137.761
 11
140.793
 20
131.346
 21
126.095
  0
LINE
  8
0
 10
140.793
 11
142.666
 20
126.095
 21
120.329
  0
LINE
  8
0
 10
142.666
 11
143.3
 20
120.329
 21
114.3
  0
LINE
  8
0
 10
143.3
 11
142.666
 20
114.3
 21
108.271
  0
LINE
  8
0
 10
142.666
 11
140.793
 20
108.271
 21
102.505
  0
LINE
  8
0
 10
140.793
 11
137.761
 20
102.505
 21
97.254
  0
LINE
  8
0
 10
137.761
 11
133.705
 20
97.254
 21
92.749
  0
LINE
  8
0
 10
133.705
 11
128.8
 20
92.749
 21
89.185
  0
LINE
  8
0
 10
128.8
 11
123.261
 20
89.185
 21
86.719
  0
LINE
  8
0
 10
123.261
 11
117.331
 20
86.719
 21
85.459
  0
LINE
  8
0
 10
117.331
 11
111.269
 20
85.459
 21
85.459
  0
LINE
  8
0
 10
111.269
 11
105.339
 20
85.459
 21
86.719
  0
LINE
  8
0
 10
105.339
 11
99.8
 20
86.719
 21
89.185
  0
LINE
  8
0
 10
99.8
 11
94.895
 20
89.185
 21
92.749
  0
LINE
  8
0
 10
94.895
 11
90.839
 20
92.749
 21
97.254
  0
LINE
  8
0
 10
90.839
 11
87.807
 20
97.254
 21
102.505
  0
LINE
  8
0
 10
87.807
 11
85.934
 20
102.505
 21
108.271
  0
LINE
  8
0
 10
85.934
 11
85.3
 20
108.271
 21
114.3
  0
LINE
  8
0
 10
112.823
 11
137.571
 20
-137.571
 21
-112.823
  0
LINE
  8
0
 10
137.571
 11
141.177
 20
-112.823
 21
-116.429
  0
LINE
  8
0
 10
141.177
 11
116.429
 20
-116.429
 21
-141.177
  0
LINE
  8
0
 10
116.429
 11
112.823
 20
-141.177
 21
-137.571
  0
LINE
  8
0
 10
132.825
 11
132.894
 20
-152.4
 21
-151.74
  0
LINE
  8
0
 10
132.894
 11
133.099
 20
-151.74
 21
-151.109
  0
LINE
  8
0
 10
133.099
 11
133.431
 20
-151.109
 21
-150.534
  0
LINE
  8
0
 10
133.431
 11
133.876
 20
-150.534
 21
-150.041
  0
LINE
  8
0
 10
133.876
 11
134.413
 20
-150.041
 21
-149.65
  0
LINE
  8
0
 10
134.413
 11
135.019
 20
-149.65
 21
-149.38
  0
LINE
  8
0
 10
135.019
 11
135.668
 20
-149.38
 21
-149.242
  0
LINE
  8
0
 10
135.668
 11
136.332
 20
-149.242
 21
-149.242
  0
LINE
  8
0
 10
136.332
 11
136.981
 20
-149.242
 21
-149.38
  0
LINE
  8
0
 10
136.981
 11
137.587
 20
-149.38
 21
-149.65
  0
LINE
  8
0
 10
137.587
 11
138.124
 20
-149.65
 21
-150.041
  0
LINE
  8
0
 10
138.124
 11
138.569
 20
-150.041
 21
-150.534
  0
LINE
  8
0
 10
138.569
 11
138.901
 20
-150.534
 21
-151.109
  0
LINE
  8
0
 10
138.901
 11
139.106
 20
-151.109
 21
-151.74
  0
LINE
  8
0
 10
139.106
 11
139.175
 20
-151.74
 21
-152.4
  0
LINE
  8
0
 10
139.175
 11
139.106
 20
-152.4
 21
-153.06
  0
LINE
  8
0
 10
139.106
 11
138.901
 20
-153.06
 21
-153.691
  0
LINE
  8
0
 10
138.901
 11
138.569
 20
-153.691
 21
-154.266
  0
LINE
  8
0
 10
138.569
 11
138.124
 20
-154.266
 21
-154.759
  0
LINE
  8
0
 10
138.124
 11
137.587
 20
-154.759
 21
-155.15
  0
LINE
  8
0
 10
137.587
 11
136.981
 20
-155.15
 21
-155.42
  0
LINE
  8
0
 10
136.981
 11
136.332
 20
-155.42
 21
-155.558
  0
LINE
  8
0
 10
136.332
 11
135.668
 20
-155.558
 21
-155.558
  0
LINE
  8
0
 10
135.668
 11
135.019
 20
-155.558
 21
-155.42
  0
LINE
  8
0
 10
135.019
 11
134.413
 20
-155.42
 21
-155.15
  0
LINE
  8
0
 10
134.413
 11
133.876
 20
-155.15
 21
-154.759
  0
LINE
  8
0
 10
133.876
 11
133.431
 20
-154.759
 21
-154.266
  0
LINE
  8
0
 10
133.431
 11
133.099
 20
-154.266
 21
-153.691
  0
LINE
  8
0
 10
133.099
 11
132.894
 20
-153.691
 21
-153.06
  0
LINE
  8
0
 10
132.894
 11
132.825
 20
-153.06
 21
-152.4
  0
ENDSEC
  0
SECTION
  2
OBJECTS
  0
DICTIONARY
  0
ENDSEC
  0
EOF
